<svg width="50" height="59" viewBox="0 0 50 59" fill="none" xmlns="http://www.w3.org/2000/svg">
<path fill-rule="evenodd" clip-rule="evenodd" d="M8.99408 12.8965C8.32781 13.0612 7.49509 13.3908 6.82881 13.7205C6.32923 13.8853 5.82964 14.3798 5.32982 14.7096C4.66355 15.2039 4.16396 15.6984 3.49769 16.3577C1.83225 17.8413 0.499705 19.8192 0.166569 21.9621C0.000121013 22.6214 0.00012207 23.1159 0.00012207 23.7752C0.00012207 24.2698 0.166569 24.7643 0.166569 25.2586C0.333257 26.2477 0.666396 27.072 0.999532 27.7313C1.33267 28.3906 1.66556 28.8851 1.9987 29.3794C2.33184 29.7092 2.66497 29.8739 2.99811 30.2037C3.66438 30.863 4.66355 31.5223 5.66296 31.8521C6.16254 32.1816 6.82881 32.3466 7.32864 32.5113C8.66094 32.8409 9.99349 32.0168 10.4931 30.6982C10.8262 29.5444 9.99349 28.0608 8.66094 27.7313C8.16136 27.5663 7.66153 27.4015 7.32864 27.2367C7.16195 27.2367 6.9955 27.2367 6.9955 27.072C6.66237 26.907 6.32923 26.5774 5.99609 26.2477C5.82964 25.9181 5.66296 25.7531 5.66296 25.5884C5.49651 25.0938 5.32982 24.5993 5.16337 24.105C5.16337 23.7752 5.16337 23.6105 5.16337 23.2807C5.32982 22.9512 5.32982 22.7862 5.49651 22.4566C5.66296 21.9621 5.99609 21.6323 6.16254 21.3028C6.9955 20.4785 7.82822 19.6545 8.66094 18.9952C8.99408 18.6654 9.32721 18.5006 9.66035 18.3359C9.99348 18.1709 10.4931 18.0061 10.9927 18.0061C11.3258 18.0061 11.6589 18.0061 11.8254 18.0061C12.3252 18.1709 12.8248 18.1709 13.1579 18.3359C13.9906 18.8304 14.8234 19.3247 15.6563 19.8192C16.1559 20.3138 16.6555 20.8083 17.1553 21.4676C17.3218 21.4676 17.3218 21.6323 17.4885 21.7973C17.4885 22.1269 17.6549 22.4566 17.6549 22.7862C17.6549 23.6105 17.6549 24.2698 17.6549 25.0938C17.4884 25.9181 17.3218 26.7422 16.9886 27.5663C15.8228 29.8739 14.3238 31.687 12.9915 33.6652C12.3252 34.819 11.6589 35.8078 11.1593 36.9617C10.4931 38.4453 9.66035 40.0936 9.66035 41.7417C9.49366 43.0606 10.4931 44.2144 11.6589 44.5439C13.1579 45.0385 14.8234 44.2144 15.3232 42.566C15.4896 41.2474 15.6563 39.9286 16.1559 38.61C16.6555 37.621 17.3218 36.6321 17.988 35.6431C18.6543 34.654 19.487 33.6652 20.1533 32.6761C20.986 31.3575 21.6523 30.0389 22.1519 28.5553C22.6515 27.2367 22.8181 25.7531 22.9846 24.2698C23.1513 23.2807 22.9846 22.2916 22.8181 21.3028C22.6515 19.8192 21.6523 18.3359 20.6529 17.182C19.487 16.0282 18.3212 15.0391 16.9886 14.3798C15.8228 13.5558 14.4905 13.0612 13.1579 12.7315C12.4916 12.5667 11.9921 12.5667 11.4925 12.5667C10.6595 12.5667 9.8268 12.7315 8.99408 12.8965Z" fill="#1EE8B7"/>
<path fill-rule="evenodd" clip-rule="evenodd" d="M9.32043 54.8101C9.32043 56.7709 10.9907 58.5684 12.995 58.5684C15.1666 58.5684 16.8368 56.9344 16.8368 54.8101C16.8368 52.8493 15.1666 51.0518 13.1622 51.0518C11.1576 51.0518 9.32043 52.6859 9.32043 54.8101Z" fill="#1EE8B7"/>
<path fill-rule="evenodd" clip-rule="evenodd" d="M43.2818 2.6335C42.7982 4.21284 42.2075 5.58634 41.724 7.16545C41.2887 8.58679 40.8535 10.0081 40.4183 11.4292C39.9831 12.8506 39.5479 14.2717 38.9574 15.6455C38.7156 16.435 38.5222 17.0666 38.2804 17.8564C37.9903 18.8037 37.5447 19.7037 37.5652 20.7464C37.624 21.1098 37.7896 21.6787 37.8484 22.0421C38.1695 22.6586 38.7428 23.007 39.5197 23.2449C40.4521 23.5304 41.7334 23.2317 42.3826 22.2215C43.1771 20.7376 43.709 19.0005 44.1926 17.4214C44.6278 16.0001 45.0631 14.5787 45.4982 13.1576C45.9335 11.7363 46.3687 10.3152 46.8039 8.89384C47.2874 7.31473 47.9262 5.78316 48.3615 4.36182C48.9522 2.98809 48.0959 1.34432 46.6973 0.916054C45.2985 0.487716 43.8724 1.26 43.2818 2.6335Z" fill="#0C0C0C"/>
<path fill-rule="evenodd" clip-rule="evenodd" d="M32.4946 33.1149C31.9732 34.8178 33.0061 36.658 34.6277 37.1546C36.4115 37.7008 38.2505 36.9093 38.772 35.2065C39.2934 33.5036 38.2602 31.6636 36.6386 31.167C34.8548 30.6208 32.9687 31.5669 32.4946 33.1149Z" fill="#0C0C0C"/>
</svg>
