<svg width="171" height="90" viewBox="0 0 171 90" fill="none" xmlns="http://www.w3.org/2000/svg">
<path fill-rule="evenodd" clip-rule="evenodd" d="M1.9375 56C-0.880239 44.2434 -3.86345 14.5285 18.2757 5.02097C40.4148 -4.48658 111.421 5.32762 134.687 9.31467C146.938 13 154.331 18.9244 157.873 28.943C161.415 38.9617 176.389 61.657 155.941 69.4266C135.492 77.1961 60.9438 76.0716 35.1819 75.5605C22.9376 75.5605 7.02265 69.1403 1.9375 56Z" fill="#1EE8B7"/>
<path fill-rule="evenodd" clip-rule="evenodd" d="M32.6594 88.7721C31.9086 89.216 30.9891 88.5531 31.1729 87.7005L39.2011 50.4676L65.435 69.3945L32.6594 88.7721Z" fill="#1EE8B7"/>
<path fill-rule="evenodd" clip-rule="evenodd" d="M6 55C3.18226 43.2434 0.199055 13.5285 22.3382 4.02097C44.4773 -5.48658 115.483 4.32762 138.75 8.31467C151 12 158.393 17.9244 161.935 27.943C165.478 37.9617 180.452 60.657 160.003 68.4266C139.555 76.1961 65.0063 75.0716 39.2444 74.5605C27.0001 74.5605 11.0852 68.1403 6 55Z" fill="white"/>
<path fill-rule="evenodd" clip-rule="evenodd" d="M36.7219 87.7721C35.9711 88.216 35.0516 87.5531 35.2354 86.7005L43.2636 49.4676L69.4975 68.3945L36.7219 87.7721Z" fill="white"/>
<path d="M35.2227 23.8496C35.3281 23.5332 35.4775 23.3486 35.6709 23.2959C35.8818 23.2432 36.1191 23.2168 36.3828 23.2168C36.7871 23.2168 37.2354 23.4893 37.7275 24.0342C38.2373 24.5615 38.7559 25.2734 39.2832 26.1699C39.8105 27.0664 40.3379 28.0947 40.8652 29.2549C41.4102 30.415 41.9287 31.6191 42.4209 32.8672C42.9307 34.0977 43.4053 35.3281 43.8447 36.5586C44.2842 37.7891 44.6621 38.9229 44.9785 39.96C45.3125 40.9795 45.5674 41.8672 45.7432 42.623C45.9189 43.3789 46.0068 43.8975 46.0068 44.1787C46.0068 44.46 45.9365 44.7324 45.7959 44.9961C45.6729 45.2422 45.4443 45.3652 45.1104 45.3652C44.8994 45.3652 44.7148 45.3037 44.5566 45.1807C44.416 45.04 44.293 44.873 44.1875 44.6797C44.082 44.4863 43.9854 44.293 43.8975 44.0996C43.8096 43.9062 43.7305 43.7393 43.6602 43.5986C43.5898 43.4053 43.4404 43.0361 43.2119 42.4912C43.001 41.9463 42.7725 41.375 42.5264 40.7773C42.2979 40.1797 42.0781 39.6172 41.8672 39.0898C41.6562 38.5625 41.5068 38.1846 41.4189 37.9561C40.1885 37.7451 38.9492 37.5518 37.7012 37.376C36.4707 37.1826 35.1699 36.998 33.7988 36.8223H33.5088C32.876 39.5469 32.3135 41.7002 31.8213 43.2822C31.3467 44.8643 30.9424 45.9893 30.6084 46.6572C30.292 47.3252 30.0371 47.5977 29.8438 47.4746C29.668 47.3691 29.5449 46.9736 29.4746 46.2881C29.4219 45.585 29.4307 44.6533 29.501 43.4932C29.5889 42.333 29.7383 41.0586 29.9492 39.6699C30.1777 38.2637 30.4502 36.7959 30.7666 35.2666C31.083 33.7373 31.4609 32.2607 31.9004 30.8369C32.3574 29.4131 32.8584 28.0947 33.4033 26.8818C33.9658 25.6514 34.5723 24.6406 35.2227 23.8496ZM34.5898 33.1309C34.5898 33.7812 34.8008 34.2646 35.2227 34.5811C35.6445 34.8799 36.1543 35.0732 36.752 35.1611C37.3496 35.249 37.9736 35.2842 38.624 35.2666C39.292 35.249 39.8633 35.2402 40.3379 35.2402C40.3379 34.5371 40.2236 33.7812 39.9951 32.9727C39.7666 32.1465 39.4766 31.3291 39.125 30.5205C38.7734 29.7119 38.3955 28.9297 37.9912 28.1738C37.6045 27.4004 37.2441 26.7061 36.9102 26.0908C36.7168 26.2842 36.5059 26.6445 36.2773 27.1719C36.0664 27.6816 35.8467 28.2617 35.6182 28.9121C35.4072 29.5449 35.2139 30.1689 35.0381 30.7842C34.8623 31.3994 34.7305 31.9004 34.6426 32.2871C34.6426 32.3398 34.6338 32.4805 34.6162 32.709C34.5986 32.9199 34.5898 33.0605 34.5898 33.1309ZM47.8852 38.1143C47.8852 37.6572 47.9995 37.332 48.228 37.1387C48.4565 36.9277 48.8257 36.8223 49.3354 36.8223H49.5991C49.6518 37.1035 49.7134 37.4287 49.7837 37.7979C49.854 38.167 49.9595 38.5449 50.1001 38.9316C50.2407 39.3184 50.4077 39.6787 50.6011 40.0127C50.7944 40.3291 51.0317 40.584 51.313 40.7773C51.3305 40.1621 51.48 39.5732 51.7612 39.0107C52.06 38.4307 52.4204 37.9209 52.8423 37.4814C53.2817 37.0244 53.7563 36.6465 54.2661 36.3477C54.7934 36.0312 55.312 35.8203 55.8218 35.7148H56.4018C57.2456 35.7148 57.9663 35.9082 58.5639 36.2949C59.1616 36.6641 59.6538 37.1562 60.0405 37.7715C60.4448 38.3691 60.7524 39.0547 60.9634 39.8281C61.1743 40.6016 61.3325 41.3926 61.438 42.2012C61.561 42.9922 61.6313 43.7656 61.6489 44.5215C61.6841 45.2598 61.7016 45.8926 61.7016 46.4199H59.7768C59.6714 45.3652 59.5395 44.3545 59.3813 43.3877C59.3286 43.001 59.2583 42.5967 59.1704 42.1748C59.0825 41.7354 58.9858 41.3311 58.8804 40.9619C58.7749 40.5752 58.6606 40.2236 58.5376 39.9072C58.4145 39.5732 58.2739 39.292 58.1157 39.0635C58.0454 38.9932 57.9487 38.8965 57.8257 38.7734C57.7202 38.6504 57.6059 38.5273 57.4829 38.4043C57.3598 38.2812 57.2456 38.1758 57.1401 38.0879C57.0346 38 56.9731 37.9561 56.9555 37.9561C56.4282 37.8154 55.9712 37.9209 55.5845 38.2725C55.1977 38.6064 54.855 39.0635 54.5561 39.6436C54.2573 40.2236 54.0112 40.8828 53.8179 41.6211C53.6421 42.3594 53.4927 43.0713 53.3696 43.7568C53.2466 44.4248 53.1587 45.0137 53.1059 45.5234C53.0532 46.0156 53.018 46.3145 53.0005 46.4199C52.561 46.7363 52.1479 46.833 51.7612 46.71C51.3745 46.5693 51.0054 46.2881 50.6538 45.8662C50.3198 45.4443 50.0122 44.917 49.7309 44.2842C49.4673 43.6514 49.2212 42.9834 48.9927 42.2803C48.7641 41.5596 48.5532 40.8389 48.3598 40.1182C48.1841 39.3975 48.0259 38.7295 47.8852 38.1143ZM62.9736 33.3682C62.9736 33.21 62.9736 33.0518 62.9736 32.8936C62.9912 32.7178 63.0263 32.5596 63.0791 32.4189C63.1494 32.2607 63.2373 32.1465 63.3427 32.0762C63.4658 31.9883 63.6416 31.9443 63.8701 31.9443C63.8877 31.9443 63.9052 31.9443 63.9228 31.9443C63.958 31.9443 63.9931 31.9443 64.0283 31.9443C64.081 31.9619 64.125 31.9707 64.1601 31.9707C64.4941 32.4277 64.7841 33.0166 65.0302 33.7373C65.2763 34.4404 65.5136 35.1963 65.7421 36.0049C65.9707 36.7959 66.2168 37.6045 66.4804 38.4307C66.7441 39.2393 67.0869 39.9688 67.5088 40.6191C67.9306 41.2695 68.4492 41.7881 69.0644 42.1748C69.6796 42.5615 70.4443 42.7285 71.3584 42.6758C71.7627 42.6758 72.0263 42.4561 72.1494 42.0166C72.2724 41.5771 72.3339 41.0146 72.3339 40.3291C72.3515 39.6436 72.3339 38.8877 72.2812 38.0615C72.2461 37.2354 72.2461 36.4531 72.2812 35.7148C72.3339 34.959 72.4658 34.2998 72.6767 33.7373C72.9052 33.1748 73.292 32.7969 73.8369 32.6035C74.0654 33.0605 74.25 33.7812 74.3906 34.7656C74.5488 35.7324 74.663 36.8574 74.7334 38.1406C74.8037 39.4062 74.8388 40.7861 74.8388 42.2803C74.8388 43.7568 74.8037 45.2334 74.7334 46.71C74.663 48.1689 74.5576 49.5752 74.417 50.9287C74.2763 52.2822 74.1181 53.4688 73.9423 54.4883C73.7666 55.5078 73.5556 56.3076 73.3095 56.8877C73.081 57.4854 72.8349 57.7402 72.5713 57.6523C72.2021 57.3008 71.9121 56.8438 71.7011 56.2812C71.5078 55.7188 71.3671 55.0947 71.2793 54.4092C71.2089 53.7236 71.1826 52.9941 71.2002 52.2207C71.2177 51.4648 71.2441 50.7002 71.2793 49.9268C71.332 49.1533 71.3847 48.3975 71.4375 47.6592C71.5078 46.9209 71.5429 46.2441 71.5429 45.6289C70.9101 45.6816 70.2597 45.585 69.5918 45.3389C68.9414 45.0928 68.2998 44.7148 67.667 44.2051C67.0341 43.6777 66.4277 43.0449 65.8476 42.3066C65.2851 41.5684 64.7841 40.7334 64.3447 39.8018C63.9228 38.8701 63.5888 37.8682 63.3427 36.7959C63.0966 35.7061 62.9736 34.5635 62.9736 33.3682ZM80.6723 45.8662C80.1274 44.2842 79.6088 42.8076 79.1166 41.4365C78.642 40.0479 78.2202 38.6943 77.851 37.376C77.4995 36.04 77.2182 34.6865 77.0073 33.3154C76.7963 31.9443 76.6909 30.4766 76.6909 28.9121C76.6909 28.7891 76.6909 28.5693 76.6909 28.2529C76.7084 27.9189 76.7172 27.5762 76.7172 27.2246C76.7172 26.873 76.7172 26.5391 76.7172 26.2227C76.7348 25.8887 76.7436 25.6602 76.7436 25.5371C76.9018 25.1855 77.1743 24.8604 77.561 24.5615C77.9653 24.2627 78.3696 24.1133 78.7739 24.1133C78.7739 25.4141 78.7914 26.8027 78.8266 28.2793C78.8618 29.7383 78.9672 31.1973 79.143 32.6562C79.3364 34.1152 79.6352 35.5479 80.0395 36.9541C80.4614 38.3428 81.0502 39.6172 81.8061 40.7773C81.8237 40.3555 81.8413 39.8896 81.8588 39.3799C81.8764 38.8701 81.9204 38.3604 81.9907 37.8506C82.0786 37.3408 82.2104 36.8486 82.3862 36.374C82.562 35.8994 82.8168 35.4775 83.1508 35.1084C83.5024 34.7393 83.9506 34.4492 84.4955 34.2383C85.058 34.0273 85.7612 33.9307 86.6049 33.9482C87.3608 33.9482 88.0375 34.0889 88.6352 34.3701C89.2504 34.6514 89.7602 35.0381 90.1645 35.5303C90.5864 36.0049 90.9028 36.5674 91.1137 37.2178C91.3422 37.8506 91.4565 38.5273 91.4565 39.248C91.4565 40.2148 91.2192 41.1641 90.7446 42.0957C90.27 43.0273 89.6371 43.8623 88.8461 44.6006C88.0727 45.3389 87.2026 45.9365 86.2358 46.3936C85.269 46.833 84.2846 47.0527 83.2827 47.0527C82.7729 47.0527 82.2807 46.9648 81.8061 46.7891C81.3315 46.5957 80.9536 46.2881 80.6723 45.8662ZM86.9213 36.2422C86.5698 36.4355 86.2006 36.6641 85.8139 36.9277C85.4272 37.1914 85.0668 37.6045 84.7329 38.167C84.4164 38.7119 84.144 39.459 83.9155 40.4082C83.687 41.3574 83.5463 42.6143 83.4936 44.1787C83.5288 44.1787 83.6166 44.1875 83.7573 44.2051C83.9155 44.2227 84.0209 44.2314 84.0737 44.2314C84.5483 44.2314 85.0844 44.082 85.6821 43.7832C86.2973 43.4844 86.8862 43.1152 87.4487 42.6758C88.0288 42.2363 88.5297 41.7529 88.9516 41.2256C89.3735 40.6807 89.6284 40.1621 89.7163 39.6699C89.769 39.3711 89.7075 39.0283 89.5317 38.6416C89.3559 38.2549 89.1186 37.8857 88.8198 37.5342C88.5385 37.165 88.2221 36.8574 87.8705 36.6113C87.5366 36.3652 87.2202 36.2422 86.9213 36.2422ZM93.3349 41.6475C93.3349 40.5576 93.5898 39.5469 94.0995 38.6152C94.6093 37.666 95.2773 36.8574 96.1034 36.1895C96.9472 35.5039 97.8876 34.9678 98.9247 34.5811C99.9794 34.1943 101.043 34.001 102.115 34.001C102.713 34.001 103.24 34.1943 103.697 34.5811C104.172 34.9678 104.567 35.4424 104.884 36.0049C105.2 36.5498 105.437 37.1299 105.596 37.7451C105.771 38.3604 105.859 38.8965 105.859 39.3535C105.859 40.3379 105.622 41.2959 105.147 42.2275C104.673 43.1416 104.058 43.959 103.302 44.6797C102.546 45.3828 101.693 45.9541 100.744 46.3936C99.7948 46.833 98.8456 47.0527 97.8964 47.0527C97.0527 47.0527 96.3407 46.9121 95.7607 46.6309C95.1806 46.332 94.7148 45.9453 94.3632 45.4707C94.0116 44.9785 93.748 44.4072 93.5722 43.7568C93.414 43.0889 93.3349 42.3857 93.3349 41.6475ZM95.5761 41.9111C95.5761 42.3682 95.6113 42.7725 95.6816 43.124C95.7695 43.458 95.9101 43.748 96.1034 43.9941C96.3144 44.2402 96.5868 44.4336 96.9208 44.5742C97.2548 44.6973 97.6679 44.7588 98.1601 44.7588C98.8105 44.7588 99.4609 44.583 100.111 44.2314C100.762 43.8623 101.342 43.4053 101.851 42.8604C102.379 42.2979 102.801 41.6826 103.117 41.0146C103.434 40.3467 103.592 39.6963 103.592 39.0635C103.592 38.7822 103.565 38.4746 103.513 38.1406C103.46 37.8066 103.372 37.499 103.249 37.2178C103.126 36.9365 102.95 36.6992 102.722 36.5059C102.493 36.3125 102.203 36.2158 101.851 36.2158C101.535 36.2158 101.157 36.3213 100.718 36.5322C100.296 36.7432 99.8476 37.0156 99.373 37.3496C98.9159 37.6836 98.4589 38.0615 98.0019 38.4834C97.5624 38.9053 97.1581 39.3271 96.789 39.749C96.4198 40.1709 96.121 40.5752 95.8925 40.9619C95.6816 41.3486 95.5761 41.665 95.5761 41.9111ZM106.578 43.8887C106.578 42.8691 106.832 41.9639 107.342 41.1729C107.852 40.3818 108.485 39.6963 109.241 39.1162C109.996 38.5186 110.814 38.0176 111.693 37.6133C112.572 37.1914 113.389 36.8486 114.145 36.585C114.901 36.3037 115.534 36.084 116.043 35.9258C116.553 35.75 116.808 35.6094 116.808 35.5039C116.808 34.8887 116.773 34.291 116.703 33.7109C116.65 33.1133 116.588 32.5156 116.518 31.918C116.448 31.3203 116.377 30.7314 116.307 30.1514C116.254 29.5537 116.228 28.9648 116.228 28.3848V26.6709C116.949 26.4072 117.458 26.4336 117.757 26.75C118.074 27.0664 118.126 27.6113 117.915 28.3848C117.986 28.7715 118.082 29.3779 118.205 30.2041C118.329 31.0303 118.46 31.9619 118.601 32.999C118.759 34.0361 118.917 35.126 119.076 36.2686C119.251 37.4111 119.41 38.5098 119.55 39.5645C119.708 40.6016 119.84 41.5332 119.946 42.3594C120.051 43.168 120.13 43.7744 120.183 44.1787C120.201 44.2666 120.218 44.4424 120.236 44.7061C120.253 44.9521 120.262 45.2246 120.262 45.5234C120.28 45.8047 120.288 46.0684 120.288 46.3145C120.306 46.5605 120.315 46.7363 120.315 46.8418C119.647 46.8418 119.19 46.8154 118.944 46.7627C118.715 46.71 118.566 46.6045 118.496 46.4463C118.443 46.2881 118.416 46.0596 118.416 45.7607C118.416 45.4619 118.329 45.0488 118.153 44.5215C117.502 45.0312 116.887 45.4531 116.307 45.7871C115.727 46.1211 115.147 46.3936 114.567 46.6045C113.987 46.7979 113.398 46.9297 112.8 47C112.22 47.0879 111.596 47.1318 110.928 47.1318C110.366 47.1318 109.821 47.0879 109.293 47C108.784 46.8945 108.327 46.7188 107.922 46.4727C107.518 46.2266 107.193 45.8926 106.947 45.4707C106.701 45.0488 106.578 44.5215 106.578 43.8887ZM108.871 43.335C108.871 43.6162 108.933 43.8447 109.056 44.0205C109.179 44.1963 109.337 44.3457 109.531 44.4688C109.724 44.5918 109.926 44.6797 110.137 44.7324C110.366 44.7676 110.585 44.7852 110.796 44.7852C111.412 44.7852 112.071 44.6709 112.774 44.4424C113.495 44.1963 114.154 43.8623 114.751 43.4404C115.367 43.001 115.868 42.4824 116.254 41.8848C116.659 41.2871 116.861 40.6367 116.861 39.9336C116.861 39.3887 116.764 39.0107 116.571 38.7998C116.377 38.5889 116.008 38.4834 115.463 38.4834C114.901 38.4834 114.242 38.6152 113.486 38.8789C112.747 39.1426 112.027 39.4941 111.324 39.9336C110.638 40.373 110.058 40.8916 109.583 41.4893C109.109 42.0693 108.871 42.6846 108.871 43.335ZM121.692 33.3682C121.692 33.21 121.692 33.0518 121.692 32.8936C121.71 32.7178 121.745 32.5596 121.798 32.4189C121.868 32.2607 121.956 32.1465 122.061 32.0762C122.184 31.9883 122.36 31.9443 122.589 31.9443C122.606 31.9443 122.624 31.9443 122.641 31.9443C122.677 31.9443 122.712 31.9443 122.747 31.9443C122.8 31.9619 122.844 31.9707 122.879 31.9707C123.213 32.4277 123.503 33.0166 123.749 33.7373C123.995 34.4404 124.232 35.1963 124.461 36.0049C124.689 36.7959 124.935 37.6045 125.199 38.4307C125.463 39.2393 125.806 39.9688 126.227 40.6191C126.649 41.2695 127.168 41.7881 127.783 42.1748C128.398 42.5615 129.163 42.7285 130.077 42.6758C130.481 42.6758 130.745 42.4561 130.868 42.0166C130.991 41.5771 131.053 41.0146 131.053 40.3291C131.07 39.6436 131.053 38.8877 131 38.0615C130.965 37.2354 130.965 36.4531 131 35.7148C131.053 34.959 131.184 34.2998 131.395 33.7373C131.624 33.1748 132.011 32.7969 132.556 32.6035C132.784 33.0605 132.969 33.7812 133.109 34.7656C133.267 35.7324 133.382 36.8574 133.452 38.1406C133.522 39.4062 133.558 40.7861 133.558 42.2803C133.558 43.7568 133.522 45.2334 133.452 46.71C133.382 48.1689 133.276 49.5752 133.136 50.9287C132.995 52.2822 132.837 53.4688 132.661 54.4883C132.485 55.5078 132.274 56.3076 132.028 56.8877C131.8 57.4854 131.554 57.7402 131.29 57.6523C130.921 57.3008 130.631 56.8438 130.42 56.2812C130.226 55.7188 130.086 55.0947 129.998 54.4092C129.928 53.7236 129.901 52.9941 129.919 52.2207C129.936 51.4648 129.963 50.7002 129.998 49.9268C130.051 49.1533 130.103 48.3975 130.156 47.6592C130.226 46.9209 130.262 46.2441 130.262 45.6289C129.629 45.6816 128.978 45.585 128.31 45.3389C127.66 45.0928 127.018 44.7148 126.386 44.2051C125.753 43.6777 125.146 43.0449 124.566 42.3066C124.004 41.5684 123.503 40.7334 123.063 39.8018C122.641 38.8701 122.308 37.8682 122.061 36.7959C121.815 35.7061 121.692 34.5635 121.692 33.3682ZM139.971 45.8662C139.971 45.6553 140.05 45.418 140.208 45.1543C140.367 44.8906 140.551 44.6445 140.762 44.416C140.991 44.1875 141.228 43.9941 141.474 43.8359C141.738 43.6777 141.984 43.5986 142.212 43.5986C142.247 43.5986 142.335 43.6777 142.476 43.8359C142.634 43.9766 142.748 44.0908 142.819 44.1787C142.854 44.2314 142.898 44.3193 142.951 44.4424C143.021 44.5479 143.082 44.6621 143.135 44.7852C143.205 44.9082 143.258 45.0225 143.293 45.1279C143.328 45.2158 143.346 45.2686 143.346 45.2861C143.346 45.6201 143.302 45.875 143.214 46.0508C143.126 46.209 143.012 46.3232 142.871 46.3936C142.731 46.4463 142.564 46.4727 142.37 46.4727C142.195 46.4727 142.001 46.4727 141.79 46.4727C141.72 46.4727 141.588 46.4814 141.395 46.499C141.202 46.499 140.991 46.4902 140.762 46.4727C140.551 46.4375 140.367 46.3848 140.208 46.3145C140.05 46.2266 139.971 46.0771 139.971 45.8662ZM138.204 35.6621C138.204 35.0293 138.327 34.4404 138.574 33.8955C138.837 33.333 139.11 32.7881 139.391 32.2607C139.69 31.7334 139.962 31.1973 140.208 30.6523C140.472 30.0898 140.604 29.4922 140.604 28.8594C140.604 28.6309 140.534 28.4199 140.393 28.2266C140.27 28.0156 140.112 27.8398 139.918 27.6992C139.725 27.541 139.505 27.418 139.259 27.3301C139.013 27.2422 138.776 27.1982 138.547 27.1982C138.213 27.1982 137.897 27.2861 137.598 27.4619C137.317 27.6377 137.053 27.8486 136.807 28.0947C136.561 28.3232 136.324 28.5693 136.095 28.833C135.884 29.0967 135.673 29.3164 135.462 29.4922C135.427 29.5273 135.304 29.5625 135.093 29.5977C134.9 29.6328 134.777 29.6504 134.724 29.6504C134.724 28.9648 134.812 28.332 134.988 27.752C135.181 27.1719 135.462 26.6709 135.831 26.249C136.201 25.8271 136.658 25.502 137.202 25.2734C137.765 25.0273 138.398 24.9043 139.101 24.9043C139.593 24.9043 140.094 25.0186 140.604 25.2471C141.131 25.4756 141.597 25.7832 142.001 26.1699C142.406 26.5391 142.74 26.9609 143.003 27.4355C143.267 27.9102 143.399 28.4023 143.399 28.9121C143.399 29.5449 143.311 30.125 143.135 30.6523C142.977 31.1621 142.784 31.6455 142.555 32.1025C142.327 32.542 142.089 32.9727 141.843 33.3945C141.597 33.8164 141.386 34.2559 141.21 34.7129C141.035 35.1699 140.929 35.6621 140.894 36.1895C140.859 36.6992 140.929 37.2881 141.105 37.9561C141.07 38.0088 140.999 38.0703 140.894 38.1406C140.788 38.1934 140.674 38.2461 140.551 38.2988C140.446 38.3516 140.331 38.4043 140.208 38.457C140.103 38.5098 140.024 38.5361 139.971 38.5361C139.584 38.5361 139.277 38.4395 139.048 38.2461C138.82 38.0352 138.635 37.7891 138.494 37.5078C138.371 37.209 138.292 36.8926 138.257 36.5586C138.222 36.2246 138.204 35.9258 138.204 35.6621Z" fill="black"/>
</svg>
