<svg width="9" height="8" viewBox="0 0 9 8" fill="none" xmlns="http://www.w3.org/2000/svg">
<path d="M3.5308 0.59314C3.64353 0.593169 3.75368 0.626817 3.84719 0.689782C3.94069 0.752746 4.0133 0.842166 4.05572 0.94661C4.09814 1.05105 4.10844 1.16577 4.08532 1.27611C4.0622 1.38644 4.0067 1.48737 3.92591 1.56599L2.0599 3.43201H8.42526C8.50035 3.43094 8.57491 3.44482 8.64459 3.47282C8.71427 3.50082 8.77769 3.54239 8.83117 3.59512C8.88464 3.64784 8.92711 3.71067 8.95609 3.77995C8.98507 3.84923 9 3.92358 9 3.99867C9 4.07377 8.98507 4.14812 8.95609 4.2174C8.92711 4.28668 8.88464 4.34951 8.83117 4.40223C8.77769 4.45496 8.71427 4.49653 8.64459 4.52453C8.57491 4.55253 8.50035 4.5664 8.42526 4.56534H2.0599L3.92591 6.43135C3.9803 6.48357 4.02372 6.54611 4.05363 6.61532C4.08354 6.68453 4.09935 6.75901 4.10011 6.83439C4.10088 6.90978 4.0866 6.98457 4.0581 7.05437C4.0296 7.12417 3.98746 7.18758 3.93415 7.2409C3.88084 7.29421 3.81743 7.33635 3.74763 7.36484C3.67783 7.39334 3.60304 7.40762 3.52765 7.40686C3.45226 7.40609 3.37778 7.39029 3.30858 7.36037C3.23937 7.33046 3.17683 7.28704 3.12461 7.23266L0.341084 4.44913C0.271879 4.39639 0.215748 4.32842 0.17704 4.2505C0.138332 4.17257 0.118086 4.08678 0.117872 3.99977C0.117659 3.91276 0.137482 3.82687 0.175806 3.74876C0.21413 3.67064 0.269926 3.6024 0.33887 3.54932L0.34219 3.54711L3.12461 0.764689C3.17742 0.710406 3.24057 0.667257 3.31034 0.637792C3.3801 0.608327 3.45506 0.593144 3.5308 0.59314Z" fill="white"/>
</svg>
