<svg
            width="25"
            height="11"
            viewBox="0 0 25 11"
            fill="none"
            xmlns="http://www.w3.org/2000/svg"
          >
            <path
              d="M19.1585 0.491882C18.9928 0.491926 18.8308 0.541408 18.6933 0.634003C18.5557 0.726598 18.449 0.858098 18.3866 1.01169C18.3242 1.16528 18.3091 1.33399 18.3431 1.49624C18.3771 1.6585 18.4587 1.80692 18.5775 1.92255L21.3216 4.66669H1.66667C1.55625 4.66512 1.44661 4.68553 1.34414 4.7267C1.24166 4.76788 1.1484 4.82902 1.06976 4.90655C0.991114 4.98409 0.928668 5.07648 0.886045 5.17836C0.843422 5.28025 0.821472 5.38958 0.821472 5.50002C0.821472 5.61046 0.843422 5.71979 0.886045 5.82168C0.928668 5.92356 0.991114 6.01595 1.06976 6.09349C1.1484 6.17102 1.24166 6.23216 1.34414 6.27334C1.44661 6.31451 1.55625 6.33491 1.66667 6.33335H21.3216L18.5775 9.07749C18.4975 9.15428 18.4336 9.24625 18.3897 9.34803C18.3457 9.4498 18.3224 9.55933 18.3213 9.6702C18.3202 9.78107 18.3412 9.89104 18.3831 9.99369C18.425 10.0963 18.487 10.1896 18.5654 10.268C18.6438 10.3464 18.737 10.4084 18.8397 10.4503C18.9423 10.4922 19.0523 10.5132 19.1632 10.5121C19.274 10.5109 19.3836 10.4877 19.4853 10.4437C19.5871 10.3997 19.6791 10.3359 19.7559 10.2559L23.8493 6.16245C23.9511 6.0849 24.0336 5.98495 24.0905 5.87035C24.1475 5.75576 24.1772 5.62959 24.1775 5.50164C24.1779 5.37368 24.1487 5.24737 24.0923 5.1325C24.036 5.01762 23.9539 4.91727 23.8525 4.83921C23.8509 4.83812 23.8493 4.83704 23.8477 4.83596L19.7559 0.744161C19.6782 0.664332 19.5853 0.600878 19.4827 0.557548C19.3801 0.514217 19.2699 0.491889 19.1585 0.491882Z"
              fill="black"
            />
          </svg>