<svg width="53" height="77" viewBox="0 0 53 77" fill="none" xmlns="http://www.w3.org/2000/svg">
<g opacity="0.38" clip-path="url(#clip0)">
<path fill-rule="evenodd" clip-rule="evenodd" d="M14.4295 0.880417C14.2713 0.880417 14.0867 0.90676 13.9286 0.933103C13.8231 0.959447 13.744 1.01213 13.6913 1.03848C13.6122 1.09116 13.5331 1.17019 13.4804 1.27557C13.375 1.48631 13.3223 1.72336 13.2959 1.96045C13.2695 2.03948 13.2431 2.09217 13.2431 2.1712C13.1904 2.32926 13.1377 2.51366 13.085 2.69806C13.0586 2.80344 13.0059 2.9615 12.9795 3.11952C12.9268 3.30392 12.8741 3.46198 12.8477 3.64638C12.8477 3.69907 12.8477 3.75176 12.8477 3.80444C12.8213 3.80444 12.8213 3.80444 12.8213 3.80444C12.6368 3.80444 12.4787 3.83079 12.2941 3.83079C12.1359 3.85713 12.1359 3.85713 12.1359 3.85713C11.925 3.85713 11.7141 3.88347 11.5032 3.90982C11.266 3.9625 11.0551 4.01519 10.8178 4.09422C10.6069 4.14691 10.4224 4.25228 10.2115 4.33131C9.84241 4.48933 9.42061 4.70008 9.02516 4.96351C8.91971 5.04254 8.91971 5.04254 8.91971 5.04254C8.78792 5.14791 8.62974 5.25328 8.52429 5.33231C8.33974 5.49037 8.12884 5.64843 7.91794 5.8328C7.75976 5.96451 7.62797 6.12257 7.46979 6.28063C7.36435 6.38601 7.28524 6.49138 7.20617 6.59675C7.17979 6.64944 7.12706 6.70213 7.07434 6.78116C6.94255 6.91287 6.8371 7.07093 6.70527 7.22895C6.67892 7.2553 6.67892 7.2553 6.67892 7.2553C6.52075 7.4397 6.38892 7.59776 6.25712 7.75582C6.09895 7.96656 5.94077 8.15097 5.83533 8.33537C5.70349 8.51977 5.59804 8.73048 5.4926 8.91488C5.43987 9.02026 5.38715 9.09929 5.33442 9.20466C5.25535 9.38906 5.1499 9.57346 5.04445 9.73152C4.88628 9.99496 4.70172 10.311 4.54355 10.6008C4.51721 10.6272 4.51721 10.6272 4.51721 10.6272C4.4381 10.7589 4.35903 10.8906 4.27992 11.0223C4.2272 11.154 4.17447 11.2857 4.09541 11.4701C3.98996 11.7072 3.91085 11.9443 3.8054 12.1814C3.72633 12.3921 3.72633 12.3921 3.72633 12.3921C3.72633 12.4185 3.72633 12.4185 3.72633 12.4185C3.64723 12.5765 3.56816 12.7873 3.48905 12.998C3.3836 13.2351 3.27815 13.4458 3.19908 13.6302C3.04091 14.0254 2.88274 14.4468 2.7509 14.921C2.67184 15.1581 2.61911 15.3688 2.54001 15.6059C2.51366 15.7639 2.48728 15.922 2.43456 16.0801C2.43456 16.1591 2.40821 16.2118 2.40821 16.2645C2.35549 16.4752 2.32911 16.6596 2.27638 16.844C2.19731 17.0811 2.14459 17.2918 2.06548 17.4762C2.03914 17.6079 1.98641 17.766 1.93369 17.8977C1.88096 18.0031 1.85458 18.1348 1.82824 18.2402C1.74913 18.4509 1.67006 18.688 1.59096 18.9777C1.53823 19.2148 1.45917 19.4519 1.40644 19.7417C1.32733 20.0051 1.32733 20.2949 1.30099 20.5583C1.30099 20.5583 1.30099 20.5583 1.27461 20.5846C1.16916 20.6373 1.09009 20.7427 1.06371 20.8744C1.06371 20.9008 1.06371 20.9008 1.06371 20.9008C1.06371 20.9271 1.03737 20.9798 1.06371 21.0325C1.06371 21.1115 1.09009 21.2169 1.14282 21.2696C1.16916 21.3486 1.22188 21.4012 1.27461 21.4276C1.35372 21.5066 1.45917 21.5593 1.53823 21.612C1.56462 21.6383 1.56462 21.6383 1.56462 21.6383C1.77551 21.7701 1.96003 21.8491 2.14459 21.9281C2.43456 22.0598 2.72456 22.1652 3.01453 22.2706C3.1727 22.3233 3.33088 22.3759 3.48905 22.455C3.51543 22.455 3.54178 22.455 3.56816 22.4813C3.91085 22.613 3.91085 22.613 3.91085 22.613C3.93723 22.613 3.93723 22.613 3.93723 22.613C4.17447 22.7184 4.4381 22.8237 4.7281 22.9291C5.20263 23.0872 5.59804 23.2189 5.96712 23.3506C6.07257 23.4033 6.07257 23.4033 6.07257 23.4033C6.09895 23.4033 6.09895 23.4033 6.09895 23.4033C6.25712 23.456 6.4153 23.5087 6.57347 23.5614C6.75799 23.614 6.96889 23.6667 7.15345 23.7194C7.23251 23.7458 7.23251 23.7458 7.23251 23.7458C7.46979 23.7984 7.46979 23.7984 7.46979 23.7984C7.78614 23.8775 8.15522 23.9565 8.49791 24.0619C8.70881 24.1409 8.91971 24.1936 9.10427 24.2462C9.26244 24.2726 9.42061 24.3253 9.60513 24.3516C9.76331 24.4043 9.76331 24.4043 9.76331 24.4043C9.84241 24.4043 9.84241 24.4043 9.84241 24.4043C10.0269 24.457 10.2115 24.4833 10.3697 24.536C10.5806 24.5887 10.8178 24.6677 11.0287 24.7204C11.2923 24.7731 11.5296 24.8258 11.7668 24.8785C11.8196 24.8785 11.8196 24.8785 11.8196 24.8785C11.9777 24.9048 12.1096 24.9312 12.2678 24.9839C12.6896 25.0629 13.1114 25.1683 13.5595 25.1946C13.744 25.2209 13.9549 25.2473 14.1395 25.2473C14.1658 25.2473 14.1658 25.2473 14.1658 25.2473C14.1658 25.2736 14.1658 25.2736 14.1658 25.2736C14.2976 25.2736 14.4295 25.2736 14.5876 25.3C14.7194 25.3 14.8513 25.3263 15.0094 25.3527C15.2731 25.379 15.5367 25.4317 15.8003 25.4317C15.9321 25.458 16.0376 25.458 16.1694 25.458C16.2485 25.458 16.3276 25.458 16.4066 25.458C16.4594 25.458 16.4594 25.458 16.4594 25.458C16.4857 25.458 16.4857 25.458 16.4857 25.458C16.6703 25.4844 16.8284 25.4844 16.9866 25.4844C17.013 25.4844 17.013 25.4844 17.013 25.4844C17.0657 25.4844 17.1184 25.4844 17.1712 25.4844C17.1975 25.4844 17.1975 25.4844 17.1975 25.4844C17.2766 25.4844 17.2766 25.4844 17.2766 25.4844C17.4348 25.4844 17.5666 25.458 17.6457 25.4317C17.7775 25.379 17.8566 25.3263 17.9357 25.2473C18.0148 25.1683 18.0675 25.0629 18.0938 24.9575C18.1202 24.8785 18.1466 24.7994 18.1729 24.7204C18.1729 24.5887 18.1993 24.4833 18.2257 24.3516C18.2257 24.3253 18.2257 24.3253 18.2257 24.3253C18.2257 24.2726 18.2257 24.2726 18.2257 24.2726C18.252 24.2199 18.252 24.1936 18.252 24.1672C18.3047 23.9565 18.3311 23.7458 18.3575 23.5614C18.3838 23.4823 18.3838 23.4033 18.4102 23.3243C18.4102 23.2979 18.4102 23.2979 18.4102 23.2979C18.4366 23.1662 18.4366 23.0608 18.4629 22.9555C18.4629 22.8764 18.4893 22.7974 18.4893 22.7184C18.4893 22.6657 18.4893 22.6657 18.4893 22.6657C18.5156 22.5867 18.5156 22.4813 18.542 22.3759C18.5683 22.2179 18.5947 22.0598 18.6211 21.8754C18.6211 21.8491 18.6211 21.8491 18.6211 21.8491C18.6475 21.612 18.7002 21.3749 18.7265 21.1379C18.7792 20.611 18.832 20.1632 18.8584 19.7417C18.8847 19.3465 18.9111 18.9777 18.9111 18.6353C18.9111 18.5826 18.9111 18.5826 18.9111 18.5826C18.9374 18.4772 18.9374 18.4772 18.9374 18.4772C18.9374 18.1611 18.9638 17.8187 18.9902 17.5026C19.0165 17.2391 19.0692 16.9494 19.0956 16.686C19.1219 16.5542 19.1219 16.5542 19.1219 16.5542C19.201 16.5806 19.201 16.5806 19.201 16.5806C19.2538 16.6069 19.2538 16.6069 19.2538 16.6069C19.3065 16.6333 19.3856 16.6596 19.4647 16.686C19.5174 16.7123 19.5174 16.7123 19.5174 16.7123C19.6228 16.765 19.7019 16.7913 19.8074 16.844C20.0446 16.9757 20.2819 17.1074 20.5192 17.2391C20.6246 17.2918 20.7564 17.3708 20.8882 17.4235C21.1255 17.5552 21.3891 17.687 21.6264 17.7923C21.7318 17.845 21.8636 17.8977 21.9691 17.9504C22.1536 18.0294 22.3382 18.1085 22.5227 18.2138C22.7072 18.2929 22.8654 18.3982 23.0236 18.5036C23.0763 18.5299 23.0763 18.5299 23.0763 18.5299C23.2345 18.6353 23.2345 18.6353 23.2345 18.6353C23.5245 18.7933 23.8145 18.9777 24.1308 19.1358C24.289 19.2412 24.4735 19.3465 24.6844 19.4256C24.8426 19.5046 24.8426 19.5046 24.8426 19.5046C24.9744 19.5573 25.1062 19.61 25.238 19.6627C25.5808 19.8207 25.9762 20.0314 26.3452 20.2422C26.5825 20.3739 26.7934 20.5056 27.0043 20.6373C27.1361 20.7427 27.2943 20.8217 27.4261 20.9271C27.7952 21.1379 28.1643 21.3222 28.4806 21.4803C28.5861 21.533 28.5861 21.533 28.5861 21.533C28.9288 21.691 29.2715 21.8754 29.6142 22.0598C29.8778 22.1915 30.1151 22.3496 30.3523 22.4813C30.4578 22.5604 30.5896 22.6394 30.6951 22.7184C30.985 22.9028 31.3014 23.0608 31.6177 23.2189C31.8286 23.3243 31.8286 23.3243 31.8286 23.3243C31.9868 23.4033 32.145 23.4823 32.3295 23.5877C32.5404 23.6667 32.7513 23.7721 32.9358 23.9038C33.0413 23.9302 33.1204 23.9828 33.1995 24.0355C33.3049 24.0882 33.384 24.1409 33.4895 24.1672C33.674 24.2989 33.9113 24.4043 34.0695 24.4833C34.4385 24.6677 34.8076 24.8521 35.1767 25.0365C35.3876 25.1419 35.5721 25.2473 35.7303 25.3263C35.8094 25.379 35.9148 25.4317 35.9939 25.4844C36.0993 25.537 36.1784 25.5897 36.2575 25.6424C36.5739 25.8268 36.9166 25.9849 37.2329 26.1429C37.3647 26.222 37.3647 26.2219 37.3647 26.2219C37.5493 26.301 37.7075 26.38 37.8656 26.4854C37.9447 26.5117 37.9447 26.5117 37.9447 26.5117C38.1029 26.5908 38.2611 26.6961 38.4192 26.8015C38.4456 26.8278 38.4456 26.8278 38.4456 26.8278C38.6037 26.9068 38.7619 27.0122 38.8937 27.1176C39.0783 27.2493 39.2892 27.381 39.4737 27.4864C39.8164 27.6971 40.1591 27.8552 40.5018 28.0396C40.5546 28.0659 40.5546 28.0659 40.5546 28.0659C40.8973 28.1977 41.24 28.382 41.6091 28.5928C41.7672 28.6981 41.9254 28.7772 42.1363 28.9089C42.2154 28.9616 42.2945 29.0143 42.3736 29.0669C42.479 29.1196 42.5581 29.1987 42.6636 29.2513C43.059 29.4884 43.4281 29.6728 43.7708 29.8309C43.8762 29.8572 43.9817 29.9099 44.0871 29.9626C44.3244 30.0416 44.5616 30.147 44.7989 30.2524C44.9307 30.3314 45.0889 30.4104 45.2735 30.5158C45.2735 30.5685 45.2471 30.5948 45.2471 30.6475C45.2471 30.7529 45.2471 30.8582 45.2471 30.9636C45.2735 31.148 45.3262 31.306 45.4052 31.4378C45.4316 31.5168 45.458 31.5695 45.5107 31.6222C45.5371 31.6749 45.5898 31.7275 45.6425 31.7539C45.6953 31.8066 45.748 31.8329 45.8007 31.8856C45.827 31.8856 45.827 31.8856 45.827 31.8856C45.8798 31.9383 45.9325 31.9646 46.0116 31.9646C45.9325 32.1754 45.9062 32.3861 45.9062 32.5441C45.8798 32.7022 45.9062 32.8339 45.9062 32.992C45.9062 33.0447 45.9062 33.0974 45.9062 33.15C45.9062 33.2291 45.9062 33.2818 45.9325 33.3608C45.8798 33.7823 45.8534 34.2037 45.8534 34.6252C45.8534 35.0994 45.8534 35.5209 45.8007 35.8897C45.7743 36.2585 45.7216 36.6009 45.6689 36.996C45.6161 37.3648 45.5898 37.7863 45.5634 38.2605C45.5371 38.9717 45.5107 39.762 45.5107 40.7367C45.5107 41.0001 45.5107 41.2108 45.5107 41.4216C45.4844 41.6323 45.4844 41.8694 45.458 42.1065C45.4052 42.5016 45.3789 42.9495 45.3525 43.4236C45.3525 43.6607 45.3525 43.8978 45.3525 44.1612C45.3525 44.3193 45.3525 44.5037 45.3525 44.6881C45.3262 44.8988 45.3262 45.1096 45.3262 45.3203C45.3262 45.531 45.3262 45.7154 45.3262 45.9262C45.2998 46.3213 45.2998 46.6901 45.2998 47.0852C45.2998 47.1906 45.2998 47.1906 45.2998 47.1906C45.2998 47.454 45.2735 47.7175 45.2735 47.9809C45.2735 48.1126 45.2735 48.2706 45.2735 48.4024C45.2735 48.5341 45.2471 48.6658 45.2471 48.8239C45.2471 49.0609 45.2471 49.3244 45.2207 49.5878C45.2207 49.6931 45.2207 49.7985 45.2207 49.8776C45.2207 49.9829 45.2207 50.0883 45.2207 50.1937C45.2207 50.3254 45.2207 50.4834 45.1943 50.6152C45.1943 50.6679 45.1943 50.7469 45.1943 50.7996C45.168 51.221 45.1416 51.5635 45.1153 51.8796C45.0889 52.143 45.0626 52.4328 45.0362 52.6962C45.0098 53.0387 44.9571 53.4602 44.9044 53.8816C44.8517 54.2768 44.7989 54.6983 44.7462 55.1197C44.7198 55.4622 44.6671 55.8046 44.6144 56.1208C44.5353 56.6212 44.4826 57.1481 44.4299 57.675C44.4035 57.912 44.4035 58.1228 44.3771 58.3599C44.3507 58.7287 44.3244 59.0975 44.298 59.4662C44.2453 59.756 44.219 60.0458 44.1926 60.3356C44.1399 60.6517 44.1399 60.6517 44.1399 60.6517C44.0871 61.0468 44.0608 61.4683 44.0344 61.8898C44.0081 62.0215 44.0081 62.2059 43.9553 62.3903C43.929 62.601 43.9026 62.8117 43.8499 63.0225C43.7708 63.4176 43.7181 63.8128 43.639 64.2342C43.5863 64.524 43.5599 64.8138 43.5335 65.0772C43.5072 65.2089 43.5072 65.3406 43.4808 65.4723C43.4544 65.6304 43.4544 65.6304 43.4544 65.6304C43.4281 65.7621 43.4281 65.8938 43.4017 66.0519C43.4017 66.1046 43.4017 66.1046 43.4017 66.1046C43.3754 66.2626 43.349 66.447 43.3226 66.6051C43.2963 66.8422 43.2699 67.0529 43.2435 67.29C43.2172 67.6061 43.2172 67.6061 43.2172 67.6061C43.1908 67.8168 43.1908 67.8168 43.1908 67.8168C43.1645 68.0802 43.1381 68.37 43.0854 68.6335C43.059 68.8442 43.059 68.8442 43.059 68.8442C43.0326 69.1339 43.0063 69.4237 42.9799 69.7135C42.9536 69.8716 42.9272 70.0296 42.9272 70.214C42.9008 70.3721 42.9008 70.5301 42.8745 70.6882C42.8745 70.7935 42.8481 70.9252 42.8481 71.0306C42.8481 71.057 42.8481 71.057 42.8481 71.0833C42.8217 71.3467 42.8217 71.5575 42.8217 71.7682C42.8217 71.7946 42.8217 71.7946 42.8217 71.7946C42.6899 71.8209 42.5581 71.8473 42.4263 71.8473C42.2945 71.8736 42.2945 71.8736 42.2945 71.8736C42.1627 71.8999 42.0309 71.9262 41.8991 71.9526C41.6354 72.0053 41.3718 72.058 41.1082 72.1107C40.8973 72.137 40.6864 72.1897 40.4755 72.216C40.37 72.216 40.2909 72.2424 40.2119 72.2687C40.1064 72.2687 40.001 72.2951 39.8691 72.3214C39.7373 72.3477 39.6055 72.3477 39.4737 72.3741C39.2101 72.4004 38.9465 72.4531 38.6828 72.5058C38.2874 72.5848 37.892 72.6639 37.4966 72.7956C37.3647 72.8219 37.2329 72.8483 37.1011 72.8746C37.0748 72.901 37.022 72.901 36.9693 72.901C36.8902 72.9273 36.7848 72.9536 36.6793 72.98C36.5211 73.0327 36.363 73.138 36.2312 73.2961C36.1521 73.4014 36.1257 73.5332 36.1257 73.7176C36.1521 73.7966 36.1784 73.8756 36.2048 73.9546C36.2048 73.981 36.2048 73.981 36.2048 73.981C36.2312 74.06 36.2575 74.139 36.2839 74.1917C36.2839 74.2444 36.2839 74.2444 36.2839 74.2444C36.2839 74.2971 36.2839 74.2971 36.2839 74.2971C36.2839 74.4025 36.2839 74.4815 36.2839 74.6132C36.2839 74.6396 36.2839 74.6396 36.2839 74.6396C36.2839 74.6132 36.2839 74.6132 36.2839 74.6132C36.2839 74.6396 36.2839 74.6396 36.2839 74.6396C36.2839 74.6659 36.2839 74.6659 36.2839 74.6659C36.2839 74.8239 36.2839 74.982 36.2839 75.1401C36.2839 75.2191 36.2839 75.2981 36.3102 75.3771C36.3102 75.4298 36.3102 75.4562 36.3102 75.4825C36.3102 75.5089 36.3102 75.5089 36.3102 75.5089C36.2575 75.6669 36.3102 75.8777 36.4421 75.983C36.4421 76.0094 36.4684 76.0094 36.4684 76.0094C36.4948 76.0357 36.5211 76.0621 36.5739 76.0884C36.6002 76.0884 36.6266 76.0884 36.6793 76.0884C36.6793 76.0884 36.6793 76.0884 36.7057 76.0884C36.732 76.1148 36.7584 76.1148 36.7848 76.1148C36.8639 76.1411 36.9166 76.1411 36.9957 76.1411C37.0748 76.1411 37.0748 76.1411 37.0748 76.1411C37.2593 76.1411 37.4438 76.1674 37.602 76.1674C37.7075 76.1674 37.8129 76.1674 37.9184 76.1411C38.1556 76.1411 38.4192 76.1148 38.6565 76.1148C38.9465 76.0884 39.2364 76.0621 39.5528 76.0621C39.6319 76.0621 39.7373 76.0621 39.8164 76.0621C39.9482 76.0621 40.0273 76.0621 40.1328 76.0621C40.3437 76.0621 40.6073 76.0621 40.8709 76.0357C41.0027 76.0357 41.1345 76.0094 41.2664 76.0094C41.53 75.983 41.82 75.9567 42.0836 75.9304C42.5581 75.904 42.9799 75.8777 43.3754 75.7986C43.7708 75.7459 44.219 75.6669 44.6408 75.6406C44.7725 75.6406 44.9044 75.6406 45.0362 75.6406C45.1416 75.6406 45.2207 75.6142 45.3262 75.6142C45.5107 75.6142 45.7216 75.5879 45.9062 75.5615C46.1434 75.5352 46.3543 75.5089 46.5652 75.4825C46.7761 75.4298 46.987 75.4035 47.2243 75.4035C47.4615 75.3771 47.6724 75.3771 47.9097 75.3508C48.0942 75.3508 48.2788 75.3508 48.4897 75.3508C48.6478 75.3245 48.8324 75.3245 49.0169 75.2981C49.2278 75.2718 49.4651 75.2718 49.7023 75.2454C49.8605 75.2454 50.0187 75.2191 50.1505 75.2191C50.3614 75.1927 50.3614 75.1927 50.3614 75.1927C50.5723 75.1927 50.8096 75.1664 51.0468 75.1401C51.2314 75.1137 51.4423 75.0874 51.6268 75.061C51.6795 75.0347 51.7322 75.0347 51.785 75.0083C51.8377 75.0083 51.8641 74.9557 51.9168 74.9293C51.9431 74.9293 51.9431 74.9293 51.9431 74.9293C52.0486 74.8503 52.1277 74.6923 52.154 74.5605C52.154 74.4815 52.154 74.4025 52.154 74.3235C52.154 74.2444 52.154 74.2444 52.154 74.2444C52.154 74.139 52.154 74.1391 52.154 74.1391C52.154 74.0864 52.154 74.0337 52.154 74.0073V73.981C52.1277 73.8229 52.1277 73.6649 52.1277 73.5068C52.1013 73.3488 52.075 73.2434 52.0486 73.0854C52.0222 72.8746 51.9431 72.7166 51.8641 72.5585C51.785 72.4268 51.6795 72.2687 51.6004 72.137C51.5213 72.0053 51.3895 71.8999 51.2577 71.8209C51.1786 71.7682 51.0995 71.7155 50.9941 71.6629C50.8886 71.6102 50.7832 71.5838 50.6777 71.5575C50.5196 71.5048 50.3878 71.5048 50.2823 71.4785C50.1769 71.4785 50.0978 71.4521 49.966 71.4521C49.9132 71.4521 49.8341 71.4521 49.7551 71.4785C49.3596 71.4785 48.9642 71.4785 48.6215 71.5048C48.4369 71.5048 48.2524 71.5048 48.0942 71.5311C47.9097 71.5311 47.9097 71.5311 47.9097 71.5311C47.7251 71.5575 47.5406 71.5575 47.3033 71.5575C47.1188 71.5575 46.9343 71.5575 46.7234 71.5575C46.6443 71.5311 46.5652 71.5311 46.4861 71.5311C46.3543 71.5311 46.2225 71.5048 46.0643 71.5048C46.0643 71.5048 46.0379 71.5048 46.0116 71.5048C45.748 71.5048 45.4844 71.5575 45.2207 71.6102C45.0889 71.6365 44.9307 71.6629 44.7989 71.6629C44.7725 71.6629 44.7725 71.6629 44.7725 71.6629C44.7725 71.6102 44.7725 71.5838 44.7725 71.5311C44.8253 71.0306 44.878 70.5564 44.9044 70.056C44.9044 70.0033 44.9044 70.0033 44.9044 70.0033C44.9571 69.5291 45.0362 69.0549 45.1416 68.4491C45.2207 68.1593 45.2471 67.8959 45.2998 67.6325C45.2998 67.5007 45.3262 67.369 45.3525 67.211C45.3525 67.0792 45.3789 66.9475 45.4052 66.7895C45.458 66.3153 45.5371 65.7094 45.6161 65.0772C45.6953 64.4713 45.7216 63.8918 45.8007 63.2332C45.8534 62.4956 45.9062 61.8898 45.9325 61.2575C45.9325 61.1258 45.9325 61.0204 45.9589 60.9151C45.9589 60.678 45.9852 60.4409 45.9852 60.2038C46.0116 59.9931 46.0116 59.756 46.0379 59.5453C46.0643 59.3872 46.0643 59.3872 46.0643 59.3872C46.1171 58.9921 46.1434 58.5706 46.1961 58.1754C46.3016 57.3852 46.3807 56.5686 46.4861 55.7519C46.5125 55.2778 46.5125 55.2778 46.5125 55.2778C46.5652 54.7773 46.6179 54.2768 46.6706 53.7762C46.697 53.5655 46.7234 53.3548 46.7234 53.144C46.7234 53.0387 46.7234 52.9596 46.7497 52.8806C46.7497 52.6699 46.7761 52.4855 46.7761 52.3011C46.8025 52.1694 46.8025 52.0377 46.8025 51.9323C46.8552 51.3791 46.8815 50.8259 46.9079 50.299C46.9343 49.8776 46.9606 49.4561 46.987 49.0083C46.987 48.7712 47.0134 48.5077 47.0397 48.2706C47.0661 48.0599 47.0661 47.8492 47.0924 47.6385C47.1188 47.0589 47.1715 46.5584 47.2243 46.1106C47.3297 44.9779 47.4352 43.7924 47.4352 42.5807C47.4352 42.2646 47.4352 41.9221 47.4352 41.5797C47.4352 41.2899 47.4352 41.0264 47.4615 40.7631C47.4615 40.1308 47.4615 39.525 47.4352 38.9191C47.4352 38.682 47.4352 38.682 47.4352 38.682C47.4088 38.4712 47.4088 38.2341 47.4088 38.0234C47.4088 37.7073 47.3824 37.4175 47.3824 37.1541C47.3824 36.9697 47.3824 36.8116 47.3824 36.6536C47.3561 36.2321 47.3297 35.7579 47.3297 35.3365C47.3297 34.915 47.3297 34.4672 47.3297 34.0457C47.3297 33.8876 47.3561 33.7559 47.3561 33.5979C47.3561 33.2818 47.3561 33.0183 47.3561 32.7812C47.3824 32.5441 47.3824 32.2807 47.4088 32.0173C47.4879 31.991 47.5406 31.9646 47.6197 31.9383C47.7251 31.8856 47.857 31.8329 47.9624 31.7539C48.0679 31.7012 48.1469 31.6222 48.1997 31.5431C48.2788 31.4904 48.3315 31.4114 48.4106 31.306C48.4633 31.1743 48.4897 31.0427 48.516 30.8846C48.516 30.7529 48.516 30.6475 48.516 30.5421C48.4897 30.3314 48.4369 30.0943 48.3315 29.8835C48.3051 29.8572 48.3051 29.8045 48.2788 29.7782C48.226 29.6992 48.1733 29.6202 48.0942 29.5675C48.0942 29.5411 48.0942 29.5411 48.0942 29.5411C48.0415 29.4884 47.9624 29.4358 47.8833 29.3831C47.857 29.3567 47.8042 29.3304 47.7515 29.304C47.5933 29.225 47.4088 29.225 47.2506 29.1987C47.1452 29.1987 47.0397 29.1987 46.9606 29.1987C46.8815 29.1987 46.8025 29.1987 46.7234 29.1987C46.4861 29.1196 46.2752 29.0143 46.0643 28.9089C45.8534 28.7772 45.6161 28.6455 45.4052 28.4874C45.1153 28.3293 44.8517 28.1713 44.6144 28.0133C44.3507 27.8815 44.1135 27.7235 43.8762 27.6181C43.2963 27.302 42.7954 27.0386 42.2681 26.7488C41.9781 26.5908 41.6618 26.4327 41.3454 26.2746C41.1609 26.1693 40.95 26.0639 40.7391 25.9585C40.7127 25.9322 40.7127 25.9322 40.7127 25.9322C40.4491 25.8005 40.1855 25.6687 39.9219 25.5107C39.8428 25.4844 39.7637 25.4317 39.6846 25.379C39.6055 25.3263 39.6055 25.3263 39.6055 25.3263C39.4737 25.2473 39.3683 25.1946 39.2364 25.1156C39.2101 25.0892 39.2101 25.0892 39.2101 25.0892C38.8146 24.8785 38.3928 24.6941 37.9974 24.536C37.8656 24.457 37.7338 24.4043 37.602 24.3516C37.1275 24.1145 36.6793 23.8511 36.2575 23.5614C36.0993 23.456 36.0993 23.456 36.0993 23.456C35.8621 23.2979 35.5721 23.1662 35.3348 23.0345C35.0976 22.9291 34.8339 22.8237 34.623 22.7184C34.5176 22.692 34.5176 22.692 34.5176 22.692C34.2803 22.5604 34.0167 22.455 33.7531 22.2969C33.6213 22.2442 33.5158 22.1652 33.4104 22.1125C33.2522 22.0335 33.1204 21.9281 32.9622 21.8491C32.5668 21.6383 32.145 21.4539 31.7496 21.2696C31.6177 21.1905 31.4596 21.1379 31.3014 21.0588C30.985 20.9008 30.7214 20.769 30.5105 20.6637C30.2469 20.532 30.0096 20.4002 29.746 20.2685C29.5878 20.1895 29.4297 20.1368 29.2978 20.0578C28.9024 19.8734 28.5333 19.689 28.1643 19.4783C27.927 19.3729 27.6897 19.2412 27.4788 19.1095C27.3734 19.0568 27.3734 19.0568 27.3734 19.0568C27.1361 18.9251 26.8461 18.7933 26.5561 18.6353C26.3716 18.5562 26.1871 18.4772 26.0026 18.4246C25.9234 18.3719 25.818 18.3455 25.7389 18.2929C25.5016 18.2138 25.2117 18.0821 24.9217 17.9241C24.6053 17.7923 24.289 17.6343 23.999 17.4499C23.7881 17.3445 23.5508 17.2128 23.3136 17.1074C23.1027 17.0021 22.8391 16.8704 22.6282 16.765C22.4963 16.7123 22.4963 16.7123 22.4963 16.7123C22.2591 16.6069 21.9955 16.4752 21.6791 16.3171C21.5737 16.2645 21.4682 16.2118 21.3364 16.1591C21.1519 16.0537 20.941 15.9483 20.7301 15.843C20.4664 15.7113 20.1501 15.6059 19.8865 15.4742C19.7283 15.4215 19.7283 15.4215 19.7283 15.4215C19.6228 15.3688 19.5174 15.3161 19.4119 15.2898C19.3065 15.2371 19.3065 15.2371 19.3065 15.2371C19.3065 15.1054 19.3328 15 19.3328 14.8683C19.3856 14.4205 19.4119 13.999 19.4119 13.5775C19.4383 13.156 19.4383 12.7082 19.4383 12.2604C19.3856 11.3911 19.3328 10.4954 19.2274 9.62615C19.1747 9.15197 19.0692 8.67779 18.9638 8.23C18.8584 7.75582 18.7002 7.33433 18.5156 6.93921C18.4366 6.78116 18.3311 6.64944 18.1993 6.46504C18.0411 6.25429 17.8829 6.06989 17.7248 5.91183C17.4084 5.59575 17.0921 5.33231 16.7494 5.06888C16.6966 5.04254 16.6966 5.04254 16.6966 5.04254C16.6966 5.01619 16.6966 5.01619 16.6966 5.01619C16.7494 4.77911 16.7494 4.77911 16.7494 4.77911C16.8284 4.25228 16.9075 3.69907 17.1184 3.1722C17.1712 3.01414 17.2239 2.85612 17.3293 2.67172C17.3557 2.59269 17.4084 2.48732 17.4348 2.3556C17.4611 2.30291 17.4611 2.25023 17.4611 2.19754C17.4611 2.1712 17.4611 2.1712 17.4611 2.1712C17.4611 2.06583 17.4348 1.96045 17.3821 1.88142C17.3557 1.80239 17.303 1.74971 17.2239 1.69702C17.1712 1.67068 17.0921 1.59165 17.0393 1.56534C16.8812 1.48631 16.723 1.40728 16.5121 1.3546C16.433 1.32825 16.3539 1.30191 16.2748 1.27557C16.2485 1.27557 16.2485 1.27557 16.2485 1.27557C16.1957 1.24922 16.1167 1.22288 16.0376 1.19654C15.9848 1.17019 15.9058 1.14385 15.8267 1.11751C15.7476 1.09116 15.6685 1.06482 15.5894 1.03848C15.4576 0.98579 15.3258 0.98579 15.2203 0.959447C15.1412 0.959447 15.1412 0.959447 15.1412 0.959447C15.0885 0.959447 15.0885 0.959447 15.0885 0.959447C14.904 0.90676 14.6931 0.880417 14.4822 0.880417C14.4822 0.880417 14.4558 0.880417 14.4295 0.880417Z" fill="#878794"/>
<path fill-rule="evenodd" clip-rule="evenodd" d="M1.99463 21.189C1.99463 21.2947 2.07366 21.3476 2.15273 21.3741C2.4162 21.3741 2.67971 21.3741 2.94322 21.4005C3.18034 21.427 3.39113 21.5063 3.60191 21.5592C3.83908 21.612 4.10255 21.6385 4.33972 21.6914C4.57684 21.7443 4.81397 21.7971 5.05114 21.8765C5.26192 21.9294 5.49905 21.9822 5.73622 22.0351C5.97334 22.088 6.21051 22.1673 6.44764 22.2202C6.68476 22.2731 6.92193 22.326 7.13271 22.3524C7.39619 22.4053 7.63335 22.4582 7.87048 22.511C8.00223 22.5375 8.13399 22.5639 8.2657 22.5904C8.37112 22.6168 8.47653 22.6433 8.5819 22.6697C9.08254 22.8019 9.58317 22.9077 10.0575 23.0399C10.5318 23.1457 11.0324 23.2514 11.5067 23.3572C11.7438 23.4101 11.9546 23.4629 12.1917 23.5423C12.4289 23.6216 12.6924 23.6745 12.9295 23.7274C13.1667 23.8067 13.4038 23.8596 13.641 23.9389C13.8781 24.0182 14.1153 24.0711 14.3524 24.1504C14.4578 24.1769 14.5632 24.2033 14.6422 24.2298C14.7476 24.2826 14.853 24.3091 14.9584 24.3355C15.1692 24.4148 15.38 24.4941 15.5908 24.547C15.7752 24.5999 15.986 24.6264 16.1968 24.6792C16.2759 24.7057 16.3813 24.7321 16.4866 24.7586C16.513 24.7586 16.5657 24.7586 16.6184 24.785C16.6711 24.785 16.6975 24.8115 16.7502 24.8115C16.7765 24.8115 16.8028 24.8115 16.8292 24.8115C16.8819 24.8115 16.9346 24.8115 16.9873 24.785C17.04 24.7321 17.0927 24.6792 17.119 24.5999C17.119 24.5206 17.119 24.4413 17.0663 24.3884C17.0663 24.362 17.04 24.3355 17.04 24.3355C16.9873 24.2826 16.9609 24.2562 16.9082 24.2562C16.8028 24.2033 16.6975 24.2033 16.6184 24.1769C16.513 24.1504 16.3813 24.124 16.2759 24.0975C16.0651 24.0447 15.8279 24.0182 15.6171 23.9389C15.38 23.886 15.1429 23.8067 14.932 23.7274C14.6949 23.648 14.4578 23.5951 14.2206 23.5423C13.9835 23.4629 13.7463 23.3836 13.5092 23.3308C13.2721 23.2514 13.0349 23.1985 12.7978 23.1457C12.5606 23.0928 12.3235 23.0134 12.0864 22.9606C11.8492 22.8812 11.6121 22.8284 11.3749 22.8019C11.1114 22.749 10.8743 22.6961 10.6371 22.6433C10.3737 22.5904 10.1365 22.5375 9.87303 22.4846C9.39873 22.3788 8.92444 22.2731 8.4238 22.1409C8.18668 22.088 7.97589 22.0616 7.73872 22.0086C7.47525 21.9822 7.23813 21.9294 7.00096 21.8765C6.52667 21.7971 6.02603 21.6914 5.55177 21.5856C5.31461 21.5327 5.10382 21.4798 4.89304 21.427C4.65587 21.3741 4.41875 21.3212 4.18162 21.2683C3.91811 21.2419 3.68098 21.189 3.44381 21.1361C3.3121 21.1096 3.18034 21.0832 3.07493 21.0568C2.96956 21.0568 2.8378 21.0568 2.73239 21.0568C2.54795 21.0303 2.33717 21.0303 2.15273 21.0303C2.07366 21.0303 1.99463 21.1096 1.99463 21.189Z" fill="white"/>
<path fill-rule="evenodd" clip-rule="evenodd" d="M46.4585 30.5788C46.4585 30.9792 46.7727 31.2728 47.1656 31.2728C47.5322 31.2728 47.8465 30.9525 47.8465 30.5788C47.8465 30.1784 47.5322 29.8848 47.1394 29.8848C46.7727 29.8848 46.4585 30.2051 46.4585 30.5788Z" fill="white"/>
</g>
<defs>
<clipPath id="clip0">
<rect width="51.3081" height="75.8135" fill="white" transform="translate(0.845947 0.593262)"/>
</clipPath>
</defs>
</svg>
