<svg width="14" height="14" viewBox="0 0 14 14" fill="none" xmlns="http://www.w3.org/2000/svg">
<path d="M1.27273 0C0.569545 0 0 0.569545 0 1.27273V12.7273C0 13.4305 0.569545 14 1.27273 14H12.7273C13.4305 14 14 13.4305 14 12.7273V1.27273C14 0.569545 13.4305 0 12.7273 0H1.27273ZM1.27273 1.27273H12.7273V3.81818H1.27273V1.27273ZM4.41353 6.55877C5.41708 6.55877 6.08771 7.0964 6.08771 7.88867C6.08771 8.38567 5.79563 8.82724 5.00018 9.53551L4.26065 10.2154V10.275H6.14986V11.1637H2.74183V10.4031L4.15874 9.06942C4.81737 8.46042 4.98651 8.23419 4.98651 7.96946C4.98651 7.63982 4.74348 7.41886 4.37376 7.41886C3.98876 7.41886 3.72124 7.68052 3.72124 8.05025V8.07138H2.67596V8.05273C2.67596 7.16119 3.37308 6.55877 4.41353 6.55877ZM9.50568 6.55877C10.41 6.55877 11.1212 7.08732 11.2395 7.84268H10.1246C10.0534 7.59705 9.80801 7.43874 9.5032 7.43874C8.9502 7.43874 8.59865 8.00967 8.63938 8.83949H8.69904C8.89759 8.42013 9.30086 8.18697 9.82014 8.18697C10.6684 8.18697 11.2967 8.81829 11.2967 9.66974C11.2961 10.6141 10.5532 11.2818 9.5032 11.2818C8.8662 11.2818 8.34369 11.0275 8.02042 10.5547C7.71878 10.157 7.56055 9.59756 7.56055 8.93892C7.56055 7.46892 8.30295 6.55877 9.50568 6.55877ZM9.49325 9.00479C9.09234 9.00479 8.78853 9.30572 8.78853 9.69709C8.78853 10.0948 9.09553 10.4055 9.49325 10.4055C9.89098 10.4055 10.2017 10.0985 10.2017 9.7033C10.2017 9.30621 9.89734 9.00479 9.49325 9.00479Z" fill="#9C9CA8"/>
</svg>
