<svg width="15" height="16" viewBox="0 0 11 12" fill="none" xmlns="http://www.w3.org/2000/svg">
<path d="M5.49994 0.940018C2.70799 0.940018 0.439941 3.20806 0.439941 6.00002C0.439941 8.79197 2.70799 11.06 5.49994 11.06C8.29189 11.06 10.5599 8.79197 10.5599 6.00002C10.5599 3.20806 8.29189 0.940018 5.49994 0.940018ZM5.49994 1.38002C8.0541 1.38002 10.1199 3.44586 10.1199 6.00002C10.1199 8.55418 8.0541 10.62 5.49994 10.62C2.94578 10.62 0.879941 8.55418 0.879941 6.00002C0.879941 3.44586 2.94578 1.38002 5.49994 1.38002ZM5.4965 2.03701C5.43823 2.03792 5.3827 2.06191 5.3421 2.10372C5.3015 2.14553 5.27914 2.20174 5.27994 2.26002V5.37826C5.15134 5.42372 5.03999 5.50792 4.96119 5.61926C4.8824 5.7306 4.84004 5.86362 4.83994 6.00002C4.84014 6.09834 4.86231 6.19538 4.90482 6.28404L3.58439 7.60447C3.56328 7.62474 3.54642 7.64902 3.53481 7.67589C3.5232 7.70276 3.51706 7.73167 3.51676 7.76094C3.51647 7.79021 3.52201 7.81925 3.53307 7.84634C3.54414 7.87344 3.5605 7.89806 3.58119 7.91876C3.60189 7.93946 3.62651 7.95582 3.65361 7.96688C3.68071 7.97794 3.70974 7.98349 3.73901 7.98319C3.76828 7.98289 3.7972 7.97676 3.82407 7.96515C3.85093 7.95353 3.87522 7.93668 3.89549 7.91556L5.21592 6.59513C5.30458 6.63765 5.40161 6.65981 5.49994 6.66002C5.67498 6.66002 5.84286 6.59048 5.96663 6.46671C6.0904 6.34293 6.15994 6.17506 6.15994 6.00002C6.15975 5.86369 6.11735 5.73077 6.03856 5.61951C5.95977 5.50826 5.84847 5.42413 5.71994 5.37869V2.26002C5.72034 2.23058 5.71484 2.20137 5.70374 2.1741C5.69265 2.14683 5.6762 2.12207 5.65537 2.10128C5.63453 2.08048 5.60974 2.06408 5.58245 2.05304C5.55516 2.042 5.52593 2.03655 5.4965 2.03701Z" fill="#B2B2BD"/>
</svg>
