<svg width="46" height="51" viewBox="0 0 46 51" fill="none" xmlns="http://www.w3.org/2000/svg">
<path d="M40.4609 6C41.8672 6 43.0391 6.50781 43.9766 7.52344C44.9922 8.46094 45.5 9.63281 45.5 11.0391V45.9609C45.5 47.3672 44.9922 48.5781 43.9766 49.5938C43.0391 50.5312 41.8672 51 40.4609 51H5.53906C4.13281 51 2.92188 50.5312 1.90625 49.5938C0.96875 48.5781 0.5 47.3672 0.5 45.9609V11.0391C0.5 9.63281 0.96875 8.46094 1.90625 7.52344C2.92188 6.50781 4.13281 6 5.53906 6H8V0.960938H13.0391V6H32.9609V0.960938H38V6H40.4609ZM40.4609 45.9609V18.5391H5.53906V45.9609H40.4609ZM10.4609 23.4609H23V36H10.4609V23.4609Z" fill="#ABABAB"/>
</svg>
