<svg width="21" height="20" viewBox="0 0 21 20" fill="none" xmlns="http://www.w3.org/2000/svg">
<rect width="20" height="20" rx="10" transform="matrix(-1 0 0 1 20.5 0)" fill="#1EE8B7"/>
<path d="M8.44101 6.80005C8.54716 6.80008 8.65089 6.83176 8.73893 6.89105C8.82698 6.95034 8.89535 7.03454 8.93529 7.13289C8.97523 7.23123 8.98494 7.33926 8.96317 7.44315C8.94139 7.54704 8.88913 7.64208 8.81306 7.71611L7.05598 9.4732H15.159C15.2297 9.4722 15.2999 9.48526 15.3655 9.51163C15.4311 9.538 15.4909 9.57714 15.5412 9.62679C15.5916 9.67643 15.6316 9.73559 15.6588 9.80083C15.6861 9.86607 15.7002 9.93607 15.7002 10.0068C15.7002 10.0775 15.6861 10.1475 15.6588 10.2127C15.6316 10.278 15.5916 10.3371 15.5412 10.3868C15.4909 10.4364 15.4311 10.4756 15.3655 10.5019C15.2999 10.5283 15.2297 10.5414 15.159 10.5404H7.05598L8.81306 12.2975C8.86427 12.3466 8.90516 12.4055 8.93333 12.4707C8.96149 12.5359 8.97637 12.606 8.97709 12.677C8.97782 12.748 8.96437 12.8184 8.93753 12.8841C8.9107 12.9498 8.87102 13.0095 8.82082 13.0597C8.77062 13.1099 8.71091 13.1496 8.64518 13.1765C8.57946 13.2033 8.50904 13.2167 8.43805 13.216C8.36706 13.2153 8.29693 13.2004 8.23176 13.1723C8.1666 13.1441 8.1077 13.1032 8.05854 13.052L5.43749 10.4309C5.37233 10.3813 5.31948 10.3173 5.28303 10.2439C5.24658 10.1705 5.22752 10.0898 5.22731 10.0078C5.22711 9.92589 5.24578 9.84502 5.28187 9.77146C5.31795 9.69791 5.37049 9.63365 5.43541 9.58367L5.43854 9.58158L8.05854 6.96158C8.10826 6.91047 8.16773 6.86984 8.23342 6.84209C8.29911 6.81435 8.3697 6.80005 8.44101 6.80005Z" fill="white"/>
</svg>
