<svg width="13" height="13" viewBox="0 0 13 13" fill="none" xmlns="http://www.w3.org/2000/svg">
<path d="M6.49977 0.519958C3.20246 0.519958 0.519775 3.20264 0.519775 6.49996C0.519775 9.79728 3.20246 12.48 6.49977 12.48C9.7971 12.48 12.4798 9.79728 12.4798 6.49996C12.4798 5.30474 12.1261 4.19102 11.5195 3.25554L11.2874 3.48761L11.1351 3.63996H10.9198H10.4627L9.75231 4.35039C10.1608 4.96685 10.3998 5.70514 10.3998 6.49996C10.3998 8.6538 8.65361 10.4 6.49977 10.4C4.34594 10.4 2.59978 8.6538 2.59978 6.49996C2.59978 4.34612 4.34594 2.59996 6.49977 2.59996C7.2946 2.59996 8.03289 2.83896 8.64935 3.24742L9.35978 2.53699V2.07996V1.86465L9.51212 1.7123L9.74317 1.48125C8.80821 0.874408 7.69499 0.519958 6.49977 0.519958ZM11.1798 0.779958L9.87978 2.07996V2.7523L6.31595 6.31613C6.29099 6.34009 6.27107 6.36878 6.25735 6.40054C6.24362 6.43229 6.23637 6.46646 6.23602 6.50105C6.23567 6.53565 6.24222 6.56996 6.2553 6.60198C6.26837 6.63401 6.28771 6.66311 6.31217 6.68757C6.33663 6.71203 6.36572 6.73136 6.39775 6.74444C6.42978 6.75751 6.46409 6.76407 6.49868 6.76371C6.53327 6.76336 6.56744 6.75611 6.5992 6.74239C6.63095 6.72866 6.65965 6.70874 6.6836 6.68379L10.2474 3.11996H10.9198L12.2198 1.81996H11.1798V0.779958ZM6.49977 4.15996C5.20966 4.15996 4.15978 5.20984 4.15978 6.49996C4.15978 7.79008 5.20966 8.83996 6.49977 8.83996C7.7899 8.83996 8.83978 7.79008 8.83978 6.49996C8.83978 6.13934 8.75535 5.79922 8.60923 5.49398L7.05126 7.05144C6.9041 7.19886 6.70803 7.27996 6.49977 7.27996C6.29152 7.27996 6.09545 7.19886 5.94829 7.05144C5.80087 6.90428 5.71978 6.70822 5.71978 6.49996C5.71978 6.2917 5.80087 6.09563 5.94829 5.94847L7.50626 4.39051C7.20128 4.24361 6.86039 4.15996 6.49977 4.15996Z" fill="#1EE8B7"/>
</svg>
