<svg width="12" height="13" viewBox="0 0 12 13" fill="none" xmlns="http://www.w3.org/2000/svg">
<path d="M1.09091 0.5C0.488182 0.5 0 0.988182 0 1.59091V11.4091C0 12.0118 0.488182 12.5 1.09091 12.5H10.9091C11.5118 12.5 12 12.0118 12 11.4091V1.59091C12 0.988182 11.5118 0.5 10.9091 0.5H1.09091ZM1.09091 1.59091H10.9091V3.77273H1.09091V1.59091ZM3.78303 6.1218C4.64321 6.1218 5.21804 6.58263 5.21804 7.26172C5.21804 7.68772 4.96768 8.0662 4.28587 8.6733L3.65199 9.25604V9.30717H5.27131V10.0689H2.35014V9.4169L3.56463 8.27379C4.12918 7.75179 4.27415 7.55787 4.27415 7.33097C4.27415 7.04842 4.06584 6.85902 3.74893 6.85902C3.41893 6.85902 3.18963 7.0833 3.18963 7.40021V7.41832H2.29368V7.40234C2.29368 6.63816 2.89121 6.1218 3.78303 6.1218ZM8.14773 6.1218C8.92282 6.1218 9.53242 6.57485 9.63388 7.2223H8.67827C8.61718 7.01176 8.40687 6.87607 8.1456 6.87607C7.6716 6.87607 7.37028 7.36543 7.40518 8.0767H7.45632C7.6265 7.71725 7.97217 7.5174 8.41726 7.5174C9.14435 7.5174 9.68288 8.05853 9.68288 8.78835C9.68234 9.59781 9.0456 10.1701 8.1456 10.1701C7.5996 10.1701 7.15174 9.95215 6.87465 9.54688C6.6161 9.20597 6.48047 8.72648 6.48047 8.16193C6.48047 6.90193 7.11682 6.1218 8.14773 6.1218ZM8.13707 8.2184C7.79344 8.2184 7.53303 8.47634 7.53303 8.81179C7.53303 9.1527 7.79616 9.41903 8.13707 9.41903C8.47798 9.41903 8.74432 9.15584 8.74432 8.81712C8.74432 8.47675 8.48344 8.2184 8.13707 8.2184Z" fill="#1EE8B7"/>
</svg>
