<svg width="101" height="86" viewBox="0 0 101 86" fill="none" xmlns="http://www.w3.org/2000/svg">
<path fill-rule="evenodd" clip-rule="evenodd" d="M65.4455 17.9534C65.5658 17.9534 65.6459 17.9534 65.7662 17.9534C66.087 17.9534 66.4478 18.0336 66.8087 18.1539C67.1696 18.2341 67.4502 18.3545 67.771 18.555C68.0917 18.7154 68.3724 18.9962 68.6129 19.2368C68.7333 19.3973 68.8937 19.5577 69.0139 19.6781C69.0941 19.7984 69.1743 19.8786 69.2545 19.9588C69.3748 20.0791 69.455 20.1995 69.5753 20.3198C69.6955 20.4401 69.7758 20.5203 69.896 20.6407C70.1767 20.9616 70.3772 21.2423 70.5777 21.523C70.6578 21.6835 70.738 21.8038 70.8182 21.9241C70.8984 22.0445 70.9385 22.1648 70.9786 22.3252C71.0989 22.606 71.2191 22.8868 71.3395 23.2477C71.3395 23.2878 71.3395 23.2878 71.3395 23.2878C71.3796 23.3279 71.3796 23.3279 71.3796 23.3279C71.3796 23.368 71.3796 23.368 71.3796 23.368C71.4196 23.4082 71.4196 23.4082 71.4196 23.4082C71.5399 23.6889 71.6201 24.0098 71.7003 24.3307C71.7404 24.6114 71.7404 24.8922 71.7805 25.1729C71.7805 25.3334 71.7805 25.3334 71.7805 25.3334C71.7805 25.5339 71.7805 25.6943 71.7805 25.8548C71.7805 25.9751 71.7805 26.0553 71.7805 26.1757C71.7805 26.697 71.7404 27.2586 71.6201 27.9404C71.5399 28.5821 71.4196 29.2239 71.2994 29.8255C71.1791 30.5875 71.0588 31.3496 70.8984 32.1117C70.9385 32.2721 70.9385 32.4325 70.9385 32.6331C70.9786 32.9941 70.9786 33.3149 71.0187 33.6759C71.0187 33.7561 71.0187 33.7561 71.0187 33.7561C71.0187 33.7962 71.0187 33.7962 71.0187 33.7962C71.0989 34.5182 71.139 35.2401 71.2994 35.962C71.3395 36.4434 71.4196 36.8043 71.5399 37.1252C71.6201 37.4862 71.7404 37.807 71.8607 38.0878C72.0612 38.6493 72.2617 39.2109 72.5022 39.7724C72.7428 40.374 73.0234 40.9355 73.3041 41.497C73.4244 41.6976 73.5447 41.8981 73.665 42.0586C73.8655 42.4195 74.066 42.7805 74.2664 43.1415C74.4268 43.4223 74.5471 43.703 74.7074 43.9838C74.8277 44.1843 74.8277 44.1843 74.8277 44.1843C74.948 44.3848 75.0282 44.6255 75.1485 44.826C75.2688 44.9865 75.349 45.1469 75.5094 45.3475C75.8301 45.8287 76.191 46.31 76.592 46.8315C76.7122 46.9919 76.8726 47.1925 76.9929 47.3529C77.0731 47.4331 77.1132 47.5133 77.1934 47.5935C77.3537 47.7539 77.4741 47.9545 77.6344 48.155C77.7547 48.3155 77.7547 48.3155 77.7547 48.3155C77.875 48.4358 77.875 48.4358 77.875 48.4358C78.1958 48.877 78.5967 49.3583 78.9576 49.8396C79.3585 50.2808 79.7996 50.722 80.2005 51.1632C80.2406 51.2033 80.2406 51.2033 80.2406 51.2033C80.5614 51.4841 80.842 51.7648 81.1628 52.0857C81.5236 52.4466 81.9246 52.8076 82.2855 53.2087C82.526 53.4493 82.526 53.4493 82.526 53.4493C82.7666 53.6499 83.0072 53.8905 83.2477 54.1312C83.5284 54.412 83.8492 54.6927 84.2501 55.0537C84.6511 55.3745 85.0922 55.7355 85.4931 56.0564C85.7336 56.2569 85.7336 56.2569 85.7336 56.2569C86.2148 56.6179 86.6558 56.9789 87.0969 57.3399C87.2974 57.5003 87.2974 57.5003 87.2974 57.5003C87.4176 57.6206 87.5379 57.7409 87.6983 57.8613C88.0191 58.142 88.38 58.4228 88.7408 58.7036C88.7408 58.7436 88.7408 58.7436 88.7408 58.7436C89.0215 58.9442 89.3021 59.1448 89.5427 59.3453C89.7031 59.4656 89.8233 59.5458 89.9436 59.626C90.0639 59.7464 90.1842 59.8266 90.3045 59.9068C90.5451 60.0673 90.8257 60.3079 91.0663 60.4683C91.1866 60.5886 91.3069 60.6689 91.4271 60.7892C91.5475 60.8694 91.7079 60.9898 91.8281 61.07C92.0286 61.2705 92.2692 61.4309 92.5498 61.6716C92.7904 61.832 93.031 61.9925 93.3919 62.2331C94.314 62.8347 95.2763 63.4364 96.5995 64.2385C96.84 64.3989 97.0806 64.5594 97.2811 64.7198C97.3613 64.7599 97.3613 64.7599 97.3613 64.7599C97.5617 64.9605 97.8024 65.1209 98.0429 65.3214C98.2835 65.522 98.524 65.6824 98.7646 65.883C98.9651 66.0033 99.1656 66.1637 99.366 66.2841C99.5264 66.3643 99.5264 66.3643 99.5264 66.3643C99.7269 66.5247 99.7269 66.5247 99.7269 66.5247C99.8873 66.6049 100.048 66.7252 100.208 66.8455C100.409 66.9659 100.609 67.1263 100.729 67.2466C100.85 67.4071 100.93 67.6076 100.97 67.8082C101.01 67.9686 101.01 68.1691 100.97 68.3697C100.85 69.0114 100.569 69.613 100.288 70.2548C99.6868 71.4982 99.1255 72.5009 98.5641 73.3832C98.4438 73.5838 98.2835 73.7843 98.1231 73.9848C98.0429 74.1052 98.0429 74.1052 98.0429 74.1052C97.8024 74.3859 97.6019 74.6266 97.4414 74.8673C97.2811 75.1079 97.1207 75.3887 97.0005 75.6293C96.9603 75.7095 96.9603 75.7095 96.9603 75.7095C96.8801 75.8298 96.8 75.9502 96.7197 76.1106C96.6395 76.271 96.5594 76.3914 96.4792 76.5518C96.1183 77.1935 95.7575 77.715 95.4768 78.1561C95.3966 78.2764 95.2763 78.3567 95.1962 78.477C95.156 78.5171 95.1159 78.5572 95.1159 78.5572C95.0759 78.5973 95.0357 78.6374 94.9957 78.6775V78.7177C94.9556 78.8781 94.8352 78.9984 94.715 79.0787C94.5947 79.1187 94.5145 79.1589 94.3943 79.1589C94.3541 79.1589 94.274 79.1187 94.2338 79.1187C94.1938 79.0786 94.1536 79.0787 94.1136 79.0385C94.0735 79.0385 94.0333 79.0385 93.9933 79.0385C93.9532 79.0385 93.9532 79.0385 93.9532 79.0385C93.8329 78.9984 93.7527 78.9182 93.6725 78.838C93.5121 78.7577 93.3517 78.6775 93.1914 78.5973C92.8706 78.477 92.5098 78.2764 92.1088 78.0358C91.5074 77.715 90.8658 77.3139 90.3045 76.9128C89.9838 76.6721 89.663 76.4315 89.3422 76.1507C89.0616 75.9502 88.7809 75.7095 88.5002 75.4689C87.8186 74.9875 87.1771 74.5865 86.6157 74.1854C86.5355 74.1453 86.5355 74.1453 86.5355 74.1453C86.2148 73.9848 85.9341 73.7843 85.6134 73.5437C85.4129 73.4233 85.2525 73.303 85.052 73.1426C84.6912 72.9019 84.6912 72.9019 84.6912 72.9019C84.17 72.5009 83.5284 72.0998 82.7666 71.6184C82.526 71.4982 82.2855 71.3778 82.085 71.2575C81.9647 71.2174 81.8845 71.1773 81.7642 71.0971C81.6439 71.0168 81.4836 70.9767 81.3633 70.8965C81.1628 70.7761 81.0024 70.6959 80.8019 70.6157C80.4812 70.4152 80.1203 70.2147 79.7996 70.0542C79.4788 69.8537 79.158 69.6932 78.8373 69.5328C78.316 69.212 77.7547 68.9713 77.1934 68.6905C76.9127 68.5301 76.592 68.4098 76.3113 68.2493C75.9103 68.0488 75.5094 67.8082 75.1084 67.6076C74.7075 67.4071 74.3065 67.1664 73.8655 66.9659C72.7027 66.4043 71.4598 66.0434 70.2569 65.6423C69.8158 65.522 69.8158 65.522 69.8158 65.522C69.1342 65.2813 68.4526 65.0808 67.5705 64.8401C66.8889 64.6797 66.2072 64.5193 65.4053 64.3989C65.2851 64.3589 65.2049 64.3589 65.1247 64.3187C64.7237 64.2786 64.7237 64.2786 64.7237 64.2786C64.0822 64.1583 63.561 64.038 63.0798 63.9177C62.6388 63.8374 62.1577 63.7171 61.7166 63.6369C61.1151 63.5566 60.4737 63.4764 59.8722 63.4364C59.5915 63.3962 59.5915 63.3962 59.5915 63.3962C59.1104 63.3561 58.6694 63.2759 58.1882 63.1957C57.9075 63.1556 57.5868 63.1155 57.3061 63.0754C56.9051 63.0352 56.5443 62.9952 56.1434 62.955C55.9028 62.955 55.6622 62.955 55.4216 62.955C55.3013 62.955 55.1811 62.955 55.1009 62.955C54.8202 62.955 54.5796 62.9149 54.2989 62.9149C53.898 62.9149 53.457 62.8748 53.0159 62.8748C52.8956 62.8748 52.8956 62.8748 52.8956 62.8748C52.2942 62.9149 51.6928 62.9149 50.9711 62.9952C50.5701 63.0352 50.1692 63.0352 49.7281 63.0754C49.0465 63.1155 49.0465 63.1155 49.0465 63.1155C48.4451 63.1957 47.7233 63.2759 47.0016 63.3962C46.721 63.4764 46.4002 63.5166 46.1195 63.5968C45.9992 63.5968 45.9992 63.5968 45.9992 63.5968C45.6785 63.677 45.3978 63.7572 45.1172 63.8374C44.9968 63.8775 44.9968 63.8775 44.9968 63.8775C44.636 64.038 44.2752 64.1583 43.9143 64.2786C43.7138 64.3589 43.5535 64.3989 43.353 64.4391C43.3129 64.4791 43.3129 64.4791 43.3129 64.4791C43.2327 64.4791 43.1525 64.5193 43.0723 64.5193C42.9119 64.5594 42.7114 64.5594 42.511 64.5995C42.4308 64.5995 42.3506 64.5594 42.2704 64.5594C42.11 64.5193 41.9497 64.4791 41.7492 64.3989C41.6289 64.3187 41.5487 64.2786 41.4284 64.2385C41.3081 64.1984 41.3081 64.1984 41.3081 64.1984C41.1478 64.1583 40.9473 64.0781 40.7067 63.9577C40.5062 63.8374 40.3458 63.677 40.1854 63.5566C40.1454 63.4764 40.0652 63.4364 39.9849 63.3561C39.8647 63.2358 39.7043 63.1155 39.584 62.955C39.3435 62.7144 39.143 62.3935 38.9425 62.0727C38.8623 61.9122 38.8222 61.7117 38.742 61.5111C38.7019 61.471 38.7019 61.471 38.7019 61.471C38.6618 61.3507 38.6618 61.2304 38.6217 61.07C38.5816 60.9898 38.5816 60.9898 38.5816 60.9898C38.5014 60.6288 38.4213 60.2277 38.4213 59.7464C38.3811 59.0645 38.5416 58.3426 38.7019 57.6607C38.8222 57.0992 39.0227 56.5377 39.2232 55.9762C39.3033 55.6553 39.3033 55.6553 39.3033 55.6553C39.5439 55.0136 39.7845 54.412 40.0251 53.7702C40.3057 53.2087 40.5463 52.567 40.7868 52.0055C41.0275 51.3637 41.3081 50.722 41.5888 50.0802C41.8695 49.3583 42.1902 48.7566 42.511 48.1952C42.7114 47.8743 42.9119 47.5534 43.1124 47.2325C43.2728 46.9919 43.4332 46.7512 43.5935 46.5106C43.9143 45.9491 44.2351 45.3875 44.5559 44.8661C44.8766 44.3448 45.1973 43.8233 45.5181 43.3019C45.6384 43.1415 45.6384 43.1415 45.6384 43.1415C46.0394 42.5398 46.4002 41.9382 46.721 41.3767C46.8813 41.0559 47.0818 40.6949 47.2422 40.374C47.4026 40.0932 47.5229 39.8526 47.6832 39.5718C47.9639 39.0103 48.3248 38.4087 48.6456 37.8472C48.6856 37.767 48.6856 37.767 48.6856 37.767C48.8059 37.5664 48.8861 37.3659 49.0064 37.1653C49.247 36.7643 49.4475 36.3632 49.688 35.962C50.3697 34.7589 51.1315 33.5957 51.9334 32.3925C52.2942 31.871 52.6951 31.3095 53.0961 30.748C53.1763 30.6277 53.2164 30.5475 53.2966 30.4673C53.4169 30.2667 53.5773 30.1063 53.6975 29.9057C53.898 29.625 54.0584 29.3442 54.2188 29.0634C54.6197 28.5019 54.6197 28.5019 54.6197 28.5019C55.2212 27.5393 55.8226 26.5767 56.424 25.6141C56.5443 25.4136 56.6245 25.213 56.7448 25.0125C56.9453 24.6114 57.1858 24.2103 57.4264 23.8493C57.5868 23.5686 57.7873 23.3279 57.9877 23.0472C58.3085 22.6461 58.5089 22.4054 58.7496 22.1247C59.1505 21.6835 59.6316 21.2022 60.193 20.7209C60.4335 20.5203 60.634 20.3599 60.8746 20.2396C61.035 20.1193 61.035 20.1193 61.035 20.1193C61.1954 19.9989 61.3558 19.8786 61.476 19.7583C61.5963 19.6379 61.7166 19.5577 61.8369 19.4775C62.1577 19.2368 62.5185 18.9962 62.7992 18.8358C63.0799 18.6352 63.3605 18.4748 63.6412 18.3545C64.2025 18.0737 64.844 17.9534 65.4455 17.9534Z" fill="#1EE8B7"/>
<path fill-rule="evenodd" clip-rule="evenodd" d="M49.8228 33.8055C50.0241 33.8855 50.2254 33.9655 50.3865 34.0855C50.5879 34.2454 50.7489 34.4054 50.91 34.5654C51.4739 35.0453 52.0779 35.4053 52.6819 35.7652C53.0041 35.9252 53.3263 36.0852 53.6484 36.2452C54.0108 36.4451 54.333 36.6851 54.6552 36.9251C54.8968 37.085 54.9371 37.405 54.8163 37.645C54.6552 37.8449 54.333 37.9249 54.0914 37.7649C53.729 37.525 53.3665 37.245 52.9236 37.045C52.5209 36.845 52.1181 36.6451 51.7154 36.4451C51.3127 36.2451 50.91 36.0052 50.5074 35.7652C50.4671 35.7252 50.4268 35.6852 50.3462 35.6453C50.3462 35.7252 50.3462 35.7652 50.3462 35.8452C50.306 36.2451 50.2255 36.6051 50.1449 37.005C49.9838 37.485 49.7422 37.9249 49.5006 38.3648C49.42 38.4849 49.2992 38.6048 49.2187 38.7248C49.0576 38.8848 48.8965 39.0848 48.7354 39.2447C48.6146 39.3647 48.4938 39.4447 48.4132 39.5247C48.4132 39.6047 48.4132 39.6846 48.4132 39.7647C48.4132 39.9646 48.4535 40.1646 48.4938 40.3246C48.5341 40.5245 48.5744 40.6845 48.6549 40.8445C48.7354 41.0445 48.7757 41.2445 48.8563 41.4044C48.9368 41.6044 49.0173 41.8044 49.0978 41.9644C49.2187 42.1243 49.3797 42.2443 49.4603 42.4043C49.5811 42.6443 49.6214 42.8842 49.5006 43.1242C49.3797 43.4442 49.0173 43.7241 48.6146 43.6841C48.4132 43.6441 48.2119 43.6041 48.0508 43.4442C47.93 43.3641 47.8495 43.2842 47.7286 43.1642C47.6079 43.0842 47.4871 42.9242 47.3662 42.8043C47.1246 42.5643 46.883 42.3243 46.6414 42.0843C46.44 41.8443 46.1984 41.6044 45.9165 41.4044C45.7957 41.2845 45.6749 41.2044 45.5541 41.0845C45.4332 40.9645 45.3124 40.8045 45.1916 40.6845C45.1111 40.5645 45.0708 40.4446 44.9903 40.3246C44.95 40.2446 44.9097 40.1246 44.9097 40.0446C44.8695 39.9646 44.8695 39.8846 44.8292 39.8047C44.7889 39.5647 44.7486 39.2847 44.7889 39.0047C44.8695 38.6448 44.9097 38.2849 45.0305 37.9649C45.1111 37.645 45.2319 37.405 45.3527 37.125C45.5138 36.7651 45.6749 36.4451 45.8762 36.1252C46.0776 35.8452 46.2387 35.5252 46.44 35.2853C46.6414 35.0054 46.883 34.7654 47.1649 34.5254C47.4065 34.3254 47.6481 34.1255 47.93 34.0055C48.2119 33.8855 48.4938 33.8055 48.7757 33.7255C48.9368 33.7255 49.0576 33.6855 49.2187 33.6855C49.42 33.6855 49.6214 33.7255 49.8228 33.8055ZM47.0441 40.1646C47.0038 40.1646 46.9635 40.1646 46.9635 40.1646C47.0038 40.2046 47.0038 40.2446 47.0441 40.2446C47.0441 40.2446 47.0441 40.2046 47.0441 40.1646Z" fill="#1EE8B7"/>
<path fill-rule="evenodd" clip-rule="evenodd" d="M78.7246 66.6586C78.8045 66.6987 78.8445 66.7388 78.8844 66.7789C79.0043 66.8993 79.0443 67.0196 79.0842 67.1801C79.1242 67.3807 79.1242 67.4609 79.0842 67.6615C79.0443 67.7818 79.0043 67.862 78.9244 67.9824C78.8445 68.1027 78.7246 68.1829 78.6447 68.3033C78.6047 68.3836 78.5248 68.4236 78.4849 68.5039C78.6047 68.5841 78.7246 68.6643 78.8445 68.7045C78.9244 68.7847 79.0443 68.8248 79.1242 68.8649H79.1641C79.324 68.7847 79.4837 68.7446 79.6036 68.7446C79.8034 68.7847 79.9233 68.8248 80.0431 68.9051C80.2829 69.0254 80.4426 69.3062 80.4426 69.5469C80.6025 69.6272 80.7623 69.7475 80.9621 69.8277C81.1619 69.9079 81.3616 70.0283 81.5614 70.1085C81.9609 70.2289 82.3605 70.3492 82.7201 70.5899C82.8 70.6701 82.8799 70.7103 82.9598 70.8306C82.9998 70.8707 83.0397 70.9108 83.0797 70.9911C83.1196 71.1114 83.1596 71.2318 83.1596 71.3521C83.1596 71.3521 83.1995 71.3922 83.2395 71.3922C83.3993 71.4323 83.4792 71.6329 83.4393 71.7532C83.3993 71.7934 83.3993 71.8335 83.3993 71.8335C83.3594 71.8736 83.3594 71.8736 83.3594 71.8736C83.2395 72.0341 83.0397 72.1544 82.8399 72.2347C82.6801 72.3149 82.5203 72.3951 82.3605 72.5154C82.2007 72.5957 82.0808 72.7161 81.921 72.7963C81.6812 72.9968 81.4015 73.1573 81.1619 73.3178C80.9221 73.4381 80.7223 73.5585 80.4826 73.6788C80.4826 73.719 80.4826 73.719 80.4826 73.719C80.3627 73.8794 80.2429 74.0399 80.123 74.2003C80.0431 74.3207 80.0032 74.4009 79.9233 74.4811C79.8433 74.6014 79.7235 74.7218 79.6436 74.8421C79.4837 74.9625 79.3639 75.123 79.2041 75.2834C79.1242 75.3637 79.0443 75.4439 78.9643 75.5241C78.8844 75.6043 78.8045 75.6445 78.7246 75.7247C78.6847 75.7648 78.6447 75.7648 78.5648 75.805C78.5648 75.845 78.5648 75.845 78.5248 75.845C78.4449 75.9654 78.325 76.0055 78.2052 76.0457C78.0054 76.1259 77.7657 76.0857 77.6059 75.9654C77.526 75.8852 77.486 75.845 77.446 75.7648C77.4061 75.7648 77.4061 75.7247 77.3661 75.6846C77.2863 75.6445 77.2064 75.5643 77.1664 75.484C77.0465 75.4038 76.9267 75.2834 76.8068 75.1631C76.6869 75.0428 76.5271 74.9224 76.4072 74.8021C76.4072 74.8421 76.4472 74.8421 76.4472 74.8421C76.4072 74.8021 76.3673 74.8021 76.3274 74.7619C76.2075 74.6416 76.1276 74.5614 76.0077 74.4811C75.8479 74.3608 75.728 74.2404 75.5682 74.1201C75.4883 74.1201 75.4084 74.08 75.3285 74.0399C75.2885 73.9997 75.2486 73.9997 75.2086 73.9596C75.1687 73.9596 75.0888 73.9195 75.0088 73.8794C74.9689 73.8393 74.9289 73.7992 74.889 73.7992C74.8091 73.759 74.7691 73.6788 74.6892 73.6387C74.6492 73.6387 74.6093 73.6387 74.5693 73.5986C74.4495 73.5986 74.3296 73.5986 74.2098 73.5585C74.2098 73.5585 74.2098 73.5585 74.2098 73.5986C74.1698 73.5986 74.0899 73.6387 74.0499 73.6788C74.0499 73.719 74.0499 73.719 74.0499 73.719C74.0499 73.6788 74.0899 73.6788 74.0899 73.6788C74.0499 73.6788 74.0499 73.719 74.01 73.719C73.97 73.759 73.97 73.7992 73.9301 73.8393C73.8901 73.9195 73.8901 73.9596 73.8502 73.9997C73.8102 74.08 73.7702 74.2003 73.7702 74.2805C73.7303 74.4009 73.6903 74.5212 73.6903 74.6817C73.6504 74.7218 73.6504 74.8021 73.6504 74.8823C73.6903 74.9625 73.6903 75.0026 73.6903 75.0428C73.7702 75.3236 73.8502 75.5643 73.9301 75.805C73.97 75.9654 74.01 76.0857 74.01 76.2061C74.0499 76.3666 74.0899 76.4869 74.0899 76.6072C74.1698 76.8881 74.2497 77.1689 74.3296 77.4497C74.3296 77.57 74.3695 77.6904 74.4095 77.8107C74.4095 77.931 74.4095 78.0514 74.4095 78.1718C74.4495 78.3723 74.3695 78.6532 74.2098 78.7735C74.1299 78.8136 74.0899 78.8136 74.0499 78.8537C73.9301 78.9339 73.8502 78.9339 73.7303 78.9339C73.6104 78.9339 73.4905 78.8939 73.3707 78.8136C73.2908 78.7735 73.2109 78.6932 73.1709 78.5729C73.091 78.3723 73.0111 78.1718 72.9712 77.9712C72.9312 77.8107 72.8913 77.6503 72.8113 77.5299C72.7714 77.4096 72.7314 77.2892 72.6915 77.209C72.6116 77.0886 72.5716 76.9683 72.4917 76.8479C72.3319 76.6072 72.1321 76.4067 71.9723 76.166C71.8924 76.0457 71.7725 75.9253 71.6926 75.845C71.6127 75.7247 71.4928 75.6043 71.373 75.484C71.373 75.484 71.333 75.4439 71.293 75.4439C71.2132 75.3637 71.1732 75.2433 71.1333 75.1631C71.0533 75.0428 71.0134 74.8823 70.9734 74.7218C70.8935 74.5614 70.8935 74.4009 70.9335 74.2003C70.9335 74.08 70.9734 73.9596 71.0134 73.8393C71.0134 73.759 71.0533 73.6788 71.0933 73.5986C71.1333 73.5183 71.1732 73.398 71.2531 73.3178C71.413 73.1172 71.5727 72.9166 71.7725 72.7561C71.7326 72.7561 71.7326 72.7561 71.7326 72.7561C71.8524 72.5957 72.0123 72.4754 72.1321 72.3149C72.4517 71.9137 72.7714 71.5125 73.091 71.1114C73.4106 70.7905 73.7303 70.4294 74.0499 70.1085C74.6892 69.4667 75.3285 68.7847 76.0077 68.1829C76.4073 67.862 76.7668 67.501 77.1264 67.14C77.2064 67.0597 77.3262 66.9795 77.4061 66.8993C77.446 66.8591 77.4861 66.819 77.526 66.7789C77.6059 66.7388 77.7257 66.6185 77.7657 66.6185C77.8456 66.5783 77.9255 66.5382 78.0054 66.4981C78.1253 66.4981 78.2052 66.4981 78.2851 66.4981C78.445 66.4981 78.6447 66.5783 78.7246 66.6586ZM76.8068 73.398C76.7668 73.398 76.7668 73.398 76.7668 73.4381C76.7269 73.4381 76.7269 73.4381 76.7269 73.4381C76.7269 73.4783 76.7668 73.4783 76.7668 73.5183C76.7668 73.4783 76.8068 73.4381 76.8068 73.398ZM72.3319 74.3207C72.3718 74.2003 72.3718 74.1201 72.4118 73.9997C72.3718 73.9997 72.3719 74.0399 72.3719 74.0399C72.3319 74.08 72.292 74.1201 72.292 74.1602C72.2519 74.2404 72.2519 74.3207 72.2519 74.4009C72.292 74.441 72.292 74.4811 72.292 74.5212C72.3319 74.441 72.3319 74.3608 72.3319 74.3207Z" fill="#1EE8B7"/>
<path fill-rule="evenodd" clip-rule="evenodd" d="M83.9763 70.7684C84.0971 70.7684 84.1775 70.849 84.258 70.9296C84.3385 71.0102 84.3787 71.1311 84.3787 71.252C84.3787 71.3326 84.3385 71.4937 84.2177 71.534C84.0165 71.6952 83.7751 71.8564 83.5337 72.0176C83.2923 72.219 83.0105 72.4205 82.7289 72.5817C82.3265 72.8637 81.9241 73.1458 81.5217 73.3876C81.1997 73.6294 80.8778 73.8309 80.5559 74.0726C80.1535 74.3547 79.7914 74.677 79.4292 74.9994C79.1073 75.3218 78.7049 75.5636 78.383 75.8859C78.1817 76.0471 77.9001 76.0874 77.6586 75.9262C77.4172 75.765 77.3367 75.4024 77.4977 75.1203C77.6184 74.9591 77.8196 74.8383 77.9805 74.7174C78.1415 74.5562 78.3427 74.4353 78.5439 74.2741C78.7049 74.1532 78.9061 73.9921 79.067 73.8711C79.2683 73.71 79.4292 73.5891 79.5902 73.4682C79.9925 73.1458 80.4352 72.9041 80.8778 72.622C81.3205 72.3399 81.8034 72.0982 82.246 71.8161C82.5679 71.6146 82.8898 71.4131 83.2117 71.2116C83.3727 71.0908 83.4934 71.0102 83.6544 70.8893C83.7349 70.8087 83.8154 70.7684 83.9361 70.7684C83.9361 70.7684 83.9361 70.7684 83.9763 70.7684ZM83.5337 72.0176C83.5739 72.0176 83.6142 71.9773 83.6544 71.9773C83.6142 71.9773 83.5739 72.0176 83.5337 72.0176Z" fill="#1EE8B7"/>
<path fill-rule="evenodd" clip-rule="evenodd" d="M73.6218 78.3103C73.7013 78.3904 73.741 78.5506 73.741 78.6707C73.741 78.8309 73.6615 78.951 73.582 79.0712C73.0255 79.6317 72.3498 80.1122 71.7137 80.5527C71.1174 80.9531 70.5212 81.3134 69.9249 81.7138C69.6069 81.9541 69.3287 82.1943 69.0107 82.4346C69.0107 82.4346 69.0107 82.4346 69.0107 82.4746C68.8516 82.5947 68.6529 82.7549 68.4541 82.7149C68.3746 82.7149 68.2951 82.6748 68.2157 82.6348C68.0964 82.5547 68.0169 82.4346 67.9771 82.3145C67.8976 81.9141 68.2157 81.6738 68.4939 81.4736C68.4939 81.4736 68.4541 81.5136 68.4144 81.5136C68.6529 81.3535 68.8914 81.1532 69.0902 80.9531C69.3684 80.7528 69.6864 80.5927 69.9647 80.3925C70.4815 80.0722 70.9585 79.7518 71.4752 79.3915C71.5149 79.3514 71.5944 79.3114 71.6342 79.3114C71.833 79.1512 72.0317 78.9911 72.2305 78.8709C72.4292 78.6707 72.6677 78.4705 72.8665 78.2703C72.946 78.1502 73.0652 78.1102 73.1845 78.1102C73.3435 78.1102 73.5025 78.1903 73.6218 78.3103Z" fill="#1EE8B7"/>
<path fill-rule="evenodd" clip-rule="evenodd" d="M73.2494 77.1013C73.3662 77.1812 73.3662 77.341 73.2883 77.4609C73.2104 77.5808 73.1325 77.7006 73.0546 77.8204C72.9377 77.9803 72.8598 78.1001 72.7429 78.1801C72.665 78.26 72.5481 78.26 72.5092 78.22C72.4313 78.1801 72.4313 78.1401 72.3923 78.1001C72.3923 78.0202 72.4313 77.9803 72.4313 77.9404C72.5092 77.8204 72.5871 77.7006 72.665 77.5808C72.7429 77.4609 72.8209 77.3011 72.8987 77.1812C72.9766 77.1013 73.0156 77.0613 73.0935 77.0613C73.1714 77.0613 73.2104 77.1013 73.2494 77.1013Z" fill="#1EE8B7"/>
<path fill-rule="evenodd" clip-rule="evenodd" d="M71.4188 79.1034C71.4188 79.338 71.2144 79.5334 70.9284 79.5334C70.6832 79.5334 70.5198 79.2989 70.5198 79.0644C70.5198 78.8298 70.7241 78.6344 70.9693 78.6344C71.2553 78.6344 71.4188 78.869 71.4188 79.1034Z" fill="#1EE8B7"/>
<path fill-rule="evenodd" clip-rule="evenodd" d="M74.2894 77.746C74.49 77.9465 74.4499 78.2272 74.2493 78.4277C73.7678 78.909 73.3264 79.4303 72.8048 79.8313C72.2832 80.2724 71.7214 80.6333 71.1597 80.9942C71.1999 80.9942 71.24 80.9542 71.2801 80.914C71.1597 80.9942 71.0794 81.0744 70.9591 81.1146C70.9992 81.1146 70.9992 81.1146 70.9992 81.1146C70.7986 81.2349 70.598 81.3551 70.3974 81.4755C70.1968 81.6359 69.9962 81.7963 69.7955 81.9567C69.5949 82.1171 69.3542 82.2775 69.1134 82.4379C68.9128 82.6384 68.672 82.7988 68.4714 82.9993C68.3511 83.1196 68.2708 83.1998 68.1505 83.28C68.0702 83.3602 67.9498 83.4405 67.8696 83.5207C67.6288 83.6811 67.4282 83.8415 67.1874 84.0019C67.1072 84.042 67.027 84.0821 66.9467 84.1222C66.7862 84.1623 66.6659 84.2425 66.5054 84.2826C66.2245 84.4029 65.8634 84.3628 65.5424 84.3227C65.422 84.2826 65.3417 84.2826 65.2214 84.2425C65.101 84.2024 64.9806 84.1222 64.9004 84.0821C64.7399 84.0019 64.6195 83.9217 64.4991 83.8415C63.9374 83.4405 63.6165 82.8791 63.2954 82.3176C63.1349 82.077 63.0146 81.8364 62.8942 81.5958C62.7738 81.3953 62.6936 81.1948 62.6534 80.9542C62.6534 80.7937 62.6534 80.6333 62.6534 80.4328C62.6936 80.0719 62.7337 79.6308 62.9745 79.31C63.0547 79.2298 63.135 79.1496 63.2152 79.0693C63.2954 79.0293 63.3757 78.9892 63.4158 78.9491C63.496 78.909 63.5362 78.909 63.6165 78.8689C63.6967 78.8689 63.8171 78.8689 63.9374 78.8689C64.0578 78.8689 64.2183 78.8689 64.3387 78.9491C64.5393 79.0293 64.6998 79.1095 64.8603 79.2298C64.9806 79.2699 65.0208 79.3501 65.1411 79.4303C65.1813 79.4704 65.2214 79.4704 65.2214 79.5105C65.3016 79.5907 65.3819 79.6709 65.4622 79.7511C65.6226 79.8714 65.743 80.0318 65.9035 80.1922C65.9035 80.2323 65.9436 80.2724 65.9837 80.3126C66.1442 80.513 66.3448 80.7135 66.4652 80.9542C66.6257 81.1948 66.706 81.4755 66.7862 81.7963C66.8263 81.8765 66.8263 81.9567 66.8665 82.077C66.9066 82.1973 66.9066 82.2775 66.9066 82.3978C66.9066 82.478 66.9066 82.5983 66.8665 82.6785C66.9066 82.6384 66.9467 82.6384 66.9868 82.5983C67.1473 82.478 67.3078 82.3978 67.4683 82.2775C67.5887 82.1973 67.7091 82.077 67.8294 81.9968C67.9498 81.8765 68.0702 81.7963 68.1905 81.7161C68.4313 81.5557 68.672 81.3953 68.9128 81.2349C69.1535 81.0744 69.3943 80.874 69.635 80.7135C69.8757 80.5531 70.0764 80.4328 70.3171 80.3126C70.5579 80.1922 70.7986 80.0318 71.0394 79.9115C71.2801 79.7511 71.4807 79.5907 71.7214 79.4303C71.8017 79.3902 71.8418 79.3501 71.9221 79.31C72.2029 79.1095 72.5239 78.909 72.7647 78.6282C73.0455 78.3475 73.3665 78.0268 73.6474 77.7059C73.7276 77.6257 73.848 77.5856 73.9282 77.5856C74.0888 77.5856 74.2091 77.6658 74.2894 77.746ZM65.5022 82.8389C65.3819 82.7186 65.3016 82.5983 65.1813 82.478C65.101 82.3577 65.0208 82.2374 64.9405 82.1171C64.9004 82.1572 64.9004 82.1973 64.8603 82.2374C64.9806 82.3577 65.101 82.5181 65.2214 82.6785C65.3016 82.7186 65.422 82.7989 65.5022 82.8389Z" fill="#1EE8B7"/>
<path fill-rule="evenodd" clip-rule="evenodd" d="M64.2778 80.2878C64.3579 80.368 64.4379 80.4481 64.4779 80.5684C64.518 80.6886 64.518 80.7687 64.558 80.8489C64.558 80.8088 64.558 80.8088 64.518 80.7687C64.598 80.929 64.6781 81.0893 64.7581 81.2897C64.7982 81.3297 64.8382 81.3698 64.9182 81.45C65.0783 81.5701 65.2785 81.7304 65.4786 81.8506C65.7988 82.1311 66.0789 82.4116 66.279 82.8124C66.3991 83.0928 66.3191 83.4535 65.9989 83.5737C65.8788 83.6538 65.7187 83.6538 65.5586 83.6138C65.4386 83.5737 65.2785 83.4535 65.2384 83.3333C65.1984 83.213 65.1184 83.0928 65.0783 82.9726C64.9983 82.8524 64.9182 82.7723 64.8382 82.6922C64.7181 82.5719 64.6381 82.4918 64.518 82.4116C64.4379 82.3315 64.3179 82.2514 64.2378 82.1712C64.0777 82.0109 63.9577 81.8506 63.8776 81.6503C63.7175 81.3698 63.6375 81.0893 63.5174 80.7687C63.4774 80.6485 63.5174 80.5283 63.5975 80.4081C63.6775 80.3279 63.7576 80.2478 63.8776 80.2077C63.9176 80.2077 63.9577 80.2077 63.9977 80.2077C64.0777 80.2077 64.1978 80.2077 64.2778 80.2878Z" fill="#1EE8B7"/>
<path fill-rule="evenodd" clip-rule="evenodd" d="M74.9296 78.1205C75.0495 78.2406 75.0894 78.3607 75.0894 78.4808C75.0495 78.641 75.0094 78.7211 74.8895 78.8412C74.6097 79.1215 74.3299 79.4418 74.0101 79.6821C73.8502 79.8422 73.7303 79.9624 73.5704 80.0825C73.4105 80.2026 73.2906 80.3627 73.1707 80.4829C73.0107 80.6431 72.8509 80.8032 72.691 80.9634C72.5311 81.1235 72.3312 81.2837 72.0913 81.4038C71.8515 81.604 71.5317 81.7642 71.2519 81.9244C70.9321 82.1646 70.6123 82.4449 70.2925 82.7251C70.0926 82.8853 69.8928 83.0455 69.6529 83.1656C69.4531 83.2857 69.2532 83.4059 69.0533 83.526C68.9334 83.6061 68.8534 83.6861 68.7335 83.7662C68.5736 83.8864 68.3737 84.0065 68.1739 84.1266C68.0939 84.2067 68.0539 84.2467 67.974 84.2868C67.8941 84.3669 67.7741 84.4469 67.6542 84.527C67.5742 84.567 67.5343 84.6071 67.4543 84.6471C67.3344 84.7272 67.2145 84.7272 67.1345 84.7672C67.0546 84.8073 66.9347 84.8073 66.8547 84.8073C66.5749 84.9274 66.2551 84.8874 65.9753 84.6872C65.8154 84.567 65.7354 84.4469 65.6155 84.2467C65.6155 84.2067 65.5755 84.1666 65.5355 84.0865C65.4956 84.0865 65.4956 84.0465 65.4956 84.0465C65.4556 84.0065 65.4556 83.9665 65.4156 83.9665C65.3757 83.8463 65.2957 83.7262 65.2158 83.6461C65.1358 83.486 65.0959 83.3258 65.0159 83.1656C64.9759 82.9254 64.9759 82.6451 65.0559 82.4048C65.0959 82.2847 65.2158 82.1245 65.2957 82.0045C65.4556 81.8843 65.5755 81.8443 65.7354 81.8042C65.8553 81.7642 65.9753 81.7642 66.0952 81.7642C66.1352 81.7642 66.1752 81.7642 66.2151 81.7642C66.335 81.8042 66.415 81.8042 66.5349 81.8042C66.6549 81.8443 66.7747 81.8443 66.9347 81.8843C67.0546 81.8843 67.1745 81.9244 67.2944 82.0045C67.4943 82.1245 67.5742 82.4048 67.5343 82.6451C67.4943 82.7251 67.4543 82.8052 67.3744 82.8853C67.2544 82.9654 67.1345 83.0055 66.9746 83.0055C66.8547 83.0055 66.7747 82.9654 66.6548 82.9254C66.6148 82.9254 66.6148 82.9254 66.5749 82.9254C66.6548 83.0455 66.7348 83.1656 66.8148 83.2457C66.8947 83.2056 66.9347 83.1656 67.0146 83.1256C67.2145 83.0055 67.4143 82.8453 67.6142 82.7652C67.8541 82.6451 68.0539 82.525 68.2538 82.4048C68.4537 82.2847 68.6536 82.1646 68.8934 82.0845C69.0933 81.9644 69.2931 81.8843 69.4531 81.7642C69.8528 81.4839 70.1726 81.1636 70.5723 80.9233C70.9721 80.6831 71.3718 80.563 71.7316 80.3227C72.1713 80.0024 72.5311 79.602 72.9308 79.2817C73.1707 79.0815 73.3705 78.9213 73.5704 78.7612C73.8102 78.5209 74.0501 78.3207 74.25 78.0804C74.3299 78.0003 74.4498 77.9603 74.5698 77.9603C74.6897 77.9603 74.8496 78.0404 74.9296 78.1205Z" fill="#1EE8B7"/>
<path fill-rule="evenodd" clip-rule="evenodd" d="M63.5126 79.6084C63.7969 79.6891 63.878 79.9711 63.8374 80.2129C63.7968 80.3741 63.7156 80.5353 63.675 80.6965C63.675 80.7368 63.675 80.7368 63.675 80.7771C63.675 80.8577 63.675 80.898 63.7156 80.9786C63.7156 81.0189 63.7562 81.0592 63.7562 81.0995C63.9592 81.3413 64.1217 81.5831 64.2841 81.8249C64.3653 81.9458 64.4059 82.0666 64.4871 82.1876C64.5277 82.3085 64.5683 82.4294 64.6495 82.5502C64.7307 82.6308 64.8119 82.7115 64.8525 82.8323C64.9743 82.9532 65.0555 83.0742 65.1367 83.1951C65.2991 83.3563 65.4615 83.5578 65.6646 83.7189C65.827 83.8801 65.9894 84.001 66.1518 84.1622L66.1112 84.1219C66.1518 84.1219 66.1518 84.1622 66.1924 84.1622H66.233C66.4766 83.9607 66.6796 83.7189 66.9232 83.4772C67.0045 83.3563 67.2075 83.3159 67.3293 83.3159C67.4917 83.3159 67.6541 83.3965 67.7353 83.5174C67.8571 83.6383 67.8977 83.7995 67.8977 83.9204C67.8977 84.1219 67.8165 84.2428 67.6947 84.3637C67.4917 84.5652 67.2887 84.807 67.0857 85.0085C66.9232 85.1294 66.8014 85.21 66.6391 85.2906C66.5172 85.3309 66.436 85.3712 66.3142 85.4115C66.1518 85.4518 65.9894 85.4115 65.827 85.3712C65.5021 85.2906 65.2585 85.0891 65.0149 84.8876C64.7713 84.7264 64.5277 84.5249 64.3653 84.3235C64.1623 84.1219 64.0405 83.9204 63.878 83.7189C63.7968 83.6384 63.7156 83.5174 63.6344 83.4368C63.5126 83.2353 63.4314 83.0742 63.3502 82.9129C63.3096 82.7921 63.269 82.6712 63.2284 82.5502C63.1878 82.3891 63.1066 82.2681 63.0254 82.1473C62.863 81.8652 62.7006 81.5831 62.6599 81.301C62.6193 81.1801 62.6193 81.0592 62.6193 80.9383C62.5788 80.7771 62.6193 80.6562 62.6599 80.495C62.6599 80.3741 62.7411 80.2935 62.7817 80.1726C62.8224 80.0517 62.863 79.9308 62.9442 79.8099C63.0254 79.6487 63.1878 79.6084 63.3502 79.6084C63.4314 79.6084 63.472 79.6084 63.5126 79.6084Z" fill="#1EE8B7"/>
<path fill-rule="evenodd" clip-rule="evenodd" d="M93.698 63.4267C93.7777 63.5071 93.8176 63.5875 93.7777 63.6679C93.698 63.8287 93.6581 63.9895 93.5784 64.1502C93.5386 64.2708 93.4588 64.4316 93.3791 64.5522C93.2994 64.6728 93.2197 64.7934 93.1001 64.914C93.0204 65.0346 92.9406 65.1552 92.8609 65.316C92.7015 65.517 92.5819 65.718 92.4624 65.9591C92.3428 66.2003 92.2232 66.4013 92.1036 66.6425C91.9841 66.8837 91.8645 67.1249 91.7449 67.3661C91.6253 67.6073 91.4659 67.8485 91.3064 68.0495C91.2267 68.1298 91.1869 68.2103 91.147 68.2907C91.0275 68.4514 90.9478 68.572 90.868 68.7328C90.868 68.6926 90.868 68.6926 90.868 68.6524C90.7883 68.8132 90.7086 68.974 90.589 69.0946C90.4694 69.2956 90.3498 69.4966 90.2302 69.6976C90.1904 69.8182 90.1107 69.9388 90.0708 70.0594C89.9911 70.18 89.9513 70.3006 89.9114 70.4212C89.7918 70.6624 89.7121 70.9036 89.5925 71.1046C89.473 71.3458 89.3534 71.5869 89.2338 71.8281C89.1541 71.9487 89.1142 72.0693 89.0345 72.1497C88.9548 72.3105 88.875 72.4311 88.7555 72.5517C88.6757 72.6723 88.596 72.7527 88.5163 72.8733C88.3968 72.9537 88.2772 73.0743 88.1576 73.1949C88.1178 73.2351 88.038 73.2753 87.9583 73.3155C87.8387 73.3155 87.759 73.2753 87.7191 73.1949C87.6394 73.1547 87.5996 73.0743 87.5996 72.9939C87.5996 72.8733 87.6394 72.7527 87.7191 72.6723C87.8387 72.5919 87.9185 72.5115 88.038 72.4311C88.1178 72.3909 88.1975 72.3105 88.2772 72.2301C88.3569 72.1095 88.4366 72.0291 88.5163 71.9085C88.6359 71.7075 88.7555 71.5065 88.875 71.3055C88.9946 71.0644 89.1142 70.8232 89.2338 70.6222C89.3534 70.381 89.4331 70.1398 89.5527 69.8986C89.6723 69.6574 89.7918 69.4564 89.9512 69.2152C90.1505 68.8936 90.3498 68.6122 90.5491 68.3308C90.7883 68.0093 90.9876 67.7279 91.2267 67.4063C91.3463 67.2053 91.5057 66.9641 91.6253 66.7229C91.7449 66.5219 91.8645 66.2807 91.9841 66.0395C92.1036 65.7984 92.2232 65.5974 92.3428 65.3562C92.4624 65.2356 92.5421 65.115 92.6218 64.9944C92.7015 64.8738 92.7812 64.7934 92.8609 64.6728C92.9406 64.5924 92.9805 64.512 93.0602 64.4316C93.14 64.311 93.2197 64.1502 93.2595 64.0296C93.3393 63.8689 93.419 63.7081 93.4987 63.5071C93.4987 63.4669 93.5784 63.4267 93.6183 63.4267C93.6582 63.4267 93.698 63.4267 93.698 63.4267Z" fill="black"/>
<path fill-rule="evenodd" clip-rule="evenodd" d="M79.2395 52.2695C79.3593 52.3893 79.3593 52.589 79.2395 52.7488C78.9598 53.0683 78.6801 53.3878 78.4004 53.7073C78.1208 54.0268 77.921 54.3463 77.6813 54.6658C77.2818 55.2649 76.9621 55.9438 76.6025 56.5828C76.4028 56.9023 76.2429 57.2219 76.0831 57.5414C75.9233 57.821 75.7635 58.1405 75.6036 58.46C75.4438 58.8993 75.284 59.3386 75.0842 59.738C74.9644 59.9776 74.8845 60.1774 74.7646 60.377C74.6447 60.5768 74.4849 60.7764 74.365 61.0161C74.2451 61.1758 74.1253 61.2957 74.0454 61.4554C73.9655 61.6152 73.8456 61.735 73.7657 61.8548C73.7258 61.9746 73.6458 62.1344 73.5659 62.2542C73.526 62.374 73.4461 62.4938 73.4061 62.6137C73.3262 62.7334 73.2463 62.8932 73.2063 63.013C73.0465 63.2527 72.9267 63.5322 72.7669 63.8118C72.6869 63.9716 72.647 64.0913 72.5671 64.2511C72.4472 64.4109 72.3673 64.5706 72.2474 64.6905C72.1676 64.8103 71.9678 64.8502 71.8079 64.7703C71.6481 64.6905 71.5682 64.4907 71.6881 64.331C71.768 64.1712 71.8479 64.0115 71.9278 63.8517C72.0077 63.7319 72.0876 63.5722 72.1676 63.4124C72.3273 63.1328 72.4472 62.8133 72.607 62.5338C72.6869 62.4139 72.7269 62.2542 72.8068 62.1344C72.8867 61.9746 72.9267 61.8548 73.0066 61.735C73.1664 61.4155 73.3662 61.1758 73.526 60.8963C73.6458 60.6965 73.7657 60.5368 73.8856 60.377C74.0055 60.2173 74.0854 60.0575 74.1653 59.9378C74.2451 59.778 74.3251 59.6182 74.405 59.4585C74.5648 59.139 74.6847 58.8195 74.8445 58.46C74.9644 58.1405 75.1242 57.821 75.284 57.5015C75.4438 57.2219 75.6036 56.9023 75.8034 56.5828C75.9632 56.2633 76.1231 55.9438 76.3228 55.6243C76.4826 55.3048 76.6824 54.9853 76.8422 54.6658C77.082 54.3463 77.2818 54.0268 77.5214 53.7073C77.7612 53.4277 78.0009 53.1481 78.2407 52.8685C78.4004 52.6689 78.6002 52.4691 78.76 52.2695C78.84 52.2295 78.9199 52.1896 78.9998 52.1896C79.0797 52.1896 79.1596 52.1896 79.2395 52.2695ZM77.6813 54.6658C77.6813 54.7057 77.6413 54.7057 77.6413 54.7457C77.6413 54.7057 77.6813 54.7057 77.6813 54.6658Z" fill="white"/>
<path fill-rule="evenodd" clip-rule="evenodd" d="M68.0431 20.9153C68.2833 21.0355 68.5637 21.1157 68.7638 21.2761C68.9641 21.3964 69.1242 21.5567 69.2444 21.7572C69.3645 21.9176 69.4446 22.1181 69.5247 22.3186C69.5647 22.519 69.6048 22.7195 69.6849 22.92C69.765 23.3209 69.805 23.762 69.845 24.1629C69.845 24.6039 69.845 25.0048 69.845 25.4459C69.845 25.887 69.805 26.2879 69.7249 26.7289C69.6449 27.0898 69.5247 27.4907 69.4446 27.8917C69.3245 28.3327 69.2044 28.7737 69.0842 29.1746C68.9241 29.5756 68.7238 29.9365 68.5236 30.3374C68.4035 30.5379 68.3233 30.6982 68.2433 30.8987C68.1632 31.0992 68.0431 31.2596 67.963 31.4601C67.8829 31.6605 67.8028 31.861 67.7227 32.0615C67.6426 32.2619 67.5225 32.4624 67.4424 32.703C67.2422 33.0638 67.042 33.4246 66.8417 33.7855C66.7616 33.986 66.6415 34.2265 66.5614 34.427C66.4413 34.6275 66.3612 34.828 66.2811 34.9883C66.1209 35.3893 65.9608 35.7501 65.7605 36.1511C65.5603 36.552 65.3601 36.953 65.1599 37.3539C64.9596 37.7549 64.7194 38.1157 64.5191 38.4766C64.319 38.8775 64.0787 39.2383 63.8785 39.6392C63.478 40.4011 62.9975 41.1628 62.597 41.9647C62.1565 42.6864 61.7962 43.4883 61.3557 44.21C60.9152 44.9718 60.3946 45.7336 59.9141 46.4954C59.7139 46.8562 59.5136 47.2572 59.3134 47.6181C59.0331 48.019 58.7528 48.3798 58.5125 48.7807C58.4324 48.8609 58.3924 48.9412 58.3524 49.0213C58.1121 49.3421 57.9119 49.7029 57.7116 50.0638C57.4714 50.4246 57.2711 50.7855 57.071 51.1463C56.8307 51.5874 56.5503 51.9883 56.2701 52.3491C56.0298 52.71 55.7494 53.0708 55.4692 53.3916C55.269 53.6321 55.1088 53.8727 54.9085 54.1133C54.7884 54.2737 54.6683 54.434 54.5882 54.5944C54.5481 54.6345 54.5482 54.6345 54.5482 54.6746C54.5081 54.7147 54.4681 54.7548 54.428 54.7949C54.1877 55.1557 53.9875 55.5166 53.7072 55.8774C53.4669 56.2383 53.1866 56.5591 52.9464 56.8798C52.7061 57.2407 52.4659 57.5614 52.1856 57.8822C52.0654 58.0425 51.9052 58.2029 51.7451 58.3633C51.5848 58.4836 51.4647 58.6439 51.3046 58.7642C50.8641 59.1652 50.4236 59.526 49.9831 59.8869C49.8229 60.0072 49.7028 60.1675 49.5426 60.2878C49.3824 60.4482 49.2623 60.5685 49.1022 60.7289C48.7818 61.0496 48.3814 61.2902 48.0209 61.5308C47.6605 61.8114 47.3001 62.0119 46.8597 62.1322C46.4592 62.2925 46.0588 62.4128 45.6183 62.4128C45.378 62.4529 45.0977 62.4128 44.8574 62.4128C44.457 62.3727 44.0165 62.3727 43.616 62.2524C43.4159 62.2123 43.2557 62.1722 43.0555 62.092C42.8552 61.9717 42.655 61.8916 42.4948 61.7312C42.1344 61.5308 41.8541 61.25 41.6138 60.8892C41.4136 60.5685 41.2534 60.2477 41.0933 59.8869C41.0933 59.8067 41.0532 59.7666 41.0132 59.6864C41.0132 59.6062 40.9731 59.526 40.9731 59.4458C40.9331 59.3656 40.9331 59.2855 40.893 59.2053C40.893 59.125 40.853 59.0449 40.853 58.9246C40.853 58.8043 40.853 58.6439 40.893 58.4836C40.893 58.2831 40.893 58.1227 40.9331 57.9222C40.9331 57.8019 41.0132 57.7619 41.0933 57.7218C41.2134 57.7218 41.3335 57.8421 41.3335 57.9624C41.3335 58.1628 41.3335 58.3633 41.3335 58.5638C41.3335 58.7241 41.2935 58.9246 41.3335 59.085C41.3736 59.2053 41.4136 59.3656 41.4537 59.4859C41.4937 59.6062 41.5338 59.6864 41.6138 59.8067C41.774 60.0874 41.9342 60.4081 42.1344 60.6486C42.2546 60.7689 42.3747 60.8892 42.4948 60.9694C42.7751 61.1298 43.0555 61.2902 43.3358 61.4105C43.576 61.4906 43.8163 61.5308 44.0966 61.5308C44.3769 61.5308 44.6572 61.5308 44.9376 61.5308C45.2178 61.5308 45.4981 61.5308 45.8185 61.4505C46.0187 61.4105 46.2189 61.3303 46.4192 61.2902C46.6194 61.21 46.8196 61.1298 47.0198 61.0496C47.2201 60.9293 47.4603 60.7689 47.6605 60.6086C47.9008 60.4482 48.101 60.2878 48.3413 60.1274C48.7017 59.7666 49.0621 59.4057 49.4625 59.085C49.7829 58.7642 50.1433 58.4836 50.5037 58.2029C50.7439 57.9624 50.9842 57.7619 51.2245 57.5213C51.4648 57.2407 51.705 56.96 51.9052 56.6793C52.0254 56.5189 52.1055 56.3986 52.2256 56.2784C52.3457 56.118 52.4258 55.9977 52.546 55.8374C52.7461 55.5968 52.9464 55.3562 53.1065 55.0755C53.2267 54.9152 53.3068 54.7548 53.4269 54.5944C53.4669 54.5143 53.547 54.4341 53.5871 54.3138C53.6271 54.2737 53.6672 54.2336 53.6672 54.1935C53.7073 54.1935 53.7073 54.1534 53.7473 54.1133C53.7873 54.0732 53.8273 54.0331 53.8273 53.9529C53.9875 53.7926 54.1077 53.5921 54.2278 53.4317C54.388 53.2713 54.5081 53.0708 54.6282 52.9105C54.7484 52.7501 54.9086 52.5897 55.0287 52.4293C55.309 52.1086 55.5493 51.7477 55.7895 51.3869L55.8296 51.3468C56.23 50.7053 56.5904 50.0638 56.9508 49.4223C57.151 49.0614 57.3913 48.7407 57.5915 48.3798C57.8318 48.0992 58.032 47.7784 58.2723 47.4576C58.3523 47.3373 58.4725 47.177 58.5526 47.0166C58.6327 46.8161 58.7528 46.6557 58.8729 46.4553C59.0732 46.0543 59.3134 45.6534 59.5937 45.2926C59.794 44.9317 60.0342 44.5709 60.2745 44.21C60.5148 43.8091 60.7149 43.4482 60.9152 43.0473C61.1554 42.6464 61.3157 42.2855 61.5559 41.9247C61.7561 41.5237 61.9563 41.1628 62.1966 40.7619C62.4369 40.4011 62.6371 40.0001 62.8774 39.5992C63.0776 39.2383 63.3178 38.8775 63.5181 38.4766C63.7583 38.1157 63.9586 37.7147 64.1988 37.3138C64.4391 36.953 64.6393 36.5921 64.8395 36.1911C65.0398 35.8303 65.1999 35.3893 65.4001 34.9883C65.5603 34.6275 65.7605 34.2666 65.9207 33.8657C66.1209 33.5049 66.3612 33.1039 66.5614 32.703C66.7616 32.3421 66.9619 31.9412 67.1221 31.5402C67.2822 31.1393 67.4825 30.7384 67.6426 30.3775C67.8429 29.9765 68.0831 29.6157 68.2833 29.2548C68.3634 29.0544 68.4435 28.894 68.4836 28.6935C68.6838 28.1723 68.8039 27.611 68.9641 27.0898C69.0442 26.8091 69.0842 26.5685 69.1242 26.2879C69.2044 26.0072 69.2044 25.7667 69.2444 25.486C69.2444 25.1251 69.2845 24.6841 69.2845 24.2832C69.2845 24.0827 69.2444 23.8822 69.2444 23.6817C69.2044 23.4813 69.2044 23.2808 69.1643 23.0803C69.0842 22.7596 69.0041 22.3987 68.884 22.1181C68.8039 21.9978 68.7638 21.9176 68.6837 21.8374C68.6437 21.7572 68.5637 21.7172 68.4836 21.6369C68.2833 21.5167 68.0431 21.4365 67.8429 21.3563C67.7227 21.2761 67.6827 21.1157 67.7227 21.0355C67.7628 20.9153 67.8429 20.8752 67.963 20.8752C67.963 20.8752 68.003 20.9153 68.0431 20.9153ZM44.8574 62.4128H44.8975C44.8574 62.4128 44.8174 62.4128 44.7773 62.4128C44.8174 62.4128 44.8174 62.4128 44.8574 62.4128Z" fill="white"/>
<path fill-rule="evenodd" clip-rule="evenodd" d="M46.9166 44.2135C46.9965 44.2934 46.9965 44.4133 46.9166 44.4932C46.7568 44.733 46.557 44.9327 46.3972 45.1325C46.1575 45.532 45.9577 45.9316 45.6781 46.3311C45.5981 46.451 45.5582 46.5309 45.4783 46.6508C45.3984 46.7307 45.3184 46.8506 45.2385 46.9304C45.1187 47.1302 44.9588 47.29 44.7991 47.4898C44.6791 47.6097 44.5593 47.7695 44.4395 47.8893C44.3595 48.0891 44.2397 48.2489 44.1198 48.4487C43.9999 48.6485 43.8801 48.8882 43.7602 49.088C43.6404 49.3277 43.5605 49.5275 43.4406 49.7672C43.3607 49.967 43.2408 50.1668 43.1609 50.3665C43.081 50.5663 43.0011 50.7661 42.9212 50.9658C42.8412 51.1656 42.8013 51.3654 42.7613 51.5652C42.6815 51.765 42.6415 51.9648 42.5616 52.2044C42.4817 52.4042 42.4018 52.644 42.3618 52.8437C42.2819 53.0834 42.2419 53.3232 42.162 53.523C42.1221 53.6029 42.0821 53.6828 42.0422 53.7227C41.9623 53.7627 41.9223 53.7627 41.8424 53.7627C41.7625 53.7227 41.7225 53.6828 41.6826 53.6428C41.6427 53.6029 41.6427 53.5629 41.6427 53.523C41.6027 53.443 41.6427 53.4031 41.6427 53.3631C41.6826 53.2832 41.6826 53.2433 41.7226 53.1633C41.8024 52.9237 41.8424 52.7239 41.9223 52.4841C42.0022 52.2444 42.0821 52.0447 42.162 51.8049C42.2419 51.5652 42.3219 51.3254 42.3618 51.1257C42.4018 50.9658 42.4417 50.846 42.5216 50.7261C42.5616 50.6462 42.6016 50.5264 42.6415 50.4065C42.7214 50.2067 42.8412 50.0069 42.9212 49.8072C43.041 49.6074 43.1609 49.4076 43.2408 49.1679C43.3607 48.9682 43.4805 48.7684 43.6004 48.5286C43.6404 48.4487 43.7202 48.3289 43.8001 48.209C43.8401 48.1291 43.8801 48.0092 43.96 47.9293C44.0399 47.7296 44.1598 47.5697 44.2796 47.4499C44.3995 47.29 44.5194 47.1702 44.6392 47.0503C44.8789 46.7307 45.1187 46.451 45.3184 46.1713C45.3184 46.1713 45.3184 46.1713 45.2785 46.2113C45.3184 46.1713 45.3184 46.1713 45.3584 46.1313C45.4383 45.9715 45.5582 45.8117 45.638 45.6919C45.718 45.532 45.7979 45.3722 45.9177 45.2124C45.9577 45.1325 45.9977 45.0526 46.0376 44.9726C46.1175 44.8927 46.1575 44.8129 46.2374 44.733C46.3573 44.5731 46.5171 44.4133 46.637 44.2535C46.6769 44.2135 46.7169 44.1736 46.7967 44.1736C46.8367 44.1736 46.8766 44.2135 46.9166 44.2135Z" fill="white"/>
<path fill-rule="evenodd" clip-rule="evenodd" d="M65.1176 20.2759C65.5165 20.3159 65.8755 20.436 66.2744 20.516C66.3941 20.556 66.4739 20.676 66.434 20.7961C66.434 20.9162 66.3143 20.9962 66.1947 20.9562C65.9952 20.9162 65.7558 20.8361 65.5563 20.7961C65.3569 20.7561 65.1574 20.7561 64.958 20.716C64.7186 20.716 64.4792 20.716 64.2399 20.7561C63.9606 20.7961 63.6814 20.9162 63.4021 21.0362C63.0032 21.2762 62.6442 21.5964 62.2453 21.8765C61.8463 22.1566 61.4474 22.4767 61.0485 22.7968C60.8091 23.0369 60.5698 23.237 60.3304 23.477C60.091 23.7572 59.8517 24.0372 59.6123 24.3174C59.4528 24.5974 59.2932 24.8775 59.1337 25.1176C58.9342 25.3977 58.7347 25.6778 58.5752 25.9579C58.256 26.5581 57.897 27.1583 57.498 27.7585C57.538 27.7185 57.538 27.7185 57.5778 27.6785C57.4581 27.8386 57.3784 27.9586 57.2986 28.1186C57.1789 28.2787 57.0991 28.4388 57.0194 28.5988C56.8199 28.9189 56.6603 29.239 56.5007 29.5592C56.4209 29.7192 56.3412 29.8392 56.2614 29.9993C56.1816 30.1594 56.0619 30.2794 55.9821 30.4395C55.8225 30.7596 55.6629 31.0797 55.5034 31.3998C55.3438 31.7599 55.1843 32.08 55.0247 32.4001C54.905 32.6002 54.8252 32.8003 54.7454 32.9603C54.6257 33.2004 54.5061 33.4005 54.3864 33.5605C54.2667 33.7206 53.9875 33.7606 53.8279 33.6806C53.7481 33.6406 53.6684 33.5205 53.6285 33.4405C53.5885 33.3205 53.5885 33.2004 53.6285 33.0804C53.788 32.7203 53.9476 32.4001 54.1071 32.04C54.2268 31.7199 54.3864 31.4398 54.546 31.1197C54.7056 30.7996 54.8651 30.4795 55.0247 30.1994C55.1843 29.8793 55.3438 29.5992 55.5034 29.279C55.7428 28.8789 55.9821 28.4788 56.2215 28.0786C56.3412 27.9186 56.4608 27.7185 56.5805 27.5184C56.7002 27.3184 56.8598 27.1183 56.9794 26.9182C57.2587 26.4781 57.538 26.0379 57.8172 25.5978C57.9767 25.3577 58.1363 25.1176 58.3358 24.8775C58.4953 24.6374 58.6549 24.4374 58.8145 24.1973C58.8943 24.0372 59.0139 23.8772 59.1337 23.7572C59.2134 23.5971 59.373 23.437 59.4927 23.317C59.732 23.0369 60.0512 22.7568 60.3304 22.5167C60.6096 22.2766 60.8889 22.0366 61.1681 21.8364C61.4873 21.6364 61.8064 21.4363 62.0857 21.2362C62.2453 21.1562 62.3649 21.0362 62.5245 20.9562C62.6442 20.8761 62.8038 20.7561 62.9633 20.676C63.2825 20.556 63.6016 20.436 63.9606 20.316C64.1202 20.2759 64.3197 20.2759 64.5191 20.2759C64.559 20.2759 64.559 20.2759 64.559 20.2759C64.7585 20.2759 64.958 20.2759 65.1176 20.2759Z" fill="white"/>
<path fill-rule="evenodd" clip-rule="evenodd" d="M52.0576 34.8148C52.1378 34.895 52.1779 34.9352 52.298 35.0155C52.4583 35.1359 52.6586 35.2564 52.8589 35.3769C53.0993 35.4973 53.3397 35.6177 53.58 35.7784C53.7003 35.8586 53.8204 35.939 53.9807 36.0594C54.0608 36.1397 54.181 36.22 54.3012 36.3003C54.5015 36.4609 54.7419 36.6215 54.9422 36.7821C55.1425 36.9026 55.3829 37.0632 55.5832 37.1836C55.8236 37.304 56.1041 37.4245 56.3444 37.545C56.5848 37.7056 56.7851 37.826 57.0255 37.9866C57.3059 38.1472 57.5463 38.3078 57.7467 38.5086C58.0671 38.7896 58.3476 39.0305 58.628 39.3116C58.9085 39.5525 59.229 39.7934 59.5094 39.9941C59.6697 40.0744 59.8299 40.1547 59.9501 40.2351C60.1505 40.3555 60.3107 40.4358 60.511 40.5161C60.5911 40.5563 60.6312 40.6767 60.5911 40.757C60.5511 40.8373 60.4308 40.8774 60.3508 40.8373C60.1905 40.757 60.0703 40.7168 59.91 40.6365C59.7899 40.5563 59.6697 40.5161 59.5495 40.4358C59.3091 40.3153 59.0687 40.1146 58.8684 39.954C58.628 39.7934 58.3876 39.6328 58.1873 39.432C57.987 39.2714 57.7867 39.1109 57.5463 38.9503C57.4261 38.8298 57.2659 38.7093 57.1457 38.629C56.6649 38.3078 56.1842 38.0669 55.7034 37.826C55.463 37.7056 55.1826 37.5851 54.9422 37.4646C54.8621 37.3844 54.7419 37.3442 54.6217 37.2639C54.5015 37.1836 54.3813 37.0632 54.2211 36.9829C54.0608 36.8624 53.9006 36.7419 53.7403 36.6215C53.6602 36.5813 53.58 36.5011 53.5 36.4609C53.3397 36.3405 53.1794 36.2602 53.0592 36.1798C52.899 36.0996 52.7387 36.0192 52.5785 35.939C52.4182 35.8586 52.2579 35.7784 52.0977 35.698C51.9375 35.6177 51.7371 35.4973 51.5769 35.3367C51.4167 35.2163 51.4167 34.9753 51.5368 34.8549C51.617 34.7746 51.6971 34.7344 51.8173 34.7344C51.8974 34.7344 51.9775 34.7746 52.0576 34.8148Z" fill="white"/>
<path fill-rule="evenodd" clip-rule="evenodd" d="M47.4179 41.0329C47.6182 41.1538 47.8185 41.2746 47.9788 41.4357C48.1791 41.5565 48.3394 41.6774 48.4996 41.7982C48.8201 42.0399 49.1406 42.2815 49.4211 42.5231C49.7816 42.8051 50.1021 43.0468 50.4226 43.3287C50.5428 43.4495 50.7031 43.6106 50.8232 43.7315C50.9835 43.8523 51.1438 43.9731 51.3041 44.094C51.6245 44.3356 51.9851 44.5773 52.3056 44.819C52.6662 45.0606 52.9867 45.3426 53.3072 45.6245C53.6277 45.8662 53.9082 46.1481 54.1886 46.43C54.3488 46.5912 54.5091 46.7119 54.6694 46.8731C54.8296 46.9939 54.9899 47.1148 55.1501 47.2355C55.3504 47.4369 55.5507 47.598 55.7511 47.7994C55.9113 47.9203 55.9113 48.1216 55.7911 48.2828C55.6709 48.4036 55.4706 48.4439 55.3103 48.2828C55.1501 48.1619 54.9899 48.0411 54.8296 47.88C54.6694 47.7592 54.5491 47.6786 54.3889 47.5578C54.0684 47.3161 53.7879 47.0342 53.5075 46.7925C53.2271 46.5508 52.9466 46.3092 52.6662 46.0675C52.3457 45.8258 52.0252 45.6245 51.7047 45.3828C51.7447 45.3828 51.7447 45.4231 51.7848 45.4231C51.7447 45.4231 51.7447 45.3828 51.7047 45.3828C51.7047 45.3828 51.7047 45.3828 51.7047 45.3426C51.7047 45.3828 51.7047 45.3828 51.7047 45.3828C51.6646 45.3426 51.6245 45.3023 51.5444 45.262C51.2239 45.0606 50.8633 44.819 50.5428 44.5773C50.4226 44.4967 50.3024 44.3759 50.1422 44.2551C50.022 44.1342 49.8617 44.0134 49.7015 43.8926C49.4211 43.651 49.1006 43.4092 48.8201 43.1676C48.5397 42.9662 48.2191 42.7649 47.9387 42.5635C47.9788 42.5635 47.9788 42.6037 47.9788 42.6037C47.9788 42.5635 47.9788 42.5635 47.9387 42.5635L47.8986 42.5231L47.9387 42.5635C47.8586 42.5231 47.8185 42.4829 47.7384 42.4426C47.5782 42.3218 47.4179 42.201 47.2576 42.0801C47.1374 41.9996 47.0173 41.919 46.897 41.8385C46.7368 41.6774 46.6967 41.4357 46.7769 41.2343C46.857 41.0732 47.0573 40.9524 47.2176 40.9524C47.2977 40.9524 47.3778 40.9927 47.4179 41.0329Z" fill="white"/>
<path fill-rule="evenodd" clip-rule="evenodd" d="M48.9994 34.8842C49.0792 34.8842 49.1191 34.8842 49.1989 34.8842C49.3186 34.9248 49.4383 35.0059 49.558 35.087C49.5979 35.1276 49.6777 35.2087 49.7176 35.2898C49.7575 35.3303 49.7575 35.4114 49.7974 35.452C49.8373 35.4926 49.8373 35.5331 49.8373 35.5331C49.8772 35.6954 49.9172 35.8576 49.9172 36.0198C49.9172 36.3443 49.7974 36.6281 49.6777 36.912C49.6378 37.1148 49.558 37.3175 49.4782 37.5609C49.4383 37.8042 49.3186 38.007 49.2388 38.2503C49.159 38.4125 49.0792 38.6153 48.9595 38.7776C48.8398 38.9803 48.6802 39.1831 48.5605 39.3859C48.4009 39.5481 48.2413 39.7103 48.0418 39.8725C47.8423 39.9942 47.6428 40.0753 47.4034 40.1564C47.1241 40.2375 46.8049 40.2781 46.5655 40.0753C46.4458 39.9537 46.366 39.832 46.326 39.6697C46.2862 39.5481 46.2862 39.4264 46.2862 39.3048C46.2463 39.0208 46.2862 38.7776 46.2862 38.5342C46.326 38.3314 46.326 38.1287 46.4059 37.9259C46.4856 37.4392 46.6453 36.9931 46.8847 36.5875C47.164 36.1415 47.4832 35.7765 47.8822 35.452C48.0817 35.2898 48.2812 35.1276 48.5206 35.0059C48.6403 34.9248 48.7999 34.8842 48.9595 34.8842H48.9994Z" fill="white"/>
<path fill-rule="evenodd" clip-rule="evenodd" d="M95.5219 64.5562C95.8461 64.7576 96.1703 64.9993 96.4945 65.2409C96.6972 65.402 96.8998 65.5228 97.0619 65.6839C97.224 65.845 97.3456 65.9659 97.5077 66.127C97.8319 66.3686 98.1967 66.57 98.5209 66.7714C98.683 66.8922 98.8451 67.0131 99.0072 67.1339C99.1693 67.2547 99.3315 67.3353 99.4936 67.4561C99.6962 67.577 99.7367 67.8186 99.6151 67.9797C99.4936 68.1408 99.2909 68.2214 99.0883 68.1005C98.8857 67.9797 98.683 67.8186 98.4804 67.6978C98.2372 67.4964 97.9941 67.3756 97.7509 67.2145C97.5483 67.0534 97.3051 66.9325 97.1024 66.7714C96.8593 66.6103 96.6566 66.4089 96.454 66.2075C96.2108 66.0464 96.0082 65.8853 95.765 65.7645C95.6839 65.6839 95.5624 65.6034 95.4408 65.5228C95.3192 65.4423 95.1976 65.3617 95.0761 65.2812C94.8734 65.12 94.7923 64.8784 94.9139 64.677C94.995 64.5562 95.1571 64.4756 95.3192 64.4756C95.4003 64.4756 95.4813 64.4757 95.5219 64.5562Z" fill="black"/>
<path fill-rule="evenodd" clip-rule="evenodd" d="M94.7293 66.354C94.8896 66.4346 95.0098 66.5554 95.1301 66.6359C95.2905 66.7567 95.4508 66.8372 95.571 66.958C95.8517 67.1594 96.1723 67.3607 96.493 67.5218C96.7736 67.6829 97.0542 67.9245 97.3348 68.1258C97.6555 68.3272 97.9762 68.4882 98.337 68.6493C98.4172 68.6895 98.4973 68.8103 98.4973 68.9312C98.5374 69.0519 98.4973 69.1727 98.4572 69.2533C98.3771 69.3741 98.2969 69.4143 98.1767 69.4546C98.0564 69.4948 97.9762 69.4546 97.8559 69.3741C97.4952 69.213 97.1745 69.052 96.8538 68.8506C96.5732 68.6895 96.2926 68.4882 95.9719 68.2869C95.8115 68.2063 95.6512 68.1258 95.4909 68.0453C95.3706 67.9647 95.2103 67.8439 95.09 67.7634C94.8094 67.562 94.4887 67.401 94.2081 67.1594C94.168 67.1191 94.168 67.1191 94.128 67.0789C94.0478 67.0386 94.0077 66.958 94.0077 66.8775C93.9676 66.7165 94.0077 66.5957 94.0478 66.4749C94.168 66.354 94.3284 66.2735 94.4887 66.2735C94.5689 66.2735 94.649 66.2735 94.7293 66.354Z" fill="black"/>
<path fill-rule="evenodd" clip-rule="evenodd" d="M94.0374 68.0834C94.078 68.124 94.1592 68.2049 94.1998 68.2454C94.281 68.3263 94.3622 68.4073 94.4841 68.4882C94.6465 68.6501 94.8496 68.812 95.0526 68.9334C95.2963 69.0548 95.4993 69.1762 95.7429 69.3381C95.946 69.5 96.1896 69.6619 96.3927 69.8237C96.6363 70.0261 96.8393 70.2689 97.083 70.4308C97.0424 70.4308 97.0018 70.3903 97.0018 70.3903C97.1236 70.4713 97.2454 70.5927 97.4078 70.7141C97.4891 70.795 97.4891 70.9165 97.4891 71.0379C97.4891 71.1189 97.4485 71.2403 97.3673 71.3212C97.286 71.4021 97.1642 71.4426 97.083 71.4426C96.9611 71.4426 96.8393 71.3616 96.7581 71.2807C96.6769 71.2403 96.5957 71.1593 96.5145 71.0783C96.3114 70.9165 96.1084 70.7141 95.9054 70.5522C95.7023 70.3903 95.4993 70.2285 95.2556 70.0666C95.012 69.9452 94.7683 69.8237 94.5653 69.6619C94.3217 69.5404 94.1186 69.3786 93.875 69.2167C93.7532 69.1357 93.6313 69.0143 93.5095 68.9334C93.3876 68.7715 93.1846 68.6501 93.1846 68.4477C93.144 68.3263 93.144 68.2049 93.2253 68.0834C93.3065 68.0025 93.3876 67.9216 93.5095 67.9216C93.5501 67.9216 93.5907 67.9216 93.6313 67.9216C93.7532 67.9216 93.9155 67.962 94.0374 68.0834Z" fill="black"/>
<path fill-rule="evenodd" clip-rule="evenodd" d="M92.5931 69.6448C92.7956 69.7242 92.9171 69.8433 93.0791 69.9624C93.2006 70.0419 93.322 70.1213 93.4435 70.2007C93.7675 70.3993 94.051 70.6376 94.3344 70.8362C94.6584 71.0347 94.9418 71.1936 95.2658 71.3922C95.4277 71.4716 95.5897 71.551 95.7112 71.6701C95.8732 71.7893 96.0352 71.9084 96.1972 72.0276C96.2781 72.107 96.3591 72.1865 96.3996 72.3453C96.4401 72.4644 96.3996 72.5836 96.3186 72.7027C96.2781 72.7822 96.1566 72.8616 96.0352 72.9013C95.9137 72.941 95.7517 72.9013 95.6707 72.8219C95.5088 72.7027 95.3873 72.5836 95.2253 72.4644C95.0633 72.385 94.9013 72.2658 94.7393 72.1865C94.4559 72.0276 94.1319 71.8687 93.8484 71.6701C93.5245 71.4716 93.2411 71.273 92.9576 71.0744C92.7956 70.995 92.6741 70.9156 92.5526 70.8362C92.3502 70.6773 92.1477 70.5185 92.0262 70.3199C91.9452 70.161 91.9857 70.0022 92.0667 69.8433C92.1477 69.7242 92.3096 69.6448 92.4311 69.6448C92.5122 69.6448 92.5526 69.6448 92.5931 69.6448Z" fill="black"/>
<path fill-rule="evenodd" clip-rule="evenodd" d="M91.9322 71.7125C91.9725 71.7525 92.0531 71.7925 92.0934 71.8325C92.2546 71.9526 92.4157 72.0726 92.5366 72.1527C92.8992 72.3927 93.2215 72.5928 93.5841 72.8328C93.9064 73.0329 94.2288 73.313 94.5511 73.5531C94.7123 73.6731 94.8734 73.7531 95.0346 73.8731C95.1957 73.9532 95.3972 74.0732 95.5583 74.1932C95.7598 74.3533 95.8404 74.6334 95.7195 74.8334C95.5583 75.0335 95.2763 75.1135 95.0749 74.9935C94.7123 74.7534 94.3899 74.5534 94.0676 74.3533C93.705 74.1532 93.3827 73.8731 93.0603 73.6731C92.6977 73.473 92.3351 73.273 92.0128 73.0329C91.8516 72.9529 91.7308 72.8728 91.5696 72.7528C91.4084 72.6328 91.207 72.4727 91.1264 72.2727C91.0861 72.1527 91.0459 72.0326 91.0861 71.9125C91.1264 71.7925 91.2876 71.6725 91.4084 71.6325C91.489 71.5925 91.5293 71.5925 91.5696 71.5925C91.6905 71.5925 91.8114 71.6325 91.9322 71.7125Z" fill="black"/>
<path fill-rule="evenodd" clip-rule="evenodd" d="M90.5145 73.3905C90.7136 73.3905 90.9525 73.5513 91.1516 73.7121C91.3109 73.8327 91.4303 73.9533 91.5896 74.1141C91.7489 74.2347 91.9082 74.3553 92.0674 74.4759C92.2665 74.5965 92.4656 74.7171 92.6647 74.8376C92.8638 74.918 93.0231 75.0386 93.2222 75.1592C93.3815 75.32 93.5408 75.4406 93.7399 75.521C93.8593 75.6014 93.939 75.6416 94.0584 75.6416C94.2973 75.7622 94.4168 76.0034 94.3372 76.2446C94.2973 76.4858 94.0186 76.6868 93.7797 76.5662C93.5408 76.4858 93.3417 76.4054 93.1426 76.325C93.0231 76.2446 92.9036 76.124 92.7444 76.0436C92.4656 75.8426 92.1471 75.6818 91.8285 75.4808C91.6692 75.4004 91.51 75.32 91.3507 75.1994C91.1914 75.0788 91.0719 74.9984 90.9127 74.8778C90.7932 74.7572 90.6737 74.6769 90.5543 74.5563C90.4746 74.5161 90.4348 74.4759 90.3552 74.3955C90.2357 74.3151 90.1561 74.2347 90.0765 74.1141C89.9968 73.9533 89.9968 73.7523 90.0765 73.6317C90.1959 73.4709 90.3154 73.3905 90.5145 73.3905Z" fill="black"/>
<path fill-rule="evenodd" clip-rule="evenodd" d="M82.0359 71.6675C82.0359 71.8574 81.9093 71.984 81.7194 71.984C81.5294 71.984 81.4028 71.7941 81.4028 71.6675C81.4028 71.4776 81.5294 71.351 81.7194 71.351C81.9093 71.351 82.0359 71.4776 82.0359 71.6675Z" fill="black"/>
<path fill-rule="evenodd" clip-rule="evenodd" d="M77.1039 68.596C77.1835 68.6361 77.263 68.6762 77.3425 68.7162C77.422 68.7162 77.5412 68.7563 77.6207 68.7963C77.7797 68.8765 77.9784 68.9566 78.1772 69.0367C78.1375 69.0367 78.1375 69.0367 78.0977 69.0367C78.1375 69.0367 78.1375 69.0367 78.1772 69.0367C78.1772 69.0367 78.1772 69.0367 78.217 69.0768C78.1772 69.0768 78.1772 69.0367 78.1772 69.0367C78.217 69.0768 78.217 69.0768 78.2567 69.0768H78.217C78.2965 69.1169 78.376 69.1169 78.4157 69.157C78.4952 69.197 78.5747 69.2772 78.6542 69.3173C78.7735 69.3974 78.9325 69.4775 79.0517 69.5577C79.3697 69.7581 79.6878 69.9584 79.966 70.1587C80.284 70.319 80.5623 70.5194 80.8405 70.6797C81.1585 70.84 81.4368 71.0003 81.715 71.1605C81.9138 71.2407 82.1125 71.3208 82.2716 71.4411C82.3511 71.4811 82.4306 71.5612 82.4306 71.6414C82.4306 71.7215 82.4306 71.8016 82.3908 71.8818C82.3511 71.9619 82.2716 72.002 82.1921 72.0421C82.1125 72.0421 82.0331 72.0421 81.9536 72.002C81.6355 71.8417 81.3175 71.6814 80.9996 71.5211C80.6815 71.3609 80.4033 71.2006 80.125 71.0403C79.489 70.6797 78.9325 70.319 78.3363 69.9584C78.2567 69.9184 78.1772 69.8783 78.0977 69.8382C78.058 69.7981 77.9784 69.7581 77.9388 69.7581C77.74 69.6779 77.5809 69.5978 77.3822 69.5176C77.1834 69.4375 76.9847 69.3573 76.7859 69.2772C76.6667 69.197 76.5872 68.9967 76.6269 68.8364C76.6667 68.6762 76.8257 68.596 76.9847 68.596C77.0245 68.596 77.0642 68.596 77.1039 68.596Z" fill="black"/>
<path fill-rule="evenodd" clip-rule="evenodd" d="M12.7162 15.5665C12.7963 15.6065 12.8765 15.6866 12.9565 15.7266C14.0382 16.4072 15.1198 17.1278 16.2014 17.8484C16.9625 18.2888 17.7236 18.6892 18.4447 19.1696C19.2859 19.65 20.0871 20.1704 20.9284 20.6509C22.4907 21.5716 24.1331 22.4524 25.6954 23.4533C26.4565 23.9737 27.1776 24.4542 27.9387 24.9746C28.6197 25.375 29.2206 25.8554 29.9016 26.2958C30.2621 26.536 30.6627 26.7362 31.1435 26.8163C31.2636 26.8163 31.3438 26.7362 31.4239 26.6161C31.4639 26.1757 31.3438 25.6552 31.2236 25.2149C31.1034 24.6944 30.9833 24.214 30.9031 23.6936C30.823 23.2531 30.7429 22.7727 30.783 22.3323C30.783 22.0521 30.863 21.7718 31.0233 21.5717C31.1836 21.3715 31.5441 21.4916 31.7444 21.5717C31.8245 21.6117 31.9046 21.6918 31.9847 21.7318C32.2251 21.892 32.4654 22.0521 32.7058 22.2923C32.7058 22.2923 32.7458 22.3323 32.7859 22.3723C33.0663 22.5725 33.3467 22.7327 33.5871 22.9729C34.0277 23.3332 34.4283 23.6936 34.8289 24.0939C35.4298 24.6944 36.0307 25.335 36.6316 25.9355C37.2325 26.536 37.8735 27.0965 38.4743 27.697C39.0752 28.2975 39.636 28.898 40.2369 29.4986C40.4773 29.6987 40.7176 29.8989 40.9981 30.0991C41.1984 30.2992 41.4387 30.4994 41.599 30.7397C41.9595 31.14 42.28 31.5804 42.5603 32.0608C42.6806 32.261 42.7606 32.4612 42.8007 32.7013C42.7606 32.7414 42.7606 32.7814 42.7606 32.8214C42.6004 32.8615 42.4803 32.8214 42.3601 32.7013C41.9595 32.3811 41.5589 32.0208 41.1984 31.6605C40.9179 31.3802 40.6375 31.0599 40.3571 30.7797C39.7963 30.2192 39.2354 29.6187 38.6346 29.0582C38.0738 28.5377 37.5529 28.0173 36.9921 27.4568C36.5114 26.9764 36.0307 26.4559 35.5099 25.9755C35.1895 25.7353 34.9091 25.4951 34.5886 25.2549C34.5485 25.2549 34.5085 25.2149 34.4684 25.2149C34.3883 25.2149 34.3482 25.2149 34.2681 25.2149C34.1079 25.1348 33.9476 24.9746 33.7473 24.9346C33.5871 24.9746 33.507 25.1348 33.4268 25.2949C33.3467 25.6952 33.4268 26.0956 33.4669 26.4959C33.547 26.8963 33.6271 27.3367 33.7073 27.7371C33.7874 28.1374 33.9076 28.5377 33.9476 28.9781C33.9876 29.1383 33.9876 29.3384 33.9876 29.4986C33.9876 29.6987 33.9476 29.939 33.7874 30.0591C33.7073 30.0991 33.5871 30.0991 33.4669 30.0991C33.2666 30.0991 33.1064 30.0591 32.9061 29.979C32.4254 29.8189 31.9847 29.5386 31.5441 29.2584C31.1836 29.0182 30.863 28.7779 30.5025 28.5378C29.7815 28.0173 29.0203 27.4968 28.2592 27.0164C27.7384 26.6961 27.2577 26.3358 26.7369 26.0156C25.2147 25.0947 23.6524 24.254 22.09 23.3332C21.2889 22.8528 20.5278 22.3723 19.7266 21.892C18.8854 21.4115 18.0842 20.9711 17.2829 20.4507C16.9625 20.2105 16.602 20.0103 16.2815 19.8102C15.7607 19.4498 15.1999 19.1696 14.6791 18.8493C14.4387 18.7292 14.2384 18.569 14.0382 18.3689C13.5975 17.8885 13.1969 17.368 12.8364 16.8075C12.7162 16.6474 12.6361 16.4873 12.5159 16.3271C12.3957 16.0869 12.2755 15.8067 12.2355 15.5665C12.2355 15.4864 12.2755 15.4463 12.2755 15.4063C12.3156 15.4063 12.3156 15.4063 12.3557 15.4063C12.5159 15.4063 12.6361 15.4463 12.7162 15.5665Z" fill="black"/>
<path fill-rule="evenodd" clip-rule="evenodd" d="M0.449919 23.8718C1.17167 24.1128 1.85336 24.4341 2.5351 24.7955C3.17665 25.1169 3.81826 25.5185 4.41973 25.88C5.14155 26.2816 5.82323 26.6832 6.54505 27.0447C6.86582 27.2053 7.18666 27.366 7.50743 27.5267C7.86834 27.7275 8.26932 27.9283 8.6703 27.9684C8.8708 27.9684 9.07129 27.9283 9.1515 27.7676C9.19163 27.6472 9.19163 27.5267 9.23171 27.4062C9.23171 27.2857 9.27184 27.1652 9.35199 27.0849C9.39213 27.0045 9.59262 27.0447 9.7129 27.0849C9.79311 27.0849 9.87331 27.1652 9.95352 27.2053C10.0738 27.2455 10.1941 27.2857 10.2743 27.3258C10.3946 27.366 10.4748 27.4062 10.555 27.4865C10.7956 27.5668 10.9961 27.7275 11.1966 27.9283C11.9585 28.3701 12.7605 28.8119 13.5224 29.2939C13.9234 29.5348 14.2842 29.7758 14.6452 30.0168C15.6877 30.6594 16.7705 31.1816 17.7729 31.8242C18.3343 32.1857 18.7754 32.7881 19.1363 33.3504C19.2165 33.4709 19.2967 33.5914 19.3769 33.752C19.4972 33.9127 19.5373 34.1135 19.5774 34.2741C19.5774 34.3143 19.5774 34.3947 19.5774 34.4348C19.417 34.4348 19.2967 34.3947 19.2165 34.2741C18.9358 34.1135 18.6551 33.9127 18.3744 33.7118C17.8932 33.4307 17.372 33.1496 16.8908 32.8283C16.4096 32.5471 15.9684 32.2258 15.4873 31.9447C15.0061 31.6635 14.5249 31.4226 14.0437 31.1414C13.6026 30.9004 13.1615 30.6193 12.7204 30.4185C12.6803 30.4185 12.6001 30.4586 12.5199 30.4185C12.4397 30.3783 12.3996 30.3381 12.3595 30.3381C12.2392 30.2979 12.159 30.2177 12.0387 30.2177C11.9585 30.1775 11.8783 30.1373 11.758 30.0971C11.6778 30.057 11.5976 29.9766 11.5174 29.9766C11.3169 30.057 11.3169 30.4185 11.1565 30.5389C11.0763 30.6193 10.9159 30.6193 10.7956 30.6193C10.6352 30.6193 10.5149 30.6193 10.3946 30.5791C10.1139 30.5389 9.87332 30.4185 9.63269 30.3381C8.8708 29.9766 8.10891 29.575 7.34701 29.1332C6.58512 28.6914 5.82323 28.2496 5.10148 27.8078C4.37966 27.366 3.57769 27.0045 2.8158 26.6431C2.57517 26.5627 2.29447 26.4423 2.05391 26.3619C1.89349 26.2414 1.73307 26.1611 1.61279 26.0004C1.29202 25.6792 0.971182 25.2775 0.730618 24.8759C0.610272 24.6751 0.489991 24.4743 0.369709 24.2332C0.329573 24.1529 0.249428 23.8718 0.409783 23.8718H0.449919ZM13.6026 29.334C13.6026 29.334 13.5625 29.2939 13.5224 29.2939C13.4823 29.2537 13.4421 29.2537 13.4021 29.2136C13.4823 29.2537 13.5224 29.2939 13.6026 29.334Z" fill="black"/>
<path fill-rule="evenodd" clip-rule="evenodd" d="M10.4187 0.688144C10.6592 0.808426 10.8597 0.968781 11.0601 1.16915C11.8217 1.65021 12.5833 2.17128 13.3449 2.69236C14.5474 3.41386 15.7499 4.09529 16.9525 4.81679C17.5939 5.21765 18.1951 5.61844 18.8766 5.93915C19.1973 6.09944 19.5179 6.21972 19.8386 6.38008C20.2394 6.54037 20.6002 6.66065 21.0411 6.70073C21.2015 6.70073 21.4019 6.66065 21.5623 6.58044C21.7627 6.54037 21.8429 6.38008 21.9631 6.21972C22.0433 6.09944 22.0834 5.97922 22.1636 5.81887C22.2437 5.69865 22.3239 5.53829 22.4041 5.41801C22.4842 5.25772 22.5644 5.13744 22.6846 5.05729C22.845 4.89694 23.0855 4.89694 23.2859 4.93701C23.4463 4.97715 23.6066 5.05729 23.7268 5.13744C23.8471 5.21765 23.9674 5.29779 24.0876 5.37794C24.2479 5.49822 24.4083 5.61844 24.5686 5.73872C24.8893 5.93915 25.21 6.21972 25.5306 6.46022C26.172 6.9813 26.8134 7.50237 27.4146 8.10366C28.0159 8.6648 28.537 9.26609 29.1383 9.82723C29.2986 9.98759 29.459 10.1479 29.5792 10.3483C29.7796 10.5888 29.9801 10.8694 30.0602 11.1901C30.1404 11.2702 30.1404 11.3504 30.1003 11.4306C29.9801 11.5107 29.6995 11.1901 29.6594 11.15C29.3387 10.8694 29.0581 10.5487 28.7775 10.2281C28.4168 9.86731 28.0159 9.50659 27.6551 9.14581C26.9336 8.50451 26.172 7.86316 25.3302 7.34208C25.1298 7.2218 24.9294 7.10158 24.6488 7.02137C24.1678 7.06144 23.8872 7.74287 23.7268 8.14373C23.6466 8.34416 23.5665 8.54459 23.4463 8.74501C23.1256 9.10573 22.4842 8.98551 22.0834 8.86523C21.923 8.82516 21.7226 8.74501 21.5222 8.6648C21.3218 8.58466 21.1214 8.50451 20.8808 8.4243C20.48 8.22388 20.0791 8.02351 19.7184 7.78295C18.9567 7.38215 18.2352 6.90115 17.5137 6.46022C16.712 5.97922 15.9504 5.53829 15.1888 5.09737C14.7078 4.81679 14.2669 4.53622 13.7858 4.25565C13.3849 3.97501 12.9842 3.69443 12.5432 3.49401C12.5031 3.53414 12.5031 3.53414 12.463 3.53414C12.3829 3.57422 12.2626 3.53414 12.1824 3.49401C12.0221 3.37379 11.8217 3.25351 11.7014 3.09321C11.3006 2.73243 10.9799 2.2915 10.6993 1.85057C10.5389 1.61007 10.4187 1.3295 10.2984 1.089C10.2984 1.00885 10.1381 0.648071 10.2984 0.648071C10.3385 0.648071 10.3786 0.688144 10.4187 0.688144Z" fill="black"/>
</svg>
