<svg width="5" height="16" viewBox="0 0 5 16" fill="none" xmlns="http://www.w3.org/2000/svg">
<path d="M3.97266 0.539062C4.36198 0.928385 4.55664 1.3776 4.55664 1.88672C4.55664 2.42578 4.36198 2.875 3.97266 3.23437C3.61328 3.6237 3.16406 3.81836 2.625 3.81836C2.08594 3.81836 1.62174 3.6237 1.23242 3.23437C0.873047 2.875 0.693359 2.42578 0.693359 1.88672C0.693359 1.3776 0.873047 0.928385 1.23242 0.539062C1.62174 0.179687 2.08594 -5.64492e-07 2.625 -5.40928e-07C3.16406 -5.17365e-07 3.61328 0.179687 3.97266 0.539062ZM3.97266 12.0391C4.36198 12.4284 4.55664 12.8776 4.55664 13.3867C4.55664 13.9258 4.36198 14.375 3.97266 14.7344C3.61328 15.1237 3.16406 15.3184 2.625 15.3184C2.08594 15.3184 1.62174 15.1237 1.23242 14.7344C0.873046 14.375 0.693359 13.9258 0.693359 13.3867C0.693359 12.8776 0.873046 12.4284 1.23242 12.0391C1.62174 11.6797 2.08594 11.5 2.625 11.5C3.16406 11.5 3.61328 11.6797 3.97266 12.0391ZM3.97266 6.28906C4.36198 6.67838 4.55664 7.1276 4.55664 7.63672C4.55664 8.17578 4.36198 8.625 3.97266 8.98437C3.61328 9.3737 3.16406 9.56836 2.625 9.56836C2.08594 9.56836 1.62174 9.3737 1.23242 8.98437C0.873046 8.625 0.693359 8.17578 0.693359 7.63672C0.693359 7.1276 0.873047 6.67838 1.23242 6.28906C1.62174 5.92969 2.08594 5.75 2.625 5.75C3.16406 5.75 3.61328 5.92969 3.97266 6.28906Z" fill="#414141"/>
</svg>
