<svg width="104" height="68" viewBox="0 0 104 68" fill="none" xmlns="http://www.w3.org/2000/svg">
<path fill-rule="evenodd" clip-rule="evenodd" d="M14.4894 16.8372C13.172 17.0034 12.0196 17.0034 10.867 17.5023C9.87912 17.8349 8.89125 18.1676 7.90339 18.6665C7.40934 18.8327 7.08005 18.9991 6.586 19.3318C6.09219 19.498 5.7629 19.8306 5.43361 20.163C4.61027 20.8284 3.78717 21.3272 3.12836 22.1587C2.46978 22.8238 1.97597 23.6553 1.64668 24.4868C1.15263 25.4846 0.823343 26.4825 0.494055 27.4803C0.329532 28.3118 0.164768 29.3095 0.000244141 30.141C0.000244141 30.8061 0.164768 31.4714 0.164768 32.1365C0.329532 32.968 0.329532 33.7995 0.65882 34.631C0.823343 35.1299 1.15263 35.7952 1.31739 36.2941C1.81121 37.458 2.63455 38.456 3.45789 39.4537C3.78717 39.7863 4.11646 39.9525 4.44575 40.2852C4.77504 40.6176 5.10432 40.7841 5.59814 40.9503C6.09219 41.2829 6.75076 41.4491 7.24481 41.6156C7.90339 41.7818 8.3972 41.7818 9.05578 41.7818C9.71435 41.7818 10.5377 41.6156 11.1963 41.6156C11.5256 41.4491 11.8548 41.4491 12.1841 41.2829C13.9953 40.9503 14.9832 38.9548 14.4894 37.1256C13.9953 35.2961 12.1841 34.4648 10.3732 34.7972C10.0436 34.7972 9.71435 34.9637 9.54983 34.9637C9.38506 34.9637 9.22054 34.9637 9.22054 34.9637C9.05578 34.9637 9.05578 34.9637 9.05578 34.9637C9.05578 34.9637 8.89125 34.7972 8.72649 34.7972C8.72649 34.631 8.56196 34.631 8.3972 34.4648C8.23268 34.1322 8.06791 33.7995 7.90339 33.4668C7.73863 32.8018 7.5741 32.3029 7.40934 31.8041C7.40934 31.3049 7.40934 30.8061 7.40934 30.3072C7.5741 29.6422 7.73863 28.8106 8.06791 27.9791C8.23268 27.6465 8.3972 27.3141 8.56196 26.9814C9.05578 26.6487 9.38506 26.3161 9.87912 25.8172C10.5377 25.4846 11.1963 25.1522 12.0196 24.8195C12.8427 24.4868 13.5013 24.1542 14.3246 23.988C15.148 23.988 15.9711 23.988 16.9589 23.988C17.2885 24.1542 17.453 24.3206 17.6177 24.4868C18.4408 25.1522 19.2642 25.9837 19.9228 26.8149C20.252 27.3141 20.5813 27.8129 20.9106 28.478C21.0754 28.8106 21.0754 29.3095 21.2399 29.6422C21.2399 30.4737 21.4047 31.4714 21.2399 32.3029C21.0754 32.8018 21.0754 33.3006 20.7461 33.7995C20.252 34.9637 19.4287 35.9614 18.6056 37.1256C17.7823 38.6222 17.1237 40.1187 16.6296 41.7818C15.9711 43.2784 15.4772 44.9414 15.3125 46.6044C15.148 47.436 14.9832 48.2675 15.148 49.0988C15.148 50.2629 15.148 51.4271 15.4772 52.591C15.8065 53.589 16.7944 54.4203 17.947 54.4203C19.2642 54.4203 20.4166 53.2563 20.4166 51.926C20.4166 50.5956 20.4166 49.4314 20.4166 48.101C20.7461 46.438 21.4047 44.7752 22.2278 43.1122C22.3925 42.4471 22.7218 41.7818 23.2156 41.1167C23.5449 40.6176 23.8742 40.1187 24.2037 39.6199C24.6975 39.121 25.1916 38.456 25.6854 37.7906C26.1795 37.1256 26.5087 36.2941 27.0026 35.2961C27.1673 34.631 27.3318 33.9657 27.4966 33.3006C27.6614 32.4691 27.6614 31.4714 27.6614 30.4737C27.6614 29.1433 27.4966 27.8129 27.1673 26.4825C26.838 25.4846 26.344 24.4868 25.6854 23.6553C24.8623 22.1587 23.7097 20.8284 22.3925 19.498C21.8985 18.9991 21.2399 18.5003 20.4166 18.0014C19.4287 17.3361 18.2763 17.0034 17.1237 16.8372C16.4651 16.8372 15.9711 16.8372 15.3125 16.8372C14.9832 16.8372 14.6539 16.8372 14.4894 16.8372Z" fill="#0C0C0C"/>
<path fill-rule="evenodd" clip-rule="evenodd" d="M14.4319 63.2069C14.4319 65.5263 16.2542 67.3488 18.4079 67.3488C20.5616 67.3488 22.5496 65.5263 22.5496 63.3726C22.5496 61.2189 20.7273 59.2309 18.5736 59.2309C16.2542 59.2309 14.4319 61.0532 14.4319 63.2069Z" fill="#0C0C0C"/>
<path fill-rule="evenodd" clip-rule="evenodd" d="M47.1785 10.5524C46.5123 10.7171 45.6795 11.0467 45.0133 11.3764C44.5137 11.5412 44.0141 12.0357 43.5143 12.3655C42.848 12.8598 42.3484 13.3543 41.6821 14.0136C40.0167 15.4972 38.6842 17.4751 38.351 19.618C38.1846 20.2773 38.1846 20.7718 38.1846 21.4311C38.1846 21.9257 38.351 22.4202 38.351 22.9145C38.5177 23.9035 38.8508 24.7278 39.184 25.3871C39.5171 26.0464 39.85 26.541 40.1831 27.0353C40.5163 27.365 40.8494 27.5298 41.1826 27.8596C41.8488 28.5189 42.848 29.1782 43.8474 29.5079C44.347 29.8375 45.0133 30.0025 45.5131 30.1672C46.8454 30.4968 48.1779 29.6727 48.6775 28.3541C49.0107 27.2003 48.1779 25.7167 46.8454 25.3871C46.3458 25.2221 45.846 25.0574 45.5131 24.8926C45.3464 24.8926 45.18 24.8926 45.18 24.7279C44.8468 24.5628 44.5137 24.2333 44.1805 23.9035C44.0141 23.574 43.8474 23.409 43.8474 23.2443C43.681 22.7497 43.5143 22.2552 43.3478 21.7609C43.3478 21.4311 43.3478 21.2664 43.3478 20.9366C43.5143 20.6071 43.5143 20.4421 43.681 20.1125C43.8474 19.618 44.1805 19.2882 44.347 18.9587C45.18 18.1344 46.0127 17.3103 46.8454 16.651C47.1785 16.3213 47.5117 16.1565 47.8448 15.9917C48.1779 15.8267 48.6775 15.662 49.1771 15.662C49.5102 15.662 49.8434 15.662 50.0098 15.662C50.5096 15.8267 51.0092 15.8267 51.3424 15.9917C52.1751 16.4863 53.0078 16.9806 53.8408 17.4751C54.3404 17.9696 54.8399 18.4642 55.3398 19.1235C55.5062 19.1235 55.5062 19.2882 55.6729 19.4532C55.6729 19.7828 55.8393 20.1125 55.8393 20.4421C55.8393 21.2664 55.8393 21.9257 55.8393 22.7497C55.6729 23.574 55.5062 24.3981 55.1731 25.2221C54.0072 27.5298 52.5082 29.3429 51.1759 31.3211C50.5096 32.4749 49.8434 33.4637 49.3438 34.6175C48.6775 36.1011 47.8448 37.7495 47.8448 39.3976C47.6781 40.7165 48.6775 41.8703 49.8434 42.1998C51.3424 42.6944 53.0078 41.8703 53.5076 40.2219C53.6741 38.9033 53.8408 37.5845 54.3404 36.2659C54.8399 35.2768 55.5062 34.288 56.1725 33.299C56.8388 32.3099 57.6715 31.3211 58.3377 30.332C59.1705 29.0134 59.8367 27.6948 60.3363 26.2112C60.8359 24.8926 61.0026 23.409 61.169 21.9257C61.3357 20.9366 61.169 19.9475 61.0026 18.9587C60.8359 17.4751 59.8367 15.9917 58.8373 14.8379C57.6715 13.6841 56.5056 12.695 55.1731 12.0357C54.0072 11.2117 52.6749 10.7171 51.3424 10.3874C50.6761 10.2226 50.1765 10.2226 49.6769 10.2226C48.844 10.2226 48.0112 10.3874 47.1785 10.5524Z" fill="#1EE8B7"/>
<path fill-rule="evenodd" clip-rule="evenodd" d="M47.5051 52.4659C47.5051 54.4268 49.1754 56.2243 51.1797 56.2243C53.3512 56.2243 55.0215 54.5903 55.0215 52.4659C55.0215 50.5051 53.3512 48.7076 51.3469 48.7076C49.3423 48.7076 47.5051 50.3418 47.5051 52.4659Z" fill="#1EE8B7"/>
<path fill-rule="evenodd" clip-rule="evenodd" d="M79.5629 7.15225C79.5629 8.80398 79.4003 10.2902 79.4003 11.9417C79.4003 13.4282 79.4003 14.9147 79.4003 16.4009C79.4003 17.8874 79.4003 19.3737 79.2379 20.8601C79.2379 21.6859 79.2379 22.3464 79.2379 23.1724C79.2379 24.1631 79.0753 25.1541 79.4003 26.1451C79.5629 26.4754 79.8879 26.9708 80.0505 27.3011C80.538 27.7966 81.1882 27.9618 82.0007 27.9618C82.9758 27.9618 84.1135 27.3011 84.4385 26.1451C84.7637 24.4936 84.7637 22.6769 84.7637 21.0254C84.7637 19.5389 84.7637 18.0524 84.7637 16.5662C84.7637 15.0797 84.7637 13.5934 84.7637 12.107C84.7637 10.4555 84.926 8.80398 84.926 7.31749C85.0886 5.83101 83.7886 4.51001 82.3259 4.51001C80.863 4.51001 79.7255 5.666 79.5629 7.15225Z" fill="#0C0C0C"/>
<path fill-rule="evenodd" clip-rule="evenodd" d="M78.1729 39.4563C78.1729 41.2372 79.6993 42.6943 81.3953 42.6943C83.2608 42.6943 84.7875 41.3991 84.7875 39.6182C84.7875 37.8373 83.2608 36.3804 81.5648 36.3804C79.6993 36.3804 78.1729 37.8373 78.1729 39.4563Z" fill="#0C0C0C"/>
<path fill-rule="evenodd" clip-rule="evenodd" d="M95.0105 36.9817C95.0105 38.8009 96.4987 40.2891 98.3178 40.2891C100.137 40.2891 101.625 38.8009 101.625 36.9817C101.625 35.1628 100.137 33.6744 98.3178 33.6744C96.6642 33.6744 95.0105 35.1628 95.0105 36.9817Z" fill="#0C0C0C"/>
<path fill-rule="evenodd" clip-rule="evenodd" d="M98.9521 0.501749C98.2841 0.836328 97.95 1.33832 97.6159 2.17465C97.2818 2.8438 97.2818 3.68037 97.1147 4.5167C97.1147 5.18586 97.1147 5.85502 96.9477 6.52418C96.7808 7.86249 96.7808 9.20081 96.6136 10.3717C96.4467 12.0446 96.2795 13.5503 96.2795 15.0558C96.1126 15.725 96.1126 16.5613 96.1126 17.2305C95.9454 18.067 95.7785 19.0708 95.6116 19.9071C95.6116 20.5763 95.9454 21.2454 96.4467 21.58C96.7808 22.082 97.4487 22.2492 97.95 22.2492C98.618 22.2492 99.2862 22.082 99.6203 21.58C100.121 21.2454 100.288 20.5763 100.455 19.9071C100.623 18.7362 100.789 17.5651 100.789 16.3941C100.956 15.223 101.124 14.2195 101.124 13.0484C101.458 11.5429 101.792 10.0371 101.959 8.53165C102.126 7.69509 102.293 6.85876 102.46 6.02243C102.627 5.52044 102.627 5.18586 102.794 4.68411C102.794 4.34953 102.961 4.01495 102.961 3.68037C103.128 2.8438 103.128 2.17465 102.794 1.50549C102.46 0.836328 101.792 0.334579 101.124 0.167169C100.789 0 100.623 0 100.288 0C99.7872 0 99.2862 0.167169 98.9521 0.501749Z" fill="#0C0C0C"/>
</svg>
