<svg width="12" height="14" viewBox="0 0 12 14" fill="none" xmlns="http://www.w3.org/2000/svg">
<path d="M10 9.52393C10.5417 9.52393 11 9.72184 11.375 10.1177C11.75 10.4927 11.9375 10.951 11.9375 11.4927C11.9375 12.0135 11.75 12.4614 11.375 12.8364C11 13.2323 10.5417 13.4302 10 13.4302C9.45833 13.4302 9 13.2323 8.625 12.8364C8.25 12.4614 8.0625 12.0031 8.0625 11.4614C8.0625 11.3364 8.07292 11.1906 8.09375 11.0239L3.375 8.27393C2.97917 8.62809 2.52083 8.80518 2 8.80518C1.4375 8.80518 0.958333 8.61768 0.5625 8.24268C0.1875 7.84684 0 7.36768 0 6.80518C0 6.24268 0.1875 5.77393 0.5625 5.39893C0.958333 5.00309 1.4375 4.80518 2 4.80518C2.52083 4.80518 2.97917 4.98226 3.375 5.33643L8.0625 2.61768C8.02083 2.43018 8 2.27393 8 2.14893C8 1.58643 8.1875 1.11768 8.5625 0.742676C8.95833 0.346842 9.4375 0.148926 10 0.148926C10.5625 0.148926 11.0312 0.346842 11.4062 0.742676C11.8021 1.11768 12 1.58643 12 2.14893C12 2.69059 11.8021 3.15934 11.4062 3.55518C11.0312 3.95101 10.5625 4.14893 10 4.14893C9.47917 4.14893 9.02083 3.96143 8.625 3.58643L3.9375 6.33643C3.97917 6.52393 4 6.68018 4 6.80518C4 6.93018 3.97917 7.08643 3.9375 7.27393L8.6875 10.0239C9.0625 9.69059 9.5 9.52393 10 9.52393Z" fill="#1EE8B7"/>
</svg>
