<svg width="12" height="13" viewBox="0 0 12 13" fill="none" xmlns="http://www.w3.org/2000/svg">
<g clip-path="url(#clip0)">
<path d="M11.9056 0.552864C11.8316 0.494739 11.7303 0.486301 11.6469 0.531301L0.126889 6.7713C0.0434515 6.8163 -0.00529864 6.90724 0.00407636 7.00193C0.0125139 7.09661 0.0762638 7.17724 0.166264 7.2063L3.44095 8.27505L3.12408 11.5169C3.11376 11.6201 3.17095 11.7176 3.26564 11.7579C3.29564 11.7719 3.32845 11.7785 3.36033 11.7785C3.42689 11.7785 3.49251 11.7504 3.53845 11.6979L5.60376 9.36443L8.71345 12.4301C8.75845 12.4741 8.81845 12.4985 8.88033 12.4985C8.90189 12.4985 8.92345 12.4947 8.94501 12.4891C9.02658 12.4666 9.09033 12.401 9.11095 12.3185L11.991 0.798489C12.0135 0.706614 11.9806 0.610051 11.9056 0.552864ZM3.92283 8.23099L8.60564 4.44443L5.41439 8.86286L3.66783 10.8344L3.92283 8.23099Z" fill="#1EE8B7"/>
</g>
<defs>
<clipPath id="clip0">
<rect width="12" height="12" fill="white" transform="translate(0 0.5)"/>
</clipPath>
</defs>
</svg>
