<svg width="55" height="14" viewBox="0 0 55 14" fill="none" xmlns="http://www.w3.org/2000/svg">
<path fill-rule="evenodd" clip-rule="evenodd" d="M44.9385 4.50409C45.1455 4.86119 45.2132 5.26748 45.2356 5.72424L45.265 6.33304V10.5902L45.295 11.1996C45.355 12.1949 46.0891 12.9308 47.092 12.9934L47.6982 13.0234V6.33304L47.7283 5.72424C47.7532 5.27259 47.8203 4.85863 48.0304 4.49898C48.2446 4.13008 48.552 3.82401 48.9219 3.61151C49.2918 3.39901 49.711 3.28755 50.1376 3.28833C50.5641 3.28911 50.983 3.40209 51.3521 3.61594C51.7211 3.82978 52.0275 4.13697 52.2403 4.50664C52.4473 4.86374 52.5118 5.2777 52.5367 5.72424L52.5667 6.33112V10.5902L52.5967 11.1996C52.6593 12.2 53.3876 12.9359 54.3938 12.9934L55 13.0234V5.72424C55 4.43354 54.4874 3.19568 53.5749 2.28284C52.6624 1.37 51.4248 0.856913 50.1341 0.856405C49.4433 0.855676 48.7603 1.00238 48.1307 1.28671C47.5011 1.57105 46.9394 1.98646 46.4832 2.50521C46.0268 1.98667 45.4651 1.57135 44.8356 1.28693C44.206 1.00252 43.5231 0.855528 42.8323 0.855766C41.8217 0.855766 40.8839 1.1624 40.1071 1.69199C39.6331 1.16304 38.5727 0.855766 37.9639 0.855766V13.0234L38.5727 12.9934C39.5909 12.9263 40.3269 12.2102 40.3665 11.1996L40.399 10.5902V6.33304L40.4291 5.72424C40.4546 5.26493 40.5185 4.86119 40.7261 4.50153C40.9405 4.13286 41.2478 3.82687 41.6174 3.61411C41.9869 3.40135 42.4059 3.28926 42.8323 3.28904C43.2591 3.28914 43.6784 3.40144 44.048 3.61471C44.4177 3.82797 44.7248 4.13468 44.9385 4.50409ZM3.28533 12.994L3.89413 13.0234H13.0197L12.9897 12.4166C12.9073 11.4162 12.1988 10.6853 11.1952 10.6202L10.5864 10.5902H5.11173L12.4109 3.28841L12.3809 2.68216C12.3336 1.67154 11.5951 0.941368 10.5864 0.88579L9.97764 0.858321L0.852051 0.855766L0.882075 1.46456C0.961928 2.45538 1.6806 3.20153 2.67589 3.25902L3.28533 3.28904H8.76005L1.46085 10.5908L1.49087 11.1996C1.55092 12.2025 2.27471 12.9289 3.28533 12.9934V12.994ZM35.5753 2.63681C36.1403 3.20173 36.5886 3.87243 36.8944 4.6106C37.2002 5.34877 37.3576 6.13995 37.3576 6.93896C37.3576 7.73797 37.2002 8.52915 36.8944 9.26732C36.5886 10.0055 36.1403 10.6762 35.5753 11.2411C34.4337 12.3818 32.886 13.0225 31.2722 13.0225C29.6584 13.0225 28.1106 12.3818 26.9691 11.2411C24.5933 8.86533 24.5933 5.01259 26.9691 2.63681C27.5336 2.07207 28.2038 1.62406 28.9415 1.31836C29.6792 1.01266 30.4698 0.855252 31.2683 0.855127C32.0682 0.854572 32.8602 1.0117 33.5993 1.31753C34.3383 1.62336 35.0098 2.07188 35.5753 2.63744V2.63681ZM33.8537 4.35971C34.538 5.04454 34.9224 5.97307 34.9224 6.9412C34.9224 7.90933 34.538 8.83785 33.8537 9.52268C33.1688 10.207 32.2403 10.5914 31.2722 10.5914C30.304 10.5914 29.3755 10.207 28.6907 9.52268C28.0064 8.83785 27.622 7.90933 27.622 6.9412C27.622 5.97307 28.0064 5.04454 28.6907 4.35971C29.3755 3.6754 30.304 3.291 31.2722 3.291C32.2403 3.291 33.1688 3.6754 33.8537 4.35971ZM18.4995 0.855127C19.2981 0.855335 20.0888 1.01284 20.8265 1.31866C21.5641 1.62447 22.2344 2.07259 22.7988 2.63744C25.1753 5.01259 25.1753 8.86597 22.7988 11.2411C21.6573 12.3818 20.1095 13.0225 18.4957 13.0225C16.8819 13.0225 15.3342 12.3818 14.1926 11.2411C11.8168 8.86533 11.8168 5.01259 14.1926 2.63681C14.7571 2.07207 15.4274 1.62406 16.165 1.31836C16.9027 1.01266 17.6934 0.855252 18.4919 0.855127H18.4995ZM21.0772 4.35843C21.7617 5.04329 22.1462 5.97195 22.1462 6.94024C22.1462 7.90853 21.7617 8.83719 21.0772 9.52205C20.3924 10.2064 19.4638 10.5908 18.4957 10.5908C17.5276 10.5908 16.5991 10.2064 15.9142 9.52205C15.2299 8.83721 14.8455 7.90869 14.8455 6.94056C14.8455 5.97243 15.2299 5.04391 15.9142 4.35907C16.5991 3.67476 17.5276 3.29036 18.4957 3.29036C19.4638 3.29036 20.3924 3.67476 21.0772 4.35907V4.35843Z" fill="#2D8CFF"/>
</svg>
