<svg width="14" height="14" viewBox="0 0 14 14" fill="none" xmlns="http://www.w3.org/2000/svg">
<path d="M2.59375 2.3125C3.90625 1 5.47917 0.34375 7.3125 0.34375C9.16667 0.34375 10.7396 1 12.0312 2.3125C13.3438 3.60417 14 5.16667 14 7C14 8.83333 13.3438 10.4062 12.0312 11.7188C10.7396 13.0104 9.16667 13.6562 7.3125 13.6562C5.47917 13.6562 3.90625 13.0104 2.59375 11.7188C1.30208 10.4062 0.65625 8.83333 0.65625 7C0.65625 5.16667 1.30208 3.60417 2.59375 2.3125ZM8 10.3438V6.34375H6.65625V10.3438H8ZM8 5V3.65625H6.65625V5H8Z" fill="#606060"/>
</svg>
