<svg width="21" height="20" viewBox="0 0 21 20" fill="none" xmlns="http://www.w3.org/2000/svg">
<path d="M2.90625 2.96875C4.875 1 7.23438 0.015625 9.98438 0.015625C12.7656 0.015625 15.125 1 17.0625 2.96875C19.0312 4.90625 20.0156 7.25 20.0156 10C20.0156 12.75 19.0312 15.1094 17.0625 17.0781C15.125 19.0156 12.7656 19.9844 9.98438 19.9844C7.23438 19.9844 4.875 19.0156 2.90625 17.0781C0.96875 15.1094 0 12.75 0 10C0 7.25 0.96875 4.90625 2.90625 2.96875ZM11.0156 16.9844V15.0156H9V16.9844H11.0156ZM13.0781 9.25C13.7031 8.625 14.0156 7.875 14.0156 7C14.0156 5.90625 13.625 4.96875 12.8438 4.1875C12.0625 3.40625 11.1094 3.01562 9.98438 3.01562C8.89062 3.01562 7.95312 3.40625 7.17188 4.1875C6.39062 4.96875 6 5.90625 6 7H8.01562C8.01562 6.4375 8.20312 5.96875 8.57812 5.59375C8.98438 5.1875 9.45312 4.98438 9.98438 4.98438C10.5469 4.98438 11.0156 5.1875 11.3906 5.59375C11.7969 5.96875 12 6.4375 12 7C12 7.5625 11.7969 8.03125 11.3906 8.40625L10.1719 9.67188C9.39062 10.4531 9 11.3906 9 12.4844V13H11.0156C11.0156 12.3125 11.0938 11.7812 11.25 11.4062C11.4375 11 11.75 10.5938 12.1875 10.1875L13.0781 9.25Z" fill="#B5B5B5"/>
</svg>