<svg width="78" height="78" viewBox="0 0 78 78" fill="none" xmlns="http://www.w3.org/2000/svg">
<path d="M55.666 49.1523L77.6113 71.0977L70.9863 77.7227L49.041 55.7773V52.2578L47.7988 51.0156C42.416 55.5703 36.2051 57.8477 29.166 57.8477C21.1608 57.8477 14.3288 55.0872 8.66992 49.5664C3.14909 43.9076 0.388672 37.1445 0.388672 29.2773C0.388672 21.2721 3.14909 14.5091 8.66992 8.98828C14.3288 3.32943 21.0918 0.5 28.959 0.5C36.9642 0.5 43.7272 3.32943 49.248 8.98828C54.9069 14.5091 57.7363 21.2721 57.7363 29.2773C57.7363 36.3164 55.459 42.5273 50.9043 47.9102L52.1465 49.1523H55.666ZM15.0879 43.3555C18.9525 47.2201 23.6452 49.1523 29.166 49.1523C34.6868 49.1523 39.3796 47.2201 43.2441 43.3555C47.1087 39.4909 49.041 34.7982 49.041 29.2773C49.041 23.7565 47.1087 19.0638 43.2441 15.1992C39.3796 11.3346 34.6868 9.40234 29.166 9.40234C23.6452 9.40234 18.9525 11.3346 15.0879 15.1992C11.2233 19.0638 9.29102 23.7565 9.29102 29.2773C9.29102 34.7982 11.2233 39.4909 15.0879 43.3555Z" fill="#E8E8E8"/>
</svg>
