<svg width="14" height="15" viewBox="0 0 14 15" fill="none" xmlns="http://www.w3.org/2000/svg">
<path d="M2.59375 2.8125C3.90625 1.5 5.47917 0.84375 7.3125 0.84375C9.16667 0.84375 10.7396 1.5 12.0312 2.8125C13.3438 4.10417 14 5.66667 14 7.5C14 9.33333 13.3438 10.9062 12.0312 12.2188C10.7396 13.5104 9.16667 14.1562 7.3125 14.1562C5.47917 14.1562 3.90625 13.5104 2.59375 12.2188C1.30208 10.9062 0.65625 9.33333 0.65625 7.5C0.65625 5.66667 1.30208 4.10417 2.59375 2.8125ZM10.6562 8.15625V6.84375H8V4.15625H6.65625V6.84375H4V8.15625H6.65625V10.8438H8V8.15625H10.6562Z" fill="#414141"/>
</svg>
